<mxfile host="app.diagrams.net" agent="Mozilla/5.0 (Windows NT 10.0; Win64; x64; rv:142.0) Gecko/20100101 Firefox/142.0" version="28.1.1">
  <diagram id="Jy47x0u3XFG5JDSihGer" name="Page-1">
    <mxGraphModel dx="5796" dy="1052" grid="1" gridSize="10" guides="1" tooltips="1" connect="1" arrows="1" fold="1" page="0" pageScale="1" pageWidth="980" pageHeight="690" background="none" math="0" shadow="0">
      <root>
        <mxCell id="0" />
        <mxCell id="1" parent="0" />
        <mxCell id="YG7zo1-SDTAd8ydAH6qE-20" value="" style="shape=folder;fontStyle=1;spacingTop=10;tabWidth=210;tabHeight=30;tabPosition=left;html=1;whiteSpace=wrap;" vertex="1" parent="1">
          <mxGeometry x="-1405" y="1250" width="2440" height="1840" as="geometry" />
        </mxCell>
        <mxCell id="YG7zo1-SDTAd8ydAH6qE-21" value="Main Backend" style="text;align=center;fontStyle=1;verticalAlign=middle;spacingLeft=3;spacingRight=3;strokeColor=none;rotatable=0;points=[[0,0.5],[1,0.5]];portConstraint=eastwest;html=1;" vertex="1" parent="1">
          <mxGeometry x="-1325.5" y="1260" width="80" as="geometry" />
        </mxCell>
        <mxCell id="YG7zo1-SDTAd8ydAH6qE-42" style="edgeStyle=orthogonalEdgeStyle;rounded=0;orthogonalLoop=1;jettySize=auto;html=1;exitX=0;exitY=0;exitDx=230;exitDy=30;exitPerimeter=0;entryX=0.5;entryY=1;entryDx=0;entryDy=0;" edge="1" parent="1" source="YG7zo1-SDTAd8ydAH6qE-17" target="node21">
          <mxGeometry relative="1" as="geometry" />
        </mxCell>
        <mxCell id="YG7zo1-SDTAd8ydAH6qE-17" value="" style="shape=folder;fontStyle=1;spacingTop=10;tabWidth=140;tabHeight=30;tabPosition=left;html=1;whiteSpace=wrap;" vertex="1" parent="1">
          <mxGeometry x="-1350" y="1410" width="320" height="140" as="geometry" />
        </mxCell>
        <mxCell id="YG7zo1-SDTAd8ydAH6qE-15" value="" style="shape=folder;fontStyle=1;spacingTop=10;tabWidth=140;tabHeight=30;tabPosition=left;html=1;whiteSpace=wrap;" vertex="1" parent="1">
          <mxGeometry x="-1350" y="1940" width="2330" height="290" as="geometry" />
        </mxCell>
        <mxCell id="YG7zo1-SDTAd8ydAH6qE-12" value="" style="shape=folder;fontStyle=1;spacingTop=10;tabWidth=140;tabHeight=30;tabPosition=left;html=1;whiteSpace=wrap;" vertex="1" parent="1">
          <mxGeometry x="-1350" y="2560" width="2330" height="480" as="geometry" />
        </mxCell>
        <mxCell id="YG7zo1-SDTAd8ydAH6qE-10" value="" style="shape=folder;fontStyle=1;spacingTop=10;tabWidth=140;tabHeight=30;tabPosition=left;html=1;whiteSpace=wrap;" vertex="1" parent="1">
          <mxGeometry x="-1350" y="2290" width="2330" height="200" as="geometry" />
        </mxCell>
        <mxCell id="YG7zo1-SDTAd8ydAH6qE-3" value="" style="shape=folder;fontStyle=1;spacingTop=10;tabWidth=140;tabHeight=30;tabPosition=left;html=1;whiteSpace=wrap;" vertex="1" parent="1">
          <mxGeometry x="-1350" y="1630" width="2330" height="200" as="geometry" />
        </mxCell>
        <mxCell id="node21" value="&lt;p style=&quot;margin:0px;margin-top:4px;text-align:center;&quot;&gt;&lt;b&gt;AplicatieGestionareStocuriApplication&lt;/b&gt;&lt;/p&gt;&lt;hr size=&quot;1&quot;/&gt;" style="verticalAlign=top;align=left;overflow=fill;fontSize=14;fontFamily=Helvetica;html=1;rounded=0;shadow=0;comic=0;labelBackgroundColor=none;strokeWidth=1;" parent="1" vertex="1">
          <mxGeometry x="-1350" y="1320" width="339" height="30" as="geometry" />
        </mxCell>
        <mxCell id="node7" value="&lt;p style=&quot;margin:0px;margin-top:4px;text-align:center;&quot;&gt;&lt;b&gt;CorsConfig&lt;/b&gt;&lt;/p&gt;&lt;hr size=&quot;1&quot;/&gt;&lt;p style=&quot;margin:0 0 0 4px;line-height:1.6;&quot;&gt;- allowedOrigins: String&lt;/p&gt;" style="verticalAlign=top;align=left;overflow=fill;fontSize=14;fontFamily=Helvetica;html=1;rounded=0;shadow=0;comic=0;labelBackgroundColor=none;strokeWidth=1;" parent="1" vertex="1">
          <mxGeometry x="-1280.5" y="1460" width="181" height="68" as="geometry" />
        </mxCell>
        <mxCell id="YG7zo1-SDTAd8ydAH6qE-33" style="edgeStyle=orthogonalEdgeStyle;rounded=0;orthogonalLoop=1;jettySize=auto;html=1;exitX=0.5;exitY=0;exitDx=0;exitDy=0;entryX=0.5;entryY=1;entryDx=0;entryDy=0;" edge="1" parent="1" source="node18" target="node8">
          <mxGeometry relative="1" as="geometry" />
        </mxCell>
        <mxCell id="node18" value="&lt;p style=&quot;margin:0px;margin-top:4px;text-align:center;&quot;&gt;&lt;b&gt;ExecutieReteta&lt;/b&gt;&lt;/p&gt;&lt;hr size=&quot;1&quot;/&gt;&lt;p style=&quot;margin:0 0 0 4px;line-height:1.6;&quot;&gt;- portii: int&lt;br/&gt;- totalPortii: int&lt;br/&gt;- numeReteta: String&lt;br/&gt;- dataUltimaModificare: LocalDate&lt;br/&gt;- um: String&lt;br/&gt;- codArticol: String&lt;br/&gt;- statusReteta: int&lt;br/&gt;- utilizator: String&lt;br/&gt;- gramajPerPortie: BigDecimal&lt;/p&gt;" style="verticalAlign=top;align=left;overflow=fill;fontSize=14;fontFamily=Helvetica;html=1;rounded=0;shadow=0;comic=0;labelBackgroundColor=none;strokeWidth=1;" parent="1" vertex="1">
          <mxGeometry x="660" y="2640" width="246" height="255" as="geometry" />
        </mxCell>
        <mxCell id="node10" value="&lt;p style=&quot;margin:0px;margin-top:4px;text-align:center;&quot;&gt;&lt;b&gt;ExecutieRetetaController&lt;/b&gt;&lt;/p&gt;&lt;hr size=&quot;1&quot;/&gt;&lt;p style=&quot;margin:0 0 0 4px;line-height:1.6;&quot;&gt;- executieRetetaService: ExecutieRetetaService&lt;/p&gt;" style="verticalAlign=top;align=left;overflow=fill;fontSize=14;fontFamily=Helvetica;html=1;rounded=0;shadow=0;comic=0;labelBackgroundColor=none;strokeWidth=1;" parent="1" vertex="1">
          <mxGeometry x="620" y="1700" width="324" height="68" as="geometry" />
        </mxCell>
        <mxCell id="YG7zo1-SDTAd8ydAH6qE-35" style="edgeStyle=orthogonalEdgeStyle;rounded=0;orthogonalLoop=1;jettySize=auto;html=1;exitX=0.5;exitY=0;exitDx=0;exitDy=0;entryX=0.5;entryY=1;entryDx=0;entryDy=0;" edge="1" parent="1" source="node8" target="node25">
          <mxGeometry relative="1" as="geometry" />
        </mxCell>
        <mxCell id="node8" value="&lt;p style=&quot;margin:0px;margin-top:4px;text-align:center;&quot;&gt;&lt;i&gt;&amp;lt;&amp;lt;interface&amp;gt;&amp;gt;&lt;/i&gt;&lt;br/&gt;&lt;b&gt;ExecutieRetetaRepository&lt;/b&gt;&lt;/p&gt;&lt;hr size=&quot;1&quot;/&gt;" style="verticalAlign=top;align=left;overflow=fill;fontSize=14;fontFamily=Helvetica;html=1;rounded=0;shadow=0;comic=0;labelBackgroundColor=none;strokeWidth=1;" parent="1" vertex="1">
          <mxGeometry x="658" y="2380" width="248" height="35" as="geometry" />
        </mxCell>
        <mxCell id="YG7zo1-SDTAd8ydAH6qE-54" style="edgeStyle=orthogonalEdgeStyle;rounded=0;orthogonalLoop=1;jettySize=auto;html=1;exitX=0.5;exitY=0;exitDx=0;exitDy=0;entryX=0.5;entryY=1;entryDx=0;entryDy=0;" edge="1" parent="1" source="node25" target="node10">
          <mxGeometry relative="1" as="geometry">
            <Array as="points">
              <mxPoint x="793" y="1910" />
              <mxPoint x="782" y="1910" />
            </Array>
          </mxGeometry>
        </mxCell>
        <mxCell id="node25" value="&lt;p style=&quot;margin:0px;margin-top:4px;text-align:center;&quot;&gt;&lt;b&gt;ExecutieRetetaService&lt;/b&gt;&lt;/p&gt;&lt;hr size=&quot;1&quot;/&gt;&lt;p style=&quot;margin:0 0 0 4px;line-height:1.6;&quot;&gt;- executieRetetaRepository: ExecutieRetetaRepository&lt;/p&gt;" style="verticalAlign=top;align=left;overflow=fill;fontSize=14;fontFamily=Helvetica;html=1;rounded=0;shadow=0;comic=0;labelBackgroundColor=none;strokeWidth=1;" parent="1" vertex="1">
          <mxGeometry x="620" y="2024" width="347" height="68" as="geometry" />
        </mxCell>
        <mxCell id="YG7zo1-SDTAd8ydAH6qE-28" style="edgeStyle=orthogonalEdgeStyle;rounded=0;orthogonalLoop=1;jettySize=auto;html=1;exitX=0.5;exitY=0;exitDx=0;exitDy=0;entryX=0.5;entryY=1;entryDx=0;entryDy=0;" edge="1" parent="1" source="node14" target="node19">
          <mxGeometry relative="1" as="geometry" />
        </mxCell>
        <mxCell id="node14" value="&lt;p style=&quot;margin:0px;margin-top:4px;text-align:center;&quot;&gt;&lt;b&gt;IntrariMagazie&lt;/b&gt;&lt;/p&gt;&lt;hr size=&quot;1&quot;/&gt;&lt;p style=&quot;margin:0 0 0 4px;line-height:1.6;&quot;&gt;- pretTotalCantitateCumparata: BigDecimal&lt;br/&gt;- pretTotalCantitateUtilizata: BigDecimal&lt;br/&gt;- cantitateFolosita: BigDecimal&lt;br/&gt;- numeIngredient: String&lt;br/&gt;- pretAchizitie: BigDecimal&lt;br/&gt;- cantitate: BigDecimal&lt;br/&gt;- id: IntrariMagazieKey&lt;/p&gt;" style="verticalAlign=top;align=left;overflow=fill;fontSize=14;fontFamily=Helvetica;html=1;rounded=0;shadow=0;comic=0;labelBackgroundColor=none;strokeWidth=1;" parent="1" vertex="1">
          <mxGeometry x="-992.5" y="2640" width="301" height="207" as="geometry" />
        </mxCell>
        <mxCell id="node20" value="&lt;p style=&quot;margin:0px;margin-top:4px;text-align:center;&quot;&gt;&lt;b&gt;IntrariMagazieController&lt;/b&gt;&lt;/p&gt;&lt;hr size=&quot;1&quot;/&gt;&lt;p style=&quot;margin:0 0 0 4px;line-height:1.6;&quot;&gt;- intrariMagazieService: IntrariMagazieService&lt;/p&gt;" style="verticalAlign=top;align=left;overflow=fill;fontSize=14;fontFamily=Helvetica;html=1;rounded=0;shadow=0;comic=0;labelBackgroundColor=none;strokeWidth=1;" parent="1" vertex="1">
          <mxGeometry x="-1000" y="1700" width="316" height="68" as="geometry" />
        </mxCell>
        <mxCell id="YG7zo1-SDTAd8ydAH6qE-27" style="edgeStyle=orthogonalEdgeStyle;rounded=0;orthogonalLoop=1;jettySize=auto;html=1;exitX=0.5;exitY=0;exitDx=0;exitDy=0;entryX=0.5;entryY=1;entryDx=0;entryDy=0;" edge="1" parent="1" source="node16" target="node14">
          <mxGeometry relative="1" as="geometry" />
        </mxCell>
        <mxCell id="node16" value="&lt;p style=&quot;margin:0px;margin-top:4px;text-align:center;&quot;&gt;&lt;b&gt;IntrariMagazieKey&lt;/b&gt;&lt;/p&gt;&lt;hr size=&quot;1&quot;/&gt;&lt;p style=&quot;margin:0 0 0 4px;line-height:1.6;&quot;&gt;- dataAchizitie: LocalDate&lt;br/&gt;- codIngredient: String&lt;/p&gt;" style="verticalAlign=top;align=left;overflow=fill;fontSize=14;fontFamily=Helvetica;html=1;rounded=0;shadow=0;comic=0;labelBackgroundColor=none;strokeWidth=1;" parent="1" vertex="1">
          <mxGeometry x="-939" y="2920" width="194" height="94" as="geometry" />
        </mxCell>
        <mxCell id="YG7zo1-SDTAd8ydAH6qE-39" style="edgeStyle=orthogonalEdgeStyle;rounded=0;orthogonalLoop=1;jettySize=auto;html=1;exitX=0.5;exitY=0;exitDx=0;exitDy=0;entryX=0.25;entryY=1;entryDx=0;entryDy=0;" edge="1" parent="1" source="node19" target="node0">
          <mxGeometry relative="1" as="geometry">
            <Array as="points">
              <mxPoint x="-842" y="2210" />
              <mxPoint x="-954" y="2210" />
            </Array>
          </mxGeometry>
        </mxCell>
        <mxCell id="node19" value="&lt;p style=&quot;margin:0px;margin-top:4px;text-align:center;&quot;&gt;&lt;i&gt;&amp;lt;&amp;lt;interface&amp;gt;&amp;gt;&lt;/i&gt;&lt;br/&gt;&lt;b&gt;IntrariMagazieRepository&lt;/b&gt;&lt;/p&gt;&lt;hr size=&quot;1&quot;/&gt;" style="verticalAlign=top;align=left;overflow=fill;fontSize=14;fontFamily=Helvetica;html=1;rounded=0;shadow=0;comic=0;labelBackgroundColor=none;strokeWidth=1;" parent="1" vertex="1">
          <mxGeometry x="-963" y="2380" width="242" height="35" as="geometry" />
        </mxCell>
        <mxCell id="YG7zo1-SDTAd8ydAH6qE-48" style="edgeStyle=orthogonalEdgeStyle;rounded=0;orthogonalLoop=1;jettySize=auto;html=1;exitX=0.5;exitY=0;exitDx=0;exitDy=0;entryX=0.5;entryY=1;entryDx=0;entryDy=0;" edge="1" parent="1" source="node0" target="node20">
          <mxGeometry relative="1" as="geometry" />
        </mxCell>
        <mxCell id="node0" value="&lt;p style=&quot;margin:0px;margin-top:4px;text-align:center;&quot;&gt;&lt;b&gt;IntrariMagazieService&lt;/b&gt;&lt;/p&gt;&lt;hr size=&quot;1&quot;/&gt;&lt;p style=&quot;margin:0 0 0 4px;line-height:1.6;&quot;&gt;- intrariMagazieRepository: IntrariMagazieRepository&lt;/p&gt;" style="verticalAlign=top;align=left;overflow=fill;fontSize=14;fontFamily=Helvetica;html=1;rounded=0;shadow=0;comic=0;labelBackgroundColor=none;strokeWidth=1;" parent="1" vertex="1">
          <mxGeometry x="-1044" y="2010" width="360" height="68" as="geometry" />
        </mxCell>
        <mxCell id="YG7zo1-SDTAd8ydAH6qE-30" style="edgeStyle=orthogonalEdgeStyle;rounded=0;orthogonalLoop=1;jettySize=auto;html=1;exitX=0.5;exitY=0;exitDx=0;exitDy=0;entryX=0.5;entryY=1;entryDx=0;entryDy=0;" edge="1" parent="1" source="node6" target="node29">
          <mxGeometry relative="1" as="geometry" />
        </mxCell>
        <mxCell id="node6" value="&lt;p style=&quot;margin:0px;margin-top:4px;text-align:center;&quot;&gt;&lt;b&gt;MateriePrima&lt;/b&gt;&lt;/p&gt;&lt;hr size=&quot;1&quot;/&gt;&lt;p style=&quot;margin:0 0 0 4px;line-height:1.6;&quot;&gt;- codArticol: String&lt;br/&gt;- denumireUm: String&lt;br/&gt;- tvaVanzare: String&lt;br/&gt;- codMoneda: String&lt;br/&gt;- um: String&lt;br/&gt;- stoculActualTotal: BigDecimal&lt;br/&gt;- denumire: String&lt;br/&gt;- gestiune: String&lt;br/&gt;- denumireScurta: String&lt;br/&gt;- pretMateriePrima: BigDecimal&lt;br/&gt;- gestiune1: String&lt;/p&gt;" style="verticalAlign=top;align=left;overflow=fill;fontSize=14;fontFamily=Helvetica;html=1;rounded=0;shadow=0;comic=0;labelBackgroundColor=none;strokeWidth=1;" parent="1" vertex="1">
          <mxGeometry x="-572.5" y="2640" width="229" height="303" as="geometry" />
        </mxCell>
        <mxCell id="node24" value="&lt;p style=&quot;margin:0px;margin-top:4px;text-align:center;&quot;&gt;&lt;b&gt;MateriePrimaController&lt;/b&gt;&lt;/p&gt;&lt;hr size=&quot;1&quot;/&gt;&lt;p style=&quot;margin:0 0 0 4px;line-height:1.6;&quot;&gt;- materiePrimaService: MateriePrimaService&lt;br/&gt;- materiePrimaExportService: MateriePrimaExportService&lt;/p&gt;" style="verticalAlign=top;align=left;overflow=fill;fontSize=14;fontFamily=Helvetica;html=1;rounded=0;shadow=0;comic=0;labelBackgroundColor=none;strokeWidth=1;" parent="1" vertex="1">
          <mxGeometry x="-650" y="1687" width="384" height="94" as="geometry" />
        </mxCell>
        <mxCell id="YG7zo1-SDTAd8ydAH6qE-50" style="edgeStyle=orthogonalEdgeStyle;rounded=0;orthogonalLoop=1;jettySize=auto;html=1;exitX=0.75;exitY=0;exitDx=0;exitDy=0;entryX=0.5;entryY=1;entryDx=0;entryDy=0;" edge="1" parent="1" source="node23" target="node24">
          <mxGeometry relative="1" as="geometry" />
        </mxCell>
        <mxCell id="node23" value="&lt;p style=&quot;margin:0px;margin-top:4px;text-align:center;&quot;&gt;&lt;b&gt;MateriePrimaExportService&lt;/b&gt;&lt;/p&gt;&lt;hr size=&quot;1&quot;/&gt;&lt;p style=&quot;margin:0 0 0 4px;line-height:1.6;&quot;&gt;- materiePrimaRepository: MateriePrimaRepository&lt;br/&gt;- intrariMagazieRepository: IntrariMagazieRepository&lt;/p&gt;" style="verticalAlign=top;align=left;overflow=fill;fontSize=14;fontFamily=Helvetica;html=1;rounded=0;shadow=0;comic=0;labelBackgroundColor=none;strokeWidth=1;" parent="1" vertex="1">
          <mxGeometry x="-830" y="2110" width="360" height="94" as="geometry" />
        </mxCell>
        <mxCell id="YG7zo1-SDTAd8ydAH6qE-37" style="edgeStyle=orthogonalEdgeStyle;rounded=0;orthogonalLoop=1;jettySize=auto;html=1;exitX=0.5;exitY=0;exitDx=0;exitDy=0;entryX=0.5;entryY=1;entryDx=0;entryDy=0;" edge="1" parent="1" source="node29" target="node23">
          <mxGeometry relative="1" as="geometry" />
        </mxCell>
        <mxCell id="YG7zo1-SDTAd8ydAH6qE-38" style="edgeStyle=orthogonalEdgeStyle;rounded=0;orthogonalLoop=1;jettySize=auto;html=1;exitX=0.75;exitY=0;exitDx=0;exitDy=0;entryX=0.5;entryY=1;entryDx=0;entryDy=0;" edge="1" parent="1" source="node29" target="node9">
          <mxGeometry relative="1" as="geometry">
            <Array as="points">
              <mxPoint x="-399" y="2200" />
              <mxPoint x="-297" y="2200" />
            </Array>
          </mxGeometry>
        </mxCell>
        <mxCell id="node29" value="&lt;p style=&quot;margin:0px;margin-top:4px;text-align:center;&quot;&gt;&lt;i&gt;&amp;lt;&amp;lt;interface&amp;gt;&amp;gt;&lt;/i&gt;&lt;br/&gt;&lt;b&gt;MateriePrimaRepository&lt;/b&gt;&lt;/p&gt;&lt;hr size=&quot;1&quot;/&gt;" style="verticalAlign=top;align=left;overflow=fill;fontSize=14;fontFamily=Helvetica;html=1;rounded=0;shadow=0;comic=0;labelBackgroundColor=none;strokeWidth=1;" parent="1" vertex="1">
          <mxGeometry x="-575.5" y="2380" width="235" height="35" as="geometry" />
        </mxCell>
        <mxCell id="YG7zo1-SDTAd8ydAH6qE-51" style="edgeStyle=orthogonalEdgeStyle;rounded=0;orthogonalLoop=1;jettySize=auto;html=1;exitX=0.5;exitY=0;exitDx=0;exitDy=0;entryX=0.75;entryY=1;entryDx=0;entryDy=0;" edge="1" parent="1" source="node9" target="node24">
          <mxGeometry relative="1" as="geometry" />
        </mxCell>
        <mxCell id="node9" value="&lt;p style=&quot;margin:0px;margin-top:4px;text-align:center;&quot;&gt;&lt;b&gt;MateriePrimaService&lt;/b&gt;&lt;/p&gt;&lt;hr size=&quot;1&quot;/&gt;&lt;p style=&quot;margin:0 0 0 4px;line-height:1.6;&quot;&gt;- materiePrimaRepository: MateriePrimaRepository&lt;/p&gt;" style="verticalAlign=top;align=left;overflow=fill;fontSize=14;fontFamily=Helvetica;html=1;rounded=0;shadow=0;comic=0;labelBackgroundColor=none;strokeWidth=1;" parent="1" vertex="1">
          <mxGeometry x="-470" y="2010" width="346" height="68" as="geometry" />
        </mxCell>
        <mxCell id="YG7zo1-SDTAd8ydAH6qE-29" style="edgeStyle=orthogonalEdgeStyle;rounded=0;orthogonalLoop=1;jettySize=auto;html=1;exitX=0.5;exitY=0;exitDx=0;exitDy=0;entryX=0.5;entryY=1;entryDx=0;entryDy=0;" edge="1" parent="1" source="node17" target="node13">
          <mxGeometry relative="1" as="geometry" />
        </mxCell>
        <mxCell id="node17" value="&lt;p style=&quot;margin:0px;margin-top:4px;text-align:center;&quot;&gt;&lt;b&gt;MeniuZilnic&lt;/b&gt;&lt;/p&gt;&lt;hr size=&quot;1&quot;/&gt;&lt;p style=&quot;margin:0 0 0 4px;line-height:1.6;&quot;&gt;- totalPortii: int&lt;br/&gt;- portii: int&lt;br/&gt;- gramajPerPortie: BigDecimal&lt;br/&gt;- um: String&lt;br/&gt;- codArticol: String&lt;br/&gt;- statusReteta: int&lt;br/&gt;- dataUltimaModificare: LocalDate&lt;br/&gt;- numeReteta: String&lt;br/&gt;- utilizator: String&lt;/p&gt;" style="verticalAlign=top;align=left;overflow=fill;fontSize=14;fontFamily=Helvetica;html=1;rounded=0;shadow=0;comic=0;labelBackgroundColor=none;strokeWidth=1;" parent="1" vertex="1">
          <mxGeometry x="-1302" y="2640" width="246" height="255" as="geometry" />
        </mxCell>
        <mxCell id="node3" value="&lt;p style=&quot;margin:0px;margin-top:4px;text-align:center;&quot;&gt;&lt;b&gt;MeniuZilnicController&lt;/b&gt;&lt;/p&gt;&lt;hr size=&quot;1&quot;/&gt;&lt;p style=&quot;margin:0 0 0 4px;line-height:1.6;&quot;&gt;- meniuZilnicService: MeniuZilnicService&lt;/p&gt;" style="verticalAlign=top;align=left;overflow=fill;fontSize=14;fontFamily=Helvetica;html=1;rounded=0;shadow=0;comic=0;labelBackgroundColor=none;strokeWidth=1;" parent="1" vertex="1">
          <mxGeometry x="-1320" y="1700" width="282" height="68" as="geometry" />
        </mxCell>
        <mxCell id="YG7zo1-SDTAd8ydAH6qE-40" style="edgeStyle=orthogonalEdgeStyle;rounded=0;orthogonalLoop=1;jettySize=auto;html=1;exitX=0.5;exitY=0;exitDx=0;exitDy=0;entryX=0.5;entryY=1;entryDx=0;entryDy=0;" edge="1" parent="1" source="node13" target="node28">
          <mxGeometry relative="1" as="geometry" />
        </mxCell>
        <mxCell id="node13" value="&lt;p style=&quot;margin:0px;margin-top:4px;text-align:center;&quot;&gt;&lt;i&gt;&amp;lt;&amp;lt;interface&amp;gt;&amp;gt;&lt;/i&gt;&lt;br/&gt;&lt;b&gt;MeniuZilnicRepository&lt;/b&gt;&lt;/p&gt;&lt;hr size=&quot;1&quot;/&gt;" style="verticalAlign=top;align=left;overflow=fill;fontSize=14;fontFamily=Helvetica;html=1;rounded=0;shadow=0;comic=0;labelBackgroundColor=none;strokeWidth=1;" parent="1" vertex="1">
          <mxGeometry x="-1289.5" y="2380" width="221" height="35" as="geometry" />
        </mxCell>
        <mxCell id="YG7zo1-SDTAd8ydAH6qE-47" style="edgeStyle=orthogonalEdgeStyle;rounded=0;orthogonalLoop=1;jettySize=auto;html=1;exitX=0.5;exitY=0;exitDx=0;exitDy=0;entryX=0.5;entryY=1;entryDx=0;entryDy=0;" edge="1" parent="1" source="node28" target="node3">
          <mxGeometry relative="1" as="geometry" />
        </mxCell>
        <mxCell id="node28" value="&lt;p style=&quot;margin:0px;margin-top:4px;text-align:center;&quot;&gt;&lt;b&gt;MeniuZilnicService&lt;/b&gt;&lt;/p&gt;&lt;hr size=&quot;1&quot;/&gt;&lt;p style=&quot;margin:0 0 0 4px;line-height:1.6;&quot;&gt;- meniuZilnicRepository: MeniuZilnicRepository&lt;/p&gt;" style="verticalAlign=top;align=left;overflow=fill;fontSize=14;fontFamily=Helvetica;html=1;rounded=0;shadow=0;comic=0;labelBackgroundColor=none;strokeWidth=1;" parent="1" vertex="1">
          <mxGeometry x="-1341" y="2110" width="324" height="68" as="geometry" />
        </mxCell>
        <mxCell id="YG7zo1-SDTAd8ydAH6qE-32" style="edgeStyle=orthogonalEdgeStyle;rounded=0;orthogonalLoop=1;jettySize=auto;html=1;exitX=0.5;exitY=0;exitDx=0;exitDy=0;entryX=0.5;entryY=1;entryDx=0;entryDy=0;" edge="1" parent="1" source="node27" target="node15">
          <mxGeometry relative="1" as="geometry" />
        </mxCell>
        <mxCell id="node27" value="&lt;p style=&quot;margin:0px;margin-top:4px;text-align:center;&quot;&gt;&lt;b&gt;Reteta&lt;/b&gt;&lt;/p&gt;&lt;hr size=&quot;1&quot;/&gt;&lt;p style=&quot;margin:0 0 0 4px;line-height:1.6;&quot;&gt;- denumire: String&lt;br/&gt;- um: String&lt;br/&gt;- gestiune: Float&lt;br/&gt;- tvaVanzare: String&lt;br/&gt;- tvaVanzare1: String&lt;br/&gt;- gestiune1: String&lt;br/&gt;- codArticol: String&lt;br/&gt;- contStoc: String&lt;br/&gt;- denumireScurta: String&lt;br/&gt;- denumireUm: String&lt;br/&gt;- codMoneda: String&lt;/p&gt;" style="verticalAlign=top;align=left;overflow=fill;fontSize=14;fontFamily=Helvetica;html=1;rounded=0;shadow=0;comic=0;labelBackgroundColor=none;strokeWidth=1;" parent="1" vertex="1">
          <mxGeometry x="368.5" y="2640" width="185" height="303" as="geometry" />
        </mxCell>
        <mxCell id="node12" value="&lt;p style=&quot;margin:0px;margin-top:4px;text-align:center;&quot;&gt;&lt;b&gt;RetetaController&lt;/b&gt;&lt;/p&gt;&lt;hr size=&quot;1&quot;/&gt;&lt;p style=&quot;margin:0 0 0 4px;line-height:1.6;&quot;&gt;- retetaService: RetetaService&lt;/p&gt;" style="verticalAlign=top;align=left;overflow=fill;fontSize=14;fontFamily=Helvetica;html=1;rounded=0;shadow=0;comic=0;labelBackgroundColor=none;strokeWidth=1;" parent="1" vertex="1">
          <mxGeometry x="370" y="1700" width="217" height="68" as="geometry" />
        </mxCell>
        <mxCell id="YG7zo1-SDTAd8ydAH6qE-31" style="edgeStyle=orthogonalEdgeStyle;rounded=0;orthogonalLoop=1;jettySize=auto;html=1;exitX=0.5;exitY=0;exitDx=0;exitDy=0;entryX=0.5;entryY=1;entryDx=0;entryDy=0;" edge="1" parent="1" source="node26" target="node11">
          <mxGeometry relative="1" as="geometry" />
        </mxCell>
        <mxCell id="node26" value="&lt;p style=&quot;margin:0px;margin-top:4px;text-align:center;&quot;&gt;&lt;b&gt;RetetaIngrediente&lt;/b&gt;&lt;/p&gt;&lt;hr size=&quot;1&quot;/&gt;&lt;p style=&quot;margin:0 0 0 4px;line-height:1.6;&quot;&gt;- um: String&lt;br/&gt;- numeReteta: String&lt;br/&gt;- id: RetetaIngredienteKey&lt;br/&gt;- cantitate: BigDecimal&lt;br/&gt;- necesar: BigDecimal&lt;br/&gt;- numeMateriePrima: String&lt;/p&gt;" style="verticalAlign=top;align=left;overflow=fill;fontSize=14;fontFamily=Helvetica;html=1;rounded=0;shadow=0;comic=0;labelBackgroundColor=none;strokeWidth=1;" parent="1" vertex="1">
          <mxGeometry x="-186.5" y="2640" width="203" height="183" as="geometry" />
        </mxCell>
        <mxCell id="node2" value="&lt;p style=&quot;margin:0px;margin-top:4px;text-align:center;&quot;&gt;&lt;b&gt;RetetaIngredienteController&lt;/b&gt;&lt;/p&gt;&lt;hr size=&quot;1&quot;/&gt;&lt;p style=&quot;margin:0 0 0 4px;line-height:1.6;&quot;&gt;- retetaIngredienteService: RetetaIngredienteService&lt;/p&gt;" style="verticalAlign=top;align=left;overflow=fill;fontSize=14;fontFamily=Helvetica;html=1;rounded=0;shadow=0;comic=0;labelBackgroundColor=none;strokeWidth=1;" parent="1" vertex="1">
          <mxGeometry x="-220" y="1700" width="357" height="68" as="geometry" />
        </mxCell>
        <mxCell id="YG7zo1-SDTAd8ydAH6qE-26" style="edgeStyle=orthogonalEdgeStyle;rounded=0;orthogonalLoop=1;jettySize=auto;html=1;exitX=0.5;exitY=0;exitDx=0;exitDy=0;entryX=0.5;entryY=1;entryDx=0;entryDy=0;" edge="1" parent="1" source="node5" target="node26">
          <mxGeometry relative="1" as="geometry" />
        </mxCell>
        <mxCell id="node5" value="&lt;p style=&quot;margin:0px;margin-top:4px;text-align:center;&quot;&gt;&lt;b&gt;RetetaIngredienteKey&lt;/b&gt;&lt;/p&gt;&lt;hr size=&quot;1&quot;/&gt;&lt;p style=&quot;margin:0 0 0 4px;line-height:1.6;&quot;&gt;- codReteta: String&lt;br/&gt;- codIngredient: String&lt;/p&gt;" style="verticalAlign=top;align=left;overflow=fill;fontSize=14;fontFamily=Helvetica;html=1;rounded=0;shadow=0;comic=0;labelBackgroundColor=none;strokeWidth=1;" parent="1" vertex="1">
          <mxGeometry x="-194.5" y="2920" width="219" height="94" as="geometry" />
        </mxCell>
        <mxCell id="YG7zo1-SDTAd8ydAH6qE-36" style="edgeStyle=orthogonalEdgeStyle;rounded=0;orthogonalLoop=1;jettySize=auto;html=1;exitX=0.5;exitY=0;exitDx=0;exitDy=0;entryX=0.5;entryY=1;entryDx=0;entryDy=0;" edge="1" parent="1" source="node11" target="node4">
          <mxGeometry relative="1" as="geometry" />
        </mxCell>
        <mxCell id="node11" value="&lt;p style=&quot;margin:0px;margin-top:4px;text-align:center;&quot;&gt;&lt;i&gt;&amp;lt;&amp;lt;interface&amp;gt;&amp;gt;&lt;/i&gt;&lt;br/&gt;&lt;b&gt;RetetaIngredienteRepository&lt;/b&gt;&lt;/p&gt;&lt;hr size=&quot;1&quot;/&gt;" style="verticalAlign=top;align=left;overflow=fill;fontSize=14;fontFamily=Helvetica;html=1;rounded=0;shadow=0;comic=0;labelBackgroundColor=none;strokeWidth=1;" parent="1" vertex="1">
          <mxGeometry x="-220" y="2380" width="270" height="35" as="geometry" />
        </mxCell>
        <mxCell id="YG7zo1-SDTAd8ydAH6qE-52" style="edgeStyle=orthogonalEdgeStyle;rounded=0;orthogonalLoop=1;jettySize=auto;html=1;exitX=0.5;exitY=0;exitDx=0;exitDy=0;entryX=0.5;entryY=1;entryDx=0;entryDy=0;" edge="1" parent="1" source="node4" target="node2">
          <mxGeometry relative="1" as="geometry" />
        </mxCell>
        <mxCell id="node4" value="&lt;p style=&quot;margin:0px;margin-top:4px;text-align:center;&quot;&gt;&lt;b&gt;RetetaIngredienteService&lt;/b&gt;&lt;/p&gt;&lt;hr size=&quot;1&quot;/&gt;&lt;p style=&quot;margin:0 0 0 4px;line-height:1.6;&quot;&gt;- retetaIngredienteRepository: RetetaIngredienteRepository&lt;/p&gt;" style="verticalAlign=top;align=left;overflow=fill;fontSize=14;fontFamily=Helvetica;html=1;rounded=0;shadow=0;comic=0;labelBackgroundColor=none;strokeWidth=1;" parent="1" vertex="1">
          <mxGeometry x="-80" y="2024" width="400" height="68" as="geometry" />
        </mxCell>
        <mxCell id="YG7zo1-SDTAd8ydAH6qE-34" style="edgeStyle=orthogonalEdgeStyle;rounded=0;orthogonalLoop=1;jettySize=auto;html=1;exitX=0.5;exitY=0;exitDx=0;exitDy=0;entryX=0.5;entryY=1;entryDx=0;entryDy=0;" edge="1" parent="1" source="node15" target="node1">
          <mxGeometry relative="1" as="geometry" />
        </mxCell>
        <mxCell id="node15" value="&lt;p style=&quot;margin:0px;margin-top:4px;text-align:center;&quot;&gt;&lt;i&gt;&amp;lt;&amp;lt;interface&amp;gt;&amp;gt;&lt;/i&gt;&lt;br/&gt;&lt;b&gt;RetetaRepository&lt;/b&gt;&lt;/p&gt;&lt;hr size=&quot;1&quot;/&gt;" style="verticalAlign=top;align=left;overflow=fill;fontSize=14;fontFamily=Helvetica;html=1;rounded=0;shadow=0;comic=0;labelBackgroundColor=none;strokeWidth=1;" parent="1" vertex="1">
          <mxGeometry x="370" y="2380" width="182" height="35" as="geometry" />
        </mxCell>
        <mxCell id="YG7zo1-SDTAd8ydAH6qE-53" style="edgeStyle=orthogonalEdgeStyle;rounded=0;orthogonalLoop=1;jettySize=auto;html=1;exitX=0.5;exitY=0;exitDx=0;exitDy=0;entryX=0.5;entryY=1;entryDx=0;entryDy=0;" edge="1" parent="1" source="node1" target="node12">
          <mxGeometry relative="1" as="geometry" />
        </mxCell>
        <mxCell id="node1" value="&lt;p style=&quot;margin:0px;margin-top:4px;text-align:center;&quot;&gt;&lt;b&gt;RetetaService&lt;/b&gt;&lt;/p&gt;&lt;hr size=&quot;1&quot;/&gt;&lt;p style=&quot;margin:0 0 0 4px;line-height:1.6;&quot;&gt;- retetaRepository: RetetaRepository&lt;/p&gt;" style="verticalAlign=top;align=left;overflow=fill;fontSize=14;fontFamily=Helvetica;html=1;rounded=0;shadow=0;comic=0;labelBackgroundColor=none;strokeWidth=1;" parent="1" vertex="1">
          <mxGeometry x="348" y="2024" width="261" height="68" as="geometry" />
        </mxCell>
        <mxCell id="node22" value="&lt;p style=&quot;margin:0px;margin-top:4px;text-align:center;&quot;&gt;&lt;b&gt;SPAController&lt;/b&gt;&lt;/p&gt;&lt;hr size=&quot;1&quot;/&gt;" style="verticalAlign=top;align=left;overflow=fill;fontSize=14;fontFamily=Helvetica;html=1;rounded=0;shadow=0;comic=0;labelBackgroundColor=none;strokeWidth=1;" parent="1" vertex="1">
          <mxGeometry x="180" y="1719" width="159" height="30" as="geometry" />
        </mxCell>
        <mxCell id="YG7zo1-SDTAd8ydAH6qE-6" value="Controller" style="text;align=center;fontStyle=1;verticalAlign=middle;spacingLeft=3;spacingRight=3;strokeColor=none;rotatable=0;points=[[0,0.5],[1,0.5]];portConstraint=eastwest;html=1;" vertex="1" parent="1">
          <mxGeometry x="-1320" y="1640" width="80" height="4" as="geometry" />
        </mxCell>
        <mxCell id="YG7zo1-SDTAd8ydAH6qE-11" value="Repository" style="text;align=center;fontStyle=1;verticalAlign=middle;spacingLeft=3;spacingRight=3;strokeColor=none;rotatable=0;points=[[0,0.5],[1,0.5]];portConstraint=eastwest;html=1;" vertex="1" parent="1">
          <mxGeometry x="-1320" y="2300" width="80" height="4" as="geometry" />
        </mxCell>
        <mxCell id="YG7zo1-SDTAd8ydAH6qE-13" value="Model" style="text;align=center;fontStyle=1;verticalAlign=middle;spacingLeft=3;spacingRight=3;strokeColor=none;rotatable=0;points=[[0,0.5],[1,0.5]];portConstraint=eastwest;html=1;" vertex="1" parent="1">
          <mxGeometry x="-1320" y="2570" width="80" height="4" as="geometry" />
        </mxCell>
        <mxCell id="YG7zo1-SDTAd8ydAH6qE-16" value="Service" style="text;align=center;fontStyle=1;verticalAlign=middle;spacingLeft=3;spacingRight=3;strokeColor=none;rotatable=0;points=[[0,0.5],[1,0.5]];portConstraint=eastwest;html=1;" vertex="1" parent="1">
          <mxGeometry x="-1320" y="1950" width="80" height="4" as="geometry" />
        </mxCell>
        <mxCell id="YG7zo1-SDTAd8ydAH6qE-18" value="Security" style="text;align=center;fontStyle=1;verticalAlign=middle;spacingLeft=3;spacingRight=3;strokeColor=none;rotatable=0;points=[[0,0.5],[1,0.5]];portConstraint=eastwest;html=1;" vertex="1" parent="1">
          <mxGeometry x="-1325.5" y="1420" width="80" height="4" as="geometry" />
        </mxCell>
        <mxCell id="YG7zo1-SDTAd8ydAH6qE-41" value="" style="shape=image;verticalLabelPosition=bottom;labelBackgroundColor=default;verticalAlign=top;aspect=fixed;imageAspect=0;image=data:image/png,iVBORw0KGgoAAAANSUhEUgAAALQAAAClCAYAAAD1R9cMAAAgAElEQVR4XuxdB2AVRde9QCD03jsoXSxIFwEVGxZUVBQFFKUoiHSwY6EoCgoIiCDF3ntXVAQrKEjvvXdCSEIC7z/nzszuvpcAIeQB+v3rx0fI27c75c6dc88tk6VNswahzv0elNDhwxIKhSQlOVmKlSgpq1YskcJFSkj2HDlk25YNEhubS6qddY5sXLdGtm/YIHkKFpR8BQpI3J69UrxMGZk/53cpXa685MmbX3LkzClrVyyVHPhOgwuby/q1q2ULvlOpShVZ9M/fUrxkWSlVppysXLZY9u/bI0WKlZCYmKyScOCAFChUVJbMmyuVa9SQLNmySfZsWXDfUilf8Qw5s+ZZsmzhfG1j0RIlZOHsP6X6eXXQxlhZs2yJHDgQL+UqVpY4PDNX3rxy8ECCbN+6RUqVrSDJyQfRh5ySEB8nRUuVlk1r10hszlySK08eid+/T7LF5JCcuXNL9uw5ZO3ypVKwcGE5t0FjWY3n7tqxXcpVOkMWzZ0jFc+sJvkLFpJVSxdJfPx+PLs8np0khw+F8Lwcsnr5MqlcFW3PkkXHczWeVa1WbSmL7y/8e455Z65csmLJQqldt4G2i+/g+JcuV0H27NohBYoUk13btkhiQoKUKF1OYjAHCfv3yvo1a6XxRZdgrLLLonlzpATGcPeOHdr+muedL1s3bZLNmJ98+fJL/iJFZff27VKiZClZs3KZ5M6XT3LmzCNZYrJJSlISfs6p47Zp/VqMZUm0N4S5iJO8+QpgLLKhXcmyfvUKqX1+A/2c81uwUBGMfYps2bgev68v+/He1UuXSGzunFKseCkdp2IlSqGdK/XZBYoWkdiYWNm7d5ds27RZml52pRxMSpTF8+dK2QqVJDE+HnOeICH8lz17dklKTJJCxYrJ1o3rJCZbjOTDOFMmePF5sbE5ZDPezatR8xb68/pVKzEn1WXn9i1y6NAhyfJot06hx8dM0Jv+//r/Efi3j0CWdpc2DU36/DusUHZF/89c0C72l/b3IcmSFVoHmkRCuI+38g9u49/URljk+h3+Gvoef2eRrNRU+jj8mz8f5t/mPn2WebF/6TP5DXOPvgtPw5PMP/GZeWUIvxU8P6s2IsR/eI+yjQr2w/7K3eKe4l4c6IrXVnQYP/PB9rJ90Lbb35s2macG+6d9ZkvtOJpucUz1Tv19lqxoO/tj/3hzwDHkVznMZrDMc9x39FlmTOxbvB0hfDD9KfLn040txhPPYNu1DzpWdsj9DuMz3If/Dof1l3PIsWGb7Lh7Q27bqsLA95ux0flHf804mMkyd9j22PvMPPjfDf/Z3U+5yor5pyzaNtsOZHmwyx2hweMnS8qhFMmqLwwImJvl4CjZ35mJDHTGNj+8h4EBDUp/2Cik8XDvXjv5rtPeSwPfSet3wY+DQ+YJnxvEyOk3ExBy0pTGwGqLXN/t192gG/k1i5QDboTxRK6QHMKi18foWoAA6yONsgiTpYg2pWpkWDP81W0EjCtHf/Du0n967/WWTeAp5hmmHU4AffFMNd1HGwb3MqMRvRnLggaYubBfDspjWgLIbvTreFto2MvTrDjajrGZ7suRc2Lf6SmboMyFNciuTNvE1EvZPci7wXbErXD3Ym/pe9oufG7sEj3CgAW+bZVU8DfBL5nfc3K8bjjtEhAgT9NZrWrE67BkyxITvsFBEOOT98mehB2yJ3GH7ErcJnFJu+RgcrwkJidI8uGDOk/Zs+aQHMCZubLnkXw5Ckuh3CWlYGwRKZi7qOTJXkCVjHfhnYeomXWaOD6cJ4PVzc9BeQuMy1G6rLKCDrvd1T1Bv3Kk74WJtVlcZhzS2CTT8QzzRQpuuNBRmCnUno5NPZmRb5Us3dtcHxr15vtmnqxweqvTtTI47/ZDGhHeunRfDmtQYNUGl3twBwjfL+xw2IkIgx12iaahjf0JNY339UXg38E2e208wgqwY+BphbDbzICzNaHQIehLaGErcIcOp8jO+C2ycvd8WblrgWyP2yBb41fKgeQ4OXgoCQKcKCkQ4mwqjdm8sdbNFzDsEJ7HRZEjJq8aRLli8kmZPFWkRIHyUrFgDalc6Cwplqc0BDybER6MD2EA+6//BaTZCLg/nGEbXsRcGoVPTagP9T5NraHtI63M+Urz6Br66Buo2wIilZeVnXRo6FQz3qtdm9CIaW/JYd3a3IMjVvtR5v6/+VHaaoVwgsLihIqSvWHvCpm3ZZYs2vG7bNy7RPYf3K2CmyNrLAQzVoXUQAXCOWpbQhKrWDydZn+vMgVkCOHmf8mHkwAFkyUma4xq67IFakitYg2lVon6+LmqZLPCfegwFpfD2nZCwhc6UVDkVvvfmznF6d3atAqNfvNDA9o50mpn/O8KtKfdwuab2jDkCVBC8n6Zu/ln+X3dN7Jqz98Q4l0SA8GNjckNwYlR/KzCD6EMhYiljfHia7UgJjXCTA2Z1VOQXACcD37XPCsllCLJKQcUcuTMnlcq5z9b6pVrIeeVaS75Ygtraw9jl+DCMe83O104CjGG+X/10i53ueGq0Lj3PjUC7TobMRD/1QFI1S8VOp+NoTRQmJxG3pe4S35Z95n8tv5zaONlilljARGyAkKoQOkYGtZCd3x+/zCVA59qsLCBB+bN/gavqtlAGQh/ViwCw+EYWJnFLooswveQcUiRxEPxuquWzHuG1C9zqVxQ8XopmqeEfocaO8gwmbYEXhoOVf8z06tz98zAPqF+Q5/9n4UcHp3o2QFW2KxQ0ig7cDBOZq39TH5c/bZsjlsuObLlBtbNA8EzYueEL6j9VCjVYEtRrMuFkSwpEE7iZRo7JJ0IX4jEDbuUFTCFYs/nZKWRqcvL0KSHIegUbIUseg9xeBbg8wRJSomXIrnLSVMIdbOKrSV/rsK6uMhlUsOHXbpA+Mg0Tbl/tXDrFA64u31oyEuT/e3pf1A768pWdWxFCILg8Ons9d/K58smyro9iyHEEORsuTxhMarWCRifkE1hRvKhgxC0RP0se7acEpstD4w8w2LkwZ/sWbPj+TlUYA8Bb6dA0yak7AMTshXCGQfcnCSJhw8oXMieNRf+EItnVVxtoKGvwflOLgAanfxuiTxnyJVVO0qTitfq7x2+dryx9tMZgKq0/zsQRMfmgc7koV/xnBzUGGHw41+9Zo/deGc7OM6G2pTCvHP/Znlv4YsyZ9Pnqi2JW7nFO21saKFsxnGEHw8ejocgJ0Dg80FblpEKBWtJuQJVpFTeilI8bznJG1sAhiLczTAUs8JBFbzobEo5nCyJKfuBx/eD6tsmG/YtlQ17VsqaPQtk24H1WCBxKtzcHRyuPoQF4/SvYTuyqcY+eOiAnF2ihdx4VncpU6Ay2g0IoovPOGLM5aBP2gbwsUfu9Lwjy0vPDgl17vOAxkdki+E2979hEbOfQXqLXkv1imHi52yYLu/MHyk7EtZL3hwF9T5qR27yh/A9iLHVfinQivuxAGKkTP6aUrtEI6lS9HypXLgmeOW8ac64e6cnRh5zlbamTDx4QNaCPVm6fY4s2v6brN+zSLV3TtB6MVmyK54OXs6QPAC2JTeMxda1egKKXKtybDhs618MvC7opDk9xTR9rVLl1Kt9m9DwV17zJtN99b9qDRto7Iw2o11Jk1ErUwN/vHCcfLFyEoQFDg/ABcNU+ANKA5CMQyKYjjwQ9tolmkmj8ldKtSLnSXY4SNxFrejc65QdpdGMXkxjdswnRti5C5gmGiwNQ9B+hfBh+a5/5M/1X2Pn+A6Omm3KVxO+pISgkOyN/D53FcKZBODrZhXbyI2175PcWGQGghiPo/FOByHIvxt+qEB3va5l6MX3P9Vt8LDGWTjK6N/duWOtaacpHcSIT9on0/4aLH9u+gxauajaFCbWxAo/GQYYZnSU5AYn3KDs1RCUVlK2YBV9lZpv1PJmj/OYDCeNQV7Y/eyUhovxMF5eQ7d5Uk0RdwZqwJ2+ee9ambn2E/kDjMuepC2ARPlUiIMaWw1HPGsvvJQ1ijaRTnWfkMJgQijUxOQmBMW+y8r1scbtdP9co+0GjX7Jai32ih387/KVPqVmDCZq5t0HtsmEPx+RpTtnwXArZgNxbFASKTMsduJSSlm9Ui3l8qq3e4JM7e60qeF9rfvcqVWLLYJsSqRAmxUBUbbUmnM5h6Nb0oFW4APOna1x6+WbFW/I7+s/UUcMoUhQqCm02QBN4g/ulNL5a0jXek/j7wroO2J3LN1ojMR/P9TUMX6wy51qFKrh4CLa7BZ5uq/G9LbPCYaLeVCxsPzy9v0bZewffWU9cCrxMoOBDHNhIsMopAeSd0vZfLXkupr3yLmlL9TXauwtBVD/p6DC8mHm317AUkBYjmRshwm7VS1Wd4Zz1YEO8/nsA/E7r0Xb/pCPF42XFbtmw6tYyOwwXGx8HoUa/yUgtqQQ6L3u9YdLuUJVw4XazrlhfIJv//fs1GqnP0iWA7QdJ8hY3267/Pd05NiCzcm3Dg7FzD6T8cLvPWXLvmUQgoJyENg4q/FkKM8bghZLALtwUYW20qpWV2UquPA54+SOA9Daa0I4tKDiNRJ9NMhhvuzjaLtJGrFyiIBxDWHY3wiegSN0/sSAJUmUL5a+Ao09RbUv6T7dQfh03EfhJ5NSIGcp6dHgOSnrCbXhvI0YW6xvNuoAdDr2KJ/qO3Qx3tDovNA7P/8h2RAQY+I5DLXznzEK1QPnhJleNh9mjPq1p2zctwSMhBNU4+XjxCcBYmTPmltuqnW/NK18vc7VIQ2xtUaaFXzdqikEkZFh0Zpd61G0it/MkzprfO78700z5O1/npHdicDW8GSmaCCVWTRZAT8SwVdTqO9vOFLKFDzT0nqGufl3a2jM9EA6ViZM0e3LeZX+7cIc7v2zU08Nh4llH+OT9sqo3/vKyp1zJD9ghvHgGQmkZiYVVyhnCelw/pNSo1gdXejmMxvVpsqUgNZZUu7ncNQbLZkOPlfd7RYEs9/8j3bBxr0rYRc8DM8mF2xBH1ejzVyUCclInctbWe5vPAZRfCV99sM+3O0S/ypZoHLpcWvr0MjX3vEmzA3Wv6ojEZLjYWaz1xrdpJqUJNxheemPh+SvTV8iqKeIQi0KJ0WWAUYJYDGK5akg99Qbhi25ioczgzDAwGU/+Pxka2hnuBuda3gU/u1owhCNXey4O+K3ysQ/H5QVu/9SSKXGoi5CQBQaisl7pFKh86RHoxGwHwpEONR8qHQyFmZmvEMV2f233RQa+erbXiyHSbmxo5QZbzkVzwgSx3g/2EiSaqq53vnneflqxctgM4rrBDtsTcorEVqrGLRWN+DLUmACTBaPH7t8OjIBTojNwvXFmxRsNiQZ70vcLeN+7w/++g8INWM8fEdMVrjgyWWTuenSYKgH2M1O9O8TAuNYaXtT6LnX3vZXp7UF03YAnArpPP53utBJXzubiLkZqz6WafMGaWyxodusPQ93P2FGkVxlpDtwZWm4iz1ay1JpzkI63Uxlt3b9HcQYi2oqqr0QI3sTdsm4PwZYBgRMjkIs8tBY5ILPk3bItdW7yQ0wfDVSzyk1C7OOfwZOzTcU/9/avFHo1e9m+EHrHoY67abObBsGO6gwuqCiSOvf6RYzqUYzr9g5X56f1VWfQW1M8KH3ATMfRDBRfgh5t0bPS4VC1Tw8qbLsqAwfVJ6a2Yp4q2MggrEoTqlqk227HT25+8B2oRG8KW6p5aqTcROYHMIPjAkdRnefP0QawuvpeRN1tKydcPLNg+MeZx2LPh1uDQ2f/HoYfjIDc3oJdNAOM1u/6a8XKcefPWHXf2hWMOmruKTdMmLmPbJl/yrEL+dRjyhxJJ9xGPHKZCjua/C8VC9+vtHM6hV0UmHdxFZGTvmoqP1ptbCOQ8Do1R99De0giNPUW/atk+d/6Q6NvE3d+o7S4zMYHEVWp/+FExDQdIZJ74oUZu99xy1rJ+ULOv3PPNA31HfwM0rdKF70qJtTPnXhg2A9aYwndoraaGKfn1VNbb2cwTjgl35/SGZv/Fxy5yiiGDIrY5FV8SDWGWGbHc97ShpXvEqFmb8zpRcM1Wcl+6RMSHpeogtYdycLeRVzqJVqiBfv9/ZpVt6dUC/f8Y+M/rWHGQfrKeTS5651IGWvVC3SQHo2fh67WnZ9mIv78OB5ehp5iu4xGLrdzTan0OeevZV5ihqW1mv9iTR7KdvoakXws8iyAdxi9x7cIfM2/iyfLX9Z45Gd54zf5wTGwR18TdWucv1Z93pcrHl4IP7sdJNpq6GDkELjo1VrW5tAvYRO4NkfI+lOqGeu/kSmzR2kIbEGuhlakizPXsSFXF+zn1xTo2P4mLj1cZrt3EFZURlpd3mz0JQvvvc4aCMcHJjTQEMHtLKDsuyA08SGczWu35SUgxpmuWzHXFm+42/ZFL9a9hzYrJFxuRHf4DCzE+b9ybukTolLpWvDYYZf1qQ+U/jFElankYY2q8r0259Cp3gUagUWXtCO9Uk9S+1ZQ/GteSPk25XTQNcVCo/9UJsjuwy8cAqYnoq6CIK73elM56qGfqhrx9CTYyeGsRynB8Nh0bEKtZ1ERRS+84C/3YZyAXM2TZe/Nv+IDOzFGgifVbIj4xp/EBBvXM5kn80OROs++XCCFASjMaDJePxd3DiVvCIuDpeePtuT49CdUDsjmBGC8QhjLZG3jLEf2At1CRoNrSLsGbbmW/w9IxzoJh/5Sw9Zu3uu5kW63YtJvvGIpW5U7jq5q+5jRi74n671YBTh6TM+fkvQVi9jxWJPR0Kfav2s0+NpaKOVHWPBDmzau0q+X/mOzNnyvcQlbobw5tT0KMNg8Num5IBeLj7DOoAPIkD+voZjUA6gQcCi9/TyabE5hYuLc0g76GCYmw/mj9Ud6OazgYk1xsTkJnqoQG8P7m12OGxg1obdy+XZX7po0Rs1hPUyIbC0J/o2mSQVi9Sw5dsM23F6KLu0F5PKTPvLmoUmfzXdx19uSZ9qrKSa2E2A+YnpYXsTdso3y9+Qn9a9j+TVHYATqJaJAHeFFAE8aATZlc6iVqIOzoa8vY1yfY1ecl2tLmnEMESEfp4mSshoSQcZDKe+ed9aeeLHtlI2fzUZ0HQCQkQpkEZLe3HWxrT1euGTQL5y+HTxRPloySjJS6eLjTSkw4X1RZpWuFE61HlY2SJjH5v6gqfrpct+YKf2oaETpvqBN2ytGkUn9/JQoqts5FnnftDNH+u/kY8WjQX9tlJDJDmxpnqQ0cYhDrhOvuZO6+Ang45ivQoKfBJS/5uUxSTVfcRgbzWcrCHFbfpkBRile2gZLOXfbGJU0Cfw5i/82gu2wu+I08gvvQCdKhSoZqCTzfI2QUuG4vOVtNGyfKijOBNRmuyZnzvJVlCajM5zUJz5NjFQFA9cOFVK5Curmv5IUuGYptMBX2fpe0fb0DNIweLqNMUaHfVzkkVaNbJPlXEiXWRcPMoIvDt/lMxc954mmeYANjYMh18ZVGO50X4KLzOuyasyK4NRZUw9KpGnosYyNyrXUoWYVDSxpE7gaaZ2PLhlx8PYfHaXQp+mzH5SZqx7FzXwissusBK3n/2QXHLGLR53HFYPL2zxGOF2a8RBuOkr3pE3/xkKWrOA5k5mAadJZbEfLFCbswbIpVXa6rMV0ARr7bkd9CjCnu61mwk36rjdd8v1oedff08fZ+b11ISPGhvG6QduicZtux5RY1P/elxWIcBGU6M8bGxqVLDNWUMolg1DjxnPpKLK568FPvVcqVykNrKuK0mhXMWQ78eyAfYV1kD0uK1MGMxMfUQEu+M0Lxfe2/NGyjcrp2oyAi9GzdUqfhGi5kbQytCdycxlaoXkNLwbBxeVeACB/8NmdJIdB9ZJ9izU0sTRiDo8tF/OKFxX+l04XtUc58SULw5/9umioVV6et0OHjoQnOQm5mRprfDUJHruOHRGmJdu/1smzn4QOXFboD2YTULHh69hNGEVtd8SwWyUQAWh80tfJnVQGqtCwWp24H0xM+yIqzPtnDFU0adX7LeLQzEGMcfDjAXd0e/+84J8u4pUGyPnTIYRDTpSbw80naz5gs7Dd7T58zlqH0u/v2CsfLFsPJ5li9RY4zAFmrkjwmjrlrnYKgTCFeZa2iC2sJV86lmQLN2hoUe9weqjrljjkVd4Zmohp4uNtvCBotsGF2z5TV6e/QC0bjzYC7qrgZOzGuPEYGQBZbVbCucqJ5dUagNP3zWSPydSj/R5LHhonqlUXZhG8UAVUbPbljKza0d8Vlictmmdct1BnOxCRoxGNLHNcUl75LW/hsrszQh5hfFGfBusoJQIDXtPg5Fybqmmxt1vU+n8eG3XJH+cPQLI4u4VOxcg1qUzoAZ3Mhv/TYcNFk4K3litcD1pVrm1nF2yibbJBDGZsQ1PDDD9OhWXgtaura8JjX33Y8tDG2HRD6KOKzmRliozilIFkdht2fa58iJSo4iFgzEH5JKZ8JmM3/PeRuWukZbV7kTIZxkdP2pwM5xw4RsfiS0EczL6k5EpTG1qUehVKyOemdeKHfPk9X+Go3LTP0gBg+uefbQ0JMeD3r39YHuurHIPShV0M/QdZ9GWKvCsvDSaZxSJUS20OYb+dBcSApZqtSdXjdZVaUpANCKvGkUbydXVO0q1YnXtmKeGIacqZEB7cmPT+qG3ps/you08p2+UF5mHli1u1nrLEGbyyyN/6aZuaVYJ0iwTO+zkmIkZC+cqLTfX7qvwwgmyF1CkN1tUZ9Vd9BfnsYU5uAv5dzv0aYw+3uNc+PEH98n3K96Sr1e+ClgF24DZ3Mo1GwqPxoO5n9kn+6VK4TrS58JxvlePhIaXUXOE9llj0ymSb5e/KW/OHyz5YWySHfKqMqnTyQgES5bRcdWsQmu5usbd2BVJ9wEK2rgQc1uUheeI3cHYPHZfl9CjL4xV8twlyZrxik6jUm+7vgWfmBQnz/1yPwzBBWrcsQg4t09NAtXYi91SvWg9uaPOIKQPlTFOEQ4e6ApHvhmF43sZdeKjOMSp+hNYRJHvTbvvpBwRyOnVek6RPzd8K18sn4o0qgVgaEBPKivjwwUa7hrLfNgUhGSRmXwIf+174UTsVqUNY+X121J1R9TQ/MA8m3Tg8/AeLtkxSwogAYL42RjerggOfQFMHsaJWSghXK5ATbntnP5Stdj5gXJjJweypiXTOr6dWU733U/0cxcbEE2B1hc5oVPIYfAuJ3Tq7CGgo97A1loMWyDDOHlR9wJHIvaibqkrkef3IAzEfBEp+G7xKcA2GtoJ9RFWc7p/bbWYeazFRvbLQU3pcKTHiUW8wPn6gtheF6tt+oGD8TJv688yY/X7snznbFtvmi7pQD29wDODxjG1I3H0/ReMlZrFGhiKzRWlOepq9vE728f27DqwFazSEFmw/Qfw0DhKDfYLeX71uaiSc5AmB5Ii9gHaxUjb2gPkwkrXGSqVMI+HS6l54gdJpXu8T+BG7SrPWHlm0mu2jIF1SETJWPK23cBsuO3uzw3fy8uoj5ETwsopVPxLcVaMuFvOK9VCutYfghiNHIFsErM4ornNeVqVg2XpAZ9itLtLmFVnrP/0tCkp+YCs27tc5m/9TeZtni4b4harIOeMyW8cRRwJGl6B5/O5GqlsqT1KGsuW7UveIW3PfhB8dBsD09IDAexidQrM+SJoi/y69kuZte4T0KVzdZCZPa7tCbSFcIdhqAcAea6vcT8gyJ2WfaFCcUXXdcM8OcY3NXSna68Ijf/wc6efPY0RDcgRHAx1FFgLm3lvz/7cRbYnbAJupgcPQ0ckgfQg5vlVLHye9EQ2CTWzqaTpozvrEIsqagt3PVtDCi82nGzalxq5KgCoCw08moCqovvAVrC0wM74jSi6uEzW7F0Er+caOYj6c7ExprKooe0MnqYwswa1QgyPedCpMhrQbXaBgKK76w2KyLg5MuRwBiF74DyHeuyeQjhAGUCQuThuY/rKt2XZzt/Vk0iDMRiG67yy+w5uV6FuVbOzX8LXLO2g1jkB/Zu+r2a548qLQy9/8rUmVDqwGYQe6XtM+u5yxL5Z5D4t9e780fLV8knKpxIPslg4ZYUca/7sxWDsjFfMHDQ+gpRXZi0+2yw7B0HMqjNuM2BwZooHE+JkByovbTmwUUNVKbD7USKBjooDcEokp5hi5Mmhg4pPk1KSQDXuBJxKBFsD4UDMRExMTs3rM0UhzTs9QdVRckXO+RnjNYLeUXpT6dXDKbwpe2AY1kdAEQ1DSrzRisfaKdIyVo2B6mBLVoV/s9Z+Dp56kuxEX/Ogjh55cC3YrqJvdvb93CVqPywtqtySqiyCkxB/EWa+jabyxbocrJzkth03otGI5nBOA/qd1ckBqd0St1qGzmAwOTOsXdijEk9atahb/efhsm4ahpk9vKqDmdkmn6pWb4tUTWnpRI7NQQjpwm1/ytyNP8qKPXORVb0LmR5xOBo5Qbd5kzGdXXWqKa1GIeSugt/BTiCkcCLrYEWYOiD+52ErGlhlF5XCjyNfxsGSAPanPEJiJ0j+3Ixxdu8/vvEJ7kZ86WG03WS+Z5Fd8ZuFcdRztnytlVeVD7fQ0NB7CEuF36Bb/RF2zgylF1xUx9ea9ClKd5e2fcSjA0O9Hh+K7YUeKVs9x8Olx/fAY98dMEKskLCswNcrXoF2NulRZmFlgybbJc0rtpV25w30uFVH5HvsbSYv8rQ0tBPmg9Cus9Z9KjPWfAT2YRF2koOSKxvOV4GWJZZ0Fad8iGmEMGi8Uct7BdM9zWt2K97pijEZnOxV1zOx3LZxWaDNC+UqhdrVa9VcVrOaqAKfU8AeajoVxRjP0Pe4U3bTS6MZYfbb4dZ1kBsns/QhSg5/gzmLBZXoWsq+Mc6DPoJcOfJjYU1CUFM5j88+KRqao9ixZYvQy59+7W1T/m6VydKi02ZWtDO0eCgltbM7Rcq5pmmU5I4tKAObvgKtwwB8G5yvVJQddCssx15E6bjDSl4YxrcglUKxAEbbhwvHoh+Ot6UAACAASURBVJr+XMWRPF/FF1R7uI9iXhsJwz4S/5p9yIqu2Z79Kw1d5SRaZZxSSgxuKDp+NwmnYJUrcJbkQcjsElRK5albrs1cVPHICezf5BWpWvRcLQ3meQyPw8LQ8dX2+8jLtNqUUXNF4b9Y+qp8uHgkUtvIxJhlyv6ygA2LrZ9Vqjk09XAvbzESxmYWTIyc3Sxdr28ZGv3OR55nytwQJZ+8yjNpOlM187vlb4HIH2aqfqp+gcUuOcA3b5frqveQa2FguKqoZt+yIYyZv9b8haIQwywgTi7jhb9Y9rKOSk7NSzSbvzsOwhNbbZ4RYWfMGRE2Bczdff4EOGwcEHGraR07aBaFUwDZgM33yuVndARP/IfW5MsOI1KDtbiQQvgcAn1v/ZHqcHJ1R4K+hXQsbd9ODCAvszmYsdejjuz8fbJoknyydIytc8K7zAFHLlKv/XlPSDPSea7WhxqzhlJN766Rrjbbm3TeHrnn7tATY1/22QM7qJ7lczxPPMa9QQ1IoX5h5v3QNL+oE8UTFMAOGocDm01BfblinqBRyUQH1+tmrwPsvHV8FyeN8RM/rQUvDidDiLGmh1wBdKM1zXFrR0O3GRw8p6kVoph3JAG78+DNphVvQKjnEA2hNRqc7yfkCWltjQ7nDJILK7fymAYFLpmgANzuamTbQCcqpSlzBmtYL4vA88QvLmoqg+RQklanerDZKwjhLeLvsm60M6FNkaOrAt33TsRDg4cORhUcyzLO4DTp6tcQRBgZ63YtleEIhvEwGI0PWP5xSdvBpbaX287t62tntY+ORj9luEWq9c3h7fibQdLcBbB9vzX3WUS2TUb9O5YMsx4zCIc7Xs1o3igJtBMaq1y0tgjiNTqd/4yetfLzurehFYvi/djVdPGB4MSkHTi4F/HLD0iLqjcbewRaO/KAogyPlGpsf/E6xioBCQLMTaR3lylwJj7HeXa3y7XV7tPsIOPV9R1J0YAc2qYOlzcPvfLFdwZDGzWogheVF3Jd6xkf2YRxA+8uGObVyuBAu3DIXvB4VUE8s1rY1vAx8pz5y1qhso14cwbgj6s+kml/P6ontBptxMsdN2HYB3/rzLCIhH+RONTyzkGdH4Ox2g1hboD6c61qdpVhP98FfJyEcWHdDDbeYHdSf8xkb12jr7Ss3s6yQi5z58THLajwLALRRUMtvRwBVC8g/oYeXUZEGvMDdB8MZ8awGy3NBehnvURFvgzkuAuQYyLKAKBx5KKjKdAqHCYAZ9xvA2TO5q80lcqVhOXRvyVRtefBZlPhds2uA2NrsIdRaZkkQvoYB3VcEP22/etgqN6pZwWahFsjyI5JMBnoztAzRuAJX3joYQgmi627v3VLVzoO54YDkg266C0NVvpk2VgpoLuGX3TR1KjLoQJ9ffVe8NjdEV7OKzMwhx2rYFyHGT8TIfk6drTpGqvts1XGy7tdbqn9ELJebo1Km8LGngLNw+ufnfKG/l5XTRQF2gTNoD4zIsmegWdwW/xKPXvPUExM+dmF2OZ20va8fmHBLp5+yaSJCQ5CUKA5MdPmDLO42Z8YR6B5nEVUcLP1jlpjzGDfEDyM+6R7ozFIWqguj35/I7QzI9vo+jbzFWQ59h/cA8jRXy6rypQpJg1jk7dlDU540UU8wFF8Jqczi2yP3yRPQxGQieFLXW5nAnjpSoXOlX5NxlolZU7PjcalO8D9bW/U+tBuO3CDFI0twdE+mxEiOuSnDmZCODmAqBQmshud6w6XBuWu8Cgi5VKjYxR7GlonB1vBVtR+GzrjDm8xGR7WUGcu3SvM4ZFZs6LZ6uYERG5L1NJ0wDCEtnWN3nIVNO7EPwfJr+s/8rJV3KsNZ00XORRFym65rfYjcvGZEHyFdlQFmWMUptVVXUwWW1NIX587HFr6da94jWFr6GlM0kjAMwrXshk1xnDM9IuLvAcE+oXX3/UJ8ChhVTbeVbVcun22jPj1XjUi1NhTFtNY68TPPLjSpBIFalUb6cr8MaAAKQ2VTT5fMkU+WMTi30xxMnHH5rXmvZmGmxVaBM/uDqfwuFWzxG2LyrfL7ecNkHlbZsrY33oh8i23+R7wjwsjcRwwfZP7Ef3Wue6zUr/cJUZD0wyzECnTB07Hxgq0l/Xyj1Z4NVkvvHzj8IaafZAYcKfJdFFa2Ga6WIo0c9qHObvv1hs0BcvLUNBVFR2j0BQIjMERZN/IK3MeROIqjvk16Wka61AQx0A8BPycB4fzsBEUJt2eoqihzdmMZF9CMvqXnjitdSZoREa7mcQCfqiCrD+TZw24pDM8CxQEPsdPanUuZ1YuojA3r3CztKvzAGJD9smzEJLt8Ws0eImQwzlogpCDzAx56n7WsWJSsUytjmhowyAF6yaIi2j4jC6yGtk1bKsRaHp94+SsYo0R3jrKG7FotSnLnS0vDk367Dv7IhUhO3kZnq0jftFVOP2eafPzkTaPMEnVfHgjcwfL5K9qDEI9wMgIWjQ6HmygHomsBWx2yJM/3K6nRBEDZsP7D0G9mQiFTN4ZUmloa2YCauxHgFPzSm2VtiSDMG3OEGD6d+w2nmzgD2I9nFArC6Mr0q9JV7JABWOseZxvJrdfdyvrfFJHlNXG2OU+XPSSfLZknLZXczvRJ55oWyi2JAriTJQCuYoGlKexATJzjhFtd1Fo4qff+kA9ipDjMI+OA5PyxdKp8v7CkfYcbaYVIY0I22W1wo2kT5MxKj+ODcn8ZRX+RJc9vXr3Ihk5q4sVXh8CZOZge2/2qEDzG+ZAcvdiYM/VVTvDQ9pFjecZqz6U1+Y96e0YfqyHL6DG0GbJgXhUUaqh9Z1jEcGnGtRu69Eaw6BQO2U1b/PPMhb5oIzn0Drc1vnP9g1oMkUqFTE42iUgZKZA67MeAm2nxRr1SDc3UNFxfbtOf7ZksnyEOIDcyGDm1k56ihFrZ6G+xH2Nn1Wd7bRiVAQqMMPuNNm5m36W8X/2UQ+cH0DkYHsGNJzVwjTWjNSap6r172Ad/808SRwhlwtB+q3P6u0dIbd4+58yBriZl/K7xMQRNgT/eQjPM4mye6RBmWukc4MnVQNSKZizFDNXA7qhCwqz7rJoB+Hhlr3rAJE6qxs+m0YWmgWbCIV1d91ngO9baJwJWZrMZju0Tfci63tMIOv7ZECOzxZPlg+XjNRDbFx2BfHfOSUuUYEO4rNoC7QJW42RORumy4TZ/TXgx3gPKQgaSeEtruPRdC5W2PztLmdcmuRWPjkeVGV5BBzdds4AObPoOXrjxj0r5XkUJSeNmR1VVA2bYBeVjRwKGoXK9yZvR+H2odK4wtXGoMYNBnJER6DDx8KMF0WX5zsO/fEOULJrbTKAKc8cD48iEwCuqt4+ENuRyZCDm1K/O5CCNdmkYOkgeDZYBrTSMWbcaeivlkyT9xdBQ6P0lNnyATkO7dPq8X2bvKjtcNvS8QhRRu51ibgLt/6O06J6qXBHBhx5ccnH8wKl4lysnVkWLuGUwpyIwH/+9oLyrVFgnKfUmkpIPDZizO99YASu1rQn79gIu7RMIJLvZyKmpqHIjJcHLpwsxSNDNgk7jqfdGbhX15tqaCOgw37qiFrdcIXjiAsT907DcK+0qHS73HpuH8XWFP7MVlaqhG6/rKkWPNdsXrttZCauCY7PYR6TBoNv+sr35Y1/ntLKoYb/RuA8AtSLo2zXI81fVQLeKcbM7nTkfLlKQzyo8pmZHcGZ0vNFxwX1qj3P+wgi4cbJhE5G6CxjKdnLOEm4cJnWxJNcyxesLa1qdNFAeDIs1GKb966RF//oL1vjV2mRdioAQ6qYQpL6DouNjUxQWLLD+bJb6pZuCbgx2BtPJzDRmssjaWi+9/mZ9yHo7DddZGSIjIbeLReUu17urDvIUrKZL9BsU5bOra4Ijfvgc8/r5ILoo7Gs3fbOhNiJswdooW0TiIkJw0TnzVlcA9Tz5aS2Mtazib+16ikKqsaxHIxUG/zDHSi3uwn13Uz1IOvq8LhoTzgcPlbr1cIIRcjmcs113j6Na4ArnUZfERwef3HFNtLsjBtROTS3FnjhAl65awFOfn1Q9iCv0mlm/zlHVpucrwR453qg3nXtkg1t7Q5+02hm5a2iwN9HtsjEvJhYjVGzeoP+/FliNYrSxO4Q4zcue63cVf+JMJYjg4guzQFReXm8xz2hR55/UbcBL/k0SkyH296X75wnI2Z10i3JxC74cVy9LhgvlQvREvaDyTOGYo8sBMFPdCIsdTRp9uPgyD/SOnqm9JjRjpEhooqLvdhn87Rg8L7LsSNzwQKSzMkridp7DcteIU0qtpJCuU3SgouDYJng1+YNwb0HlL81PgFfwwfl0USWmCB8w/HuBcfbXG0PFdw0HFDR3uXYf+cCp0AP/6krTq+do44gs6DgxcSptU0rtJH2dQZGDXLouDw9sFeo/9ARfhmDKGIug6GZR7hWhvzYwRqEJhpZC8nAoXBX3WHSuHxLM6k2+1gnxG616RPT9N+lnjbrKZwLyulF4Og8SK1iwoHRsDZ6TB0shvM1QUSBOnvemLHoSxLGEkmx4F4ZI1y2QHVpULYlih1e5OFkOpGyoxwD07q+WDpZvkSCcHZ415jO5R0NoaGWztgKBzRGpM2OwHb2ueAluJVrh8e0h+0VUdjaIoZYs8UxDsTzg2EUbtq3VGsSOscOK15dcWZnuaH2PRE8dCryJv2TF9kGaui2FzUOTfvmJ+WHg5Z9NFa10Tw4tRUW79MITmIdNfV+MVOFni5Y9c0r3i631elvOk1tZPFGNDPRzQ5AB0AKYnt7oZ7cr+B+C+hxD06UwmNcfH3MnYQCylDJLPiZsKl0vipSq1hDnHtYTyoiqMjRU8k42MiV9V21a6F8sOAFWbTjN1TPR5FJT3jDZ4nv1ZxCnqcIa1AVNxYUIyNZEoGxHtfW7BRW3sGlDjtDJJqIwzFSjk2JQ0kKGoVsWzYsWhOkZGg7ZoQ3P/MGjLOp7GQUlQ5+plwqv4zleB7ldHk5vGV2rUx6S6CpwW12As4O/GPTFzbTwRhfzKguBsPwoaZTJDYHDQoXP0vB9mNpM6X39iHGdvO3/9U7F8lzv/K4isOqRV1ZLXWBE4ZAvJgIepgnA6BNsTEFpUTuMsj1q46SWHUULpXMV8mjjKn9D8EYdoK8P3EPzoZ5U75f9RYi0+KAM42bPS3D0gizgT2uYhFbS955N3azeqUul871B5szBYNzppBRf2NnNfPn0vE27k0uzYrjN/KXe43Bqjy4YTnoOLu/0YuoZQ2c7yATdutMlGezGzzarXPo8TEvhWXnRkOYnRC6M7R/XPWevDFvMDxKBe02a1YyK47e13g0SlrV8z1K7stRWmRGo7k6IVlRW266TP7rES2SyACqRGBbXjzHhIZsyTzl8aeSVAJvXBFpUSVx0D0NPHdxETgbwNWsi0e9jt83fIdotDexMy3DQs6vThXaFTGY1RR1hBhFogvHhmAaQXWuZuOo2IesnnOKXyyd6j8FGAPq0+58JojAk+bMXPepnuUE0WloUww9m/y67kuZNGegrTNtjp/mRSEeiBrWZfOf6dlrZtfLPMjBh2XpdnOr0Kg3P7Ash7OIM/MtgbEgXqVBBdhBmmzYjLuUS6CnkFgwBhQUQ0ibVbgFNexwWI0pqGa0XZSwvdPQqmm0fabA+JJtfyEmYYLsStgipfKdoVr3jMJnwbgrh8LiZcBE5AybZBZe5+SyDG6wohIP95m98Xv5ZcMXsjVuBQylHIotDRdLj57Rwg7aBJ1K/gsYNZdVqc0UMBpNELjU5pw+aAOO5rAeXrPW/az4qEqzPtzFcPBH2hbGWTR59hMya/2HmjibYr3AdLaU5uFGqBmSMwcz1QMERCY2VHd00nbjP/zC4mczKJ4QZeLLdAiUgTev0CRZVBpdCgwZCyOM8cAubScX+OkHATtYkT7IozpsmJk0noE1plmOh3fdppDuR55eQQTURF6HKMB2Yrnl+yGmh2X7/k2yeMds1KubCTpuji5S9lFz7myFpMgscJfhbR7pIJaJlkvGmYKJOIquVL6qOPn2bmlY4QptcBgTZHnvk6eh7bhpfUYjoAysGjzjDolL2KowiMw5K4fEIU67cZlWhrLjQlbmyO5GVuIyQ9R0Lh/r3iU0aPR4OYQULBqG7ooG7FAB4HbM9CJowZ9WfgC6ahBoMlalZyksgw95WE1LHFncGkcWuxhqbZelEzPTWeAZNdaptGnPalmxaz40cnlg4nP1terg8NCe2dbpiAoKPutaz982Cwv0b1kPCz8eGJd6l84F1vLQ/mmMhVoqadhBPlQgN03OPgXwi4JSCkZm/TJXoMJnK1uP2Wh2dcxbBiga83U0IfNioVURmF2NBR4n/TXQptURblBr4wxxGPt31hkijSpcFRaYlBlCHPYMAot7b7o2NObtj1I9O1oDFOR9eebg00j63Je4QwfEuYqpeWJQFJBamtX5nQA7rJuZ1nHQUJ0NPnjq309oyQDmEN5cq5eeAOW9P1CccU/CdlmJCL1FW35F+du/ZCNwcQI0EVPKyL8SPvGYOXN+ooFwxjQz4MId1ezeTwPT1SDJj7y8/Ej9rwxv4lklL5AaxRtg0ZMC85MkFH9yjWcqCD0OEbO+A1+wueP2xM70GypK2folipHpls8N/DxViuYt5Rn60ZAvnSce6zZ88usWixk1GI2XmUm0kINaz67qDxeMl89wWE0ejZ81iZ9mVe+WemWvkU71nrR40zEvDiDYLcs6RY5jKsJudRg0GZ68IT/eKRv3L9ewVsZFM177keavIYbX1AehQbvrwDZZuJWaeA6Ms936LJ4cFYPj5g4JizKCh4aG1VKGejwEtTtjU7gDGU6bWpV2A0uvxWAh5wZTUih3abj+S8OTWEaK5ykLrVweFZp8nO5OinUZKB5UipJtceTxJHa2u0mAwye8GocYFD1ChLsQNhEaxGYerwYb85RxvmgwSpTiS6g3ure5To1CXws5hRIdqseyZJ5hsCt+G1LzO6onyYQbGoeBS5q9qy4iyMpfZU7AgtGhZws6b5jDvzqpGSOAGLPL2A3WOH7qhw6yJ3ErJgU1qAmMIJCPNn9Da7RRGOkIiQOmZtXQfAgmCsKOSAFQuo5QhXQj2skYEQq6WuKcU1YexR9G06V1qeBzEei2bSLzTN/Ngo6W0jmSIDv5cBCNrdDi7QzgBy353Kxushq1pMMCqtBR1sC+r9FoHEPd0LPTfP9CRtXQEb7H5tx/G3jo15hTaOsuWwUYrQHzrHjLeHAVf7ZosnyMcNJcwNJa7CWLicCjs4KMQJ/GY6VcoaoWT7PUgjFIjFV/YtuuqZBvmJePFr4kHyweoUUYGc97YYW2eoC7hgTgRcH4XWPf2vgNRRSWguKNhpbxuOijTZsJgneuf2NmmgXtFEpQsThjMRrK5tjCFUQ3xsNqsPOXqHP33sLntCIpWSKTkU7umWe/1JXeF4yxqXT+mERFvvjeNs0ahN7AoUGm7KsNd1TDJRqD5gKOrBvZaqsD8Bw+93NX2QRaK4dGaBn+0oVZloBR1LvRKCmYu2h4bQcVBTY14xo6SD9xgn5CkZllOBKiDN55yZk3gy9mLWQ/+SG1Qeo0gG2Mj4iOLSHuDmvYma64GOHA112qSlTmJH3NNP22uyMlxQrzyp3zcS5L9wAbRRYD90LQGfDVtf6z6vb3jPsoQiRdcD3aXB8a+YY7SdYX4qisIDt2we3LBegsgHE1Cqk7sVkDuNFy0yytWwWx0t0aDFdHArc4s90bxsHptYy0OdVWGuG8cRjbl71wrjfs+06YHa8YwJpGQfgaOOx5ATsgvD1uPoyCUYGKkqpheyLHwmwxhEymz9qHAFe/HfWiRyERYTuC+Znp4xWwZLw3YjdqFr1Q7rtghNnhTA+81ZORuTrm0qNA84yVYROn6UjpS04C5HBaSMfH5p0xsP6deaPkq5UTUOSvmObY6cV4WnvudM1iFyKN53FNtDSnyvqYmoFMhopNPeURMho2LpGODCPABgSYguWRO5ULyzTCGRbj4V5tQL5CI9McT9JTzUlaC8rfBbylmma/jjnBGbghjDSx/3BhoUGYsQ8M1Yu/95U1u+fBfY+4dnvknKuzwuCtvk1eRpGZGmFxJrqbRomZ0ceGG4WcBpemHw3I4Y9wUJDczymIUHvh195gEH4Fl8naGDCiHNmloZK74To9S+4+f5CULVjFehJ9o8kv0xqpCY/dF9MGJ3hH1oP6pKOtkAwI0enylUhY4TAGl3CwjO72/Ztl0uyHESL6ly2lS+VjxpiKaS9c8zfX6odDUTv46Va+pozaNqMLj7QdU7Bc+J/dZE7KnAWFyHnpOFjEZDtxkHpOGITqkLDKjnQesz1yQdhvrHU/Youv0UE0xUuMIRI+Wr6mPBJRFMTEvra00+OtAx/7R202TgOpDp8Pu8ngr2CW9vIdc5Wr37J/tRdYZku+g3uP1Vp2zA3t1mi4UY58jNIz+pPduJzhnMmdNkZhw9Dr3//sU1BRhhzhXTCcpqv+6eKS1+xaonHJ8UlIEgUpb+AHmQYaG+B04XZmWvz5Za6Uq6vdBW19ZkCwOXLhUME5ZNIaPt9lbaiw8O3eSLTbIQ33a2FZJs/FyXpcKpxsdWtwfzJ95tzY81WAgcmvf7fibfl8KQp7IqaEQVomu9zSrNDMiaA+i+WpKL0bj5FCeZDEYGOk3c5nNrZj75YZHQvt23233BB6/vV3PONKAXyUQjWDDQ3f4t0nLuItm6zEYepjgdFoEPLwRwo1Vzw1tjl5iUcw7FY3a5Py12kh8JL5y3uvMI4MCmlqgySjA/Zf/55xfBnETKePE+x5W37GKQZTMCez1dnEnVDnz2bVODYqHzycPRuPgoJxFKsde1XQxM4RqyeTB1Tne2i/nqH+w57TBirPqqA9qgvJG6jw/vgsgDu8fc2uxfIysNp2JI0yzNRE37ncPUag8dyPFAj9PjUk65a8WM4re7GcWfhsRHUZV3H4ItIpsr86CZ3M5AmL1uPSYhwYqL9w2x+ozv+J2jQsikCniWaAGutbLx76yVjnvKilfW/DkYgHr5n6SLeTFG+iM/pIt06hJ8ZMwDYOHOrKnEaRKzzypBjNoGwLbmKcMJ0u23AO4JS/nsSgzgRxX1hZD5f+RNGmC5lamOWmEnEMXDYMcPG8lUHonyeVCtaQ8hjgAjkLQbPk1VNo3aE30RKOf9tzKZtMGWOi7V7E1KzHybbLEWC1GOe47AAdx3iU3NmhHFxZBsPcKTzLgqLrDCQjZ9+l3lApA+hn+Obo1dQ72vhqu25u3jD05vez1P1r6slFL5YjXFtGoLYga+/xnaYqaFJygny2eBKOiHhVvXPmTJYU/PFLdmmdIAYDwQnCKLVE4DxClFgc9MPcvkK5SkpuQBcKtcvq9nT0f5S1SGvy/VhkY+gyZpnYd3fiNg1zpWAfRl5kzqz5NQSAF71/wdlyRyJzZzy3xKU4eq8/YlFKBPwDEXtvmG0SxSVPyDEAB28OnTDFi63g66JCeh+rHxa7OUjgc5+mdhtlnOW6Pl48DudjL9Az8phYqvHFWhQUnbFl9g1/bOpqmOwRxFLAjW5SnTg15rCdU9LPY43DSfjcBYmZ/iNICn8TOmTFn2xUChRAjRLUZCmvRYR4DLRKhCBTUVxR5U65omp7dX87Z5fHuJ8SJYHWPswjKV58ORCcZCmW6BmjaU+ZI/GVSfCRrmEejFBSWzOV6cdVH8iPa95D5NtGkPom3tgIqalWpJcXJO8Mk0CHTslgnwRJPdYrIqkMq3eNgW6MPE85KEw2cdsuVDUJsRmci5rFmuqRe6zjbdgQqxzcLntSmTK/09qOu5Gx8pItNOM41lOluTx6jINo2+lTZYwXNud58NoRv0VmrvlY/tz4pWxB2SwWNGQcMmMI1Fi3xp85fo3y7Z/554ZAvVqckP8RATcAzZTidc4sx/F79KkdJ4UVgKDMfGepY0ZCVsbREs0r3Sj1yl2q8M5FQLq58pxOp8jeVlnpedtNoRHI+nYVhBRyGNxxrPWeuZ8fQUObptgJ0JXvMrRNwmgcztqejXO35239SVbv+kfDUDltDLTnJJC5cS5s3zbP3Kb/a57mBsDDBUHFwaGF/aG2CSK7YYcQfuSLLYKTaRtIvTKXyNklm8AGYe0Qdz6iOSEgOK6nFHJwkxlwdztg6KlW+1mHxClaYUcSDMN5WvParji31bmsav57877VOGV1NvjShbJh70Kk+u/UkgNJYD/UKQOtc6p2n9NJ6M300oA2xp4rCJkLdgmzS3iWeEVURD2zyFlSrUgdKZqvjDaf02DyGMlwBBWeEeNTPbZqd913a+vQSGjoSHbjVDcuKAAGdgRwtfXWOeznHCjBNrO658747cja3gR4slFLZiUhQJ9FYUIIbDrpO9DpJNFGPNXYzglKjlkmzI4pkqs0MmUqQaCL4d+0S8zlNLKjPFMr+tNDA6re69X+ltCIqW+G1+Uw+/xpNwXeABuQ7GkET7A5+LZGRWYX0z5tByNKDTPHwrkxNu5+L3jQCbpqeusFtDtnlJqTrseqhu6OeOhRb74fxnKcbpRWZPxBMP7CrD0/BsOz2NXwMdko1kr03OCOEjSjZCbrf+IKs1Oc2Wy0tWGFlNPQv8IghQozS/o6AfZGzuOnT5fxU4Ee/dYHgVpyZpJPYwWdauzC40LCwUm4yeKpFP8ZwdtPl1k56e04MmQ4naDnsYZFFVXrC84PvfXjb3rylOFw7dlJ/yqJpqC6EE+nkAMZHna+XAiCYXHMfT7Bd6zh+vd/rsJpaUodg6AcR8h0+C72b+k7BPrBLnfqoUEGCUGYTZTmKbdYj3cIU8MS0w+9HNFvfw7E1ug2+7+DOCLYoqMMclgNlOOdjFN4v0KOF1xOoU64md5/01ZzCsfv/199Oo2Ashw4vH7EtLfCou2MTP+v6K3TaUb+vy0nOgJZut90TeiFt0wpYoO1MgAAIABJREFUMLVxNQAlE41CZ0Abpk2xrm5ndt8PzxI50e6k9X0vzMn3aFlIdfLacOL9SovpOd3YqOPqpcPsaXgvj+s5gZsVKt9qK/izIrx3RdI2GX0DvpeWU0RF7FQYnYHB82NETqBzJ/GrkfNvDR1jHtjgIPO3bzuEETiBuJX/7N7L/veGY+XZKW/aQaGI29y9TBA4b6ADACaYEp+WPGS+oLvEAfbNvtFpaOugce0wSOs0nW4Nrw0AQcdYuF3VE2q/C2H3B3bKU40mDbmUWkV7FU8yOAWqoV947KFQj0FPeYcGGQiQefPqtvWg9g9Gs5xUyOE0dMRKinTMZP6iOnFVHgk5vEUY4VTyArm8V1rBcZ6+04XV0WaZVea7eEzCdEbtN1Vd3VCscbRXrFFVlP1fBpeJDqTJ5nZODRdIZD7yV0ta2TGZL0wGvDtZZluYbsZOZstmciiNYrZ79SnQ0EfCx65d2mZXAAchnd6UUzjtHye/XoVT7TRiyGNMOK1PvGeifZTOdRrcld2CMzJh4kT4O4YFe/WZMjwHEOh2lzcPTf78O1uI0AzVibAczmvnlSbQGOa0KhCZ0Yh+oXXTJ4flIyFFcAdxSzDzF1U6Z97eFhRwd2iRl++ZxqN4rDWvtMbZZJKYPHkT+2z918fXpBO7WxXK0e2mIAzJqDzrTD/U9a7QU+Mmhp3VYYK9M9AH1b7me74iNr/YtmmT7NuzR+L27ZEChQtL7tx5pFipMkZL6v3RMRQNmWKyKpg3uW/PXvnkzWka13HNLe0kfwGeN24q4rsiXydboHVRBaw5vp+7SPBEhV07dsh+jN8+jF9iYoLkzpNXChUuInnyF9A+uDHcs3uX7MOf1UuXyO8zfpStGzfIwzhYlffqGKtwn9wr0m7iIo3bt1d2bdsm8//6Q3747FO56Kqr5dq2HVTBxXBXycCl73mw8x2hp8ZPChPAjGpof5W57SQk33z4vnz2zusy74/fZP/efZ7gFihcSM6sUUtaXHud3HxXV69UbeYLE9OKbJoQJvPJnt3k3clIOYMMt7m7kzw8Eqfo6iGfZqI1iyUDg3kiX/F2CYslKMyECvFxcfL1R+/JjK+/lGXz/5FN65CFrVu1oT5jc8VKxarV5MzqNaV5y6ukftOLpfvN18miuX/rZ/H74qRc5TNk2rczpEhR1AvkImHGz0nuoOsfdxIK69uTxsvzjz4k2bLH4BCkFNmxZZf0GzZYuvR5AOfJ4Ai87GnXzD7WGOvw3dnyktDLn3xt6/fyN7a/GVHRxHpWI3KFDBvQS9555SVuhtKs5dVy0ZVXS4GChWXZgn/k208+kIV//yX1L2wmrxDyuIM/j5QCYZrm4cdU9l2EhjMrlJrfRN2p1oPgdrj8Ylm9fJGmF1EQpn71gwpzqh3Cbs/BmDTXAq8Sk1kBnnGjA24NHYfaTZvd//sGkGNUgvShw8qkUOf+/qs8M7CvLFu8QBL275eKVapKM4xfzXPPlVy58siObVtk9swZMuObr7Dr7JZqtWrL5M+/l21bNskX77wp706dpMJTpkJFmfDx15IvXz7D/QdsBp+Hd6SDTUnTftjBTiVF/gdpUYTB37mvuvFytOL6Vatk6fx5MmnkcNm8Ya0kJCRK78cHS5tO96qAZ8+whkazH+jUITRkwpQAljUxHRlaxRiwFLsKv/34Q3mgU3vJHptDrsNWMuDpEWFDs3PHdrmr5aVydr368sSLE3yWxa4oTxNZo8fXTBzsNEot2MmK/B4FV49QswYSF9jzgx5Sebt/EAbxri5hON5NSKSAu8kIM5oDlroLjnJbv8cTa1uNhAQDfsyCDHcyccFRmGf//JP0ueNWOXgwSe+6tFVruf+xp6RIseKpxGvW9G/lkXs6YhwbCgvX8/rjpx+l5+036s+VqlSXlz/7WiFesE9OmPVvO3ZukRkD2Qq1bacTCH8RhLNhYbZIhDLUfuN5DH3jbuh8Hn3a3yI/Y0HyfQOefk5uaN9RUpKTJSaDGpr9yNK7wy2h4a+8rp3yC82oaZhq8I71CydMNEL6d7xdfvjiU4nNmVO1YMUq1SA4ydDEMbr15YiNlU7XXiHFS5eWp8ZNwsrEZzYB1uBd5KvZwjfcqoKOH80C16MkvNP9FFYwM5xjybMCeUXiUPecVcuWYFvLIeUqVTZaiwNtt3J9N3C9njWIj1g4JfjusCObnTbm/POwTLQhW0zAQWUHLCWFxVecjGBkvTNGfI3thG3Htq1y19WXyc6tW9D+w1K/WXMZ+do72tdkTLYKm111/A635x5tboDiiJVnp76h7fj1px9kYMfbIBwpcmbNWjLxs28lFp8Ha1276lSRc+qNLW0blXUDcSgfHCmHb824kX1xEAjjbjVrULjd8/UEMPTbneHIe/rd2VZmfPmF7s4Pjhgt195ymyoX95xjyVuqtnMNsradC05yqzKjONZkZeMs76REuRvCunLxQglhMke++Z40bHaxDgyFzJ31PPO7ryVvgYJSt1GTVILDxtKQzF+ooOTMlVsSDsTLvr043yRHrBQuUkT7QgGloefq17kO7ti+TXLkyAFjqaDi0N07d0jp8hXCjpTgd7dDaEqUKq0TpxUyA9fWjRulSPHiqi327d2D9ydIzty5pACeqQtACxWa77gFyJ/jAQ92bt0q8fFxMH6LSGH8yZnbP2XW3G8OFA1u6w43jx/6pLz07FApDMx7MDlJJn7yrVQ7q7bVXAjxDWAtMhjs+3MPD9C+dhnwkAr8n4AivdvfLMmJB6Va7bMh0N9AEJncahY8L36P2nD7ls1CgzMX2likRElAQtM/V3E/UhYSDqAQDfqeO0+eVN7eOMxPDHAx58speAej3EKI27cPY7NfChUqLI926yTTP/1YsuXILg+PGCNX33yrQo4MG4WqodvdEnpuWngKlunw8WtopwHYqK43XCWL5/6l2q5C5arSZ/AzUu3ssyUPrPPIy31v09q1smrZYtmwbo389csvwJGz5KX3v5D1a1YqTIiP26cCXalaDbmrZ185r2Fj1WKJCQdk2aIF+t1l8+bJZ++9JU8gJLY4JuiBzjgIEhjz2clvSvacsbJ+9SpZuWihTP/8U+waVYSLmZqVi2DFwvmyEs/4+5eZMu/PP+X1H2bJT9hlpo5+XpKTkqA5skqTFldI90efVGbBCTUX8S4smmmjRsh03L8Ni4EXd6GSZcvJFTfdLPUvaKaTlQdYlsZwAM56UCApMRG7Vgv0Y5ku1nPqN5Zx731iBNBMipVGA2AOo3IU6VFqNbeouZv8Dfzds21rSQI2rX72OYAc3wCXZvdqNXNBvTdlonz69puyHH1OTjoIAy0bDMeSUuv886VT34GKyR0bsQY72uYNG2TpvLnyw1efSes77pJ29/RQBmXtqpWyAfOz9J9/ZOZ330i3Bx6Wlje31b4qg6XKIqsshCy8MmK4/P3HL5IYHy8Vq1WXA/v2y67tW4T9fmz0OGl5460npqEp0N1vQcYKHCv+EbvBkrKpZO+ov3AamFvG4z3ukY9enyZFSxRXLclOVYJhU77ymbrVVz3rHDm7QUMpVryEtyqfe2iAvDFxrNlRQa3mBxNyTr0GEKrPsN3ivLvcORULJmBAckMwRr7+rpzf8ALQPp8oxGFlMBUU/OGgzwQ+W7dqhWrnu/r0kzfGvSgb14MpOBSSg9hFLm11A7bpN3XxjnhkoEx5YYTkgBbmhBcoWEiq1Kgts7CL0BqnIFJbU/uSlXlk5GhPEGmU9b69DWiyH6RsxQrSE9i8QKGiMurJR2UFFhr7HpsrJwR9m1x81ZXCk3tN4UmjOJyG3wAWo12LCxTu7d65S9p07CwDnhmhVYkMjPLMUadmuVV4gn4YuyHHfi4YJQp0QvwBGJF1oKFp9LPOhnnn0P495d1JL2t/rmx9s1x2fWuZP/sPeW3saIU1+QrklxeQxXT2+fXlozemyJM9uqvmPcSTwBKSZODwEXIrDLiRDw+UV8ePlhho2BAUC+HHs1NeBwV3LQSTtKPBWa9PGCPjnx6sCqABmJgD++OgsGbp+3PlzQP2a688/uJLaMstJyTQung6XXelFppxGO5EA7sNDMgqS0AzdbnuCoUK+cCVcjJo5CRiy+Ik8FizYqVLyZ3395bWHTqp9qCgLlkwTx7pejcs3/06KNzaOvToLWdUryXTP/sYWuU1Feo9mPAGTZvJ6Hc+xvf2K6U1CJTcWmiT2Jy5ZM+unfhODQxaDlnyzzx588dZgBAl5aWnn5LP3npDJ/fia66ToRMm64LaC6Fc8Ndsefy+LjrpSQkJUhYL756Bj+i/xw55Au9Yo5MQAzjz9k9/wEgrpp+9Ou4FGfHQg3hvrHTEztG5/4P6+x+wEAfe1Q6LD/X18uaVdt16QvOdLec2aBRmoDmotvDvOdL1+pZqd+zavlPu6NFLejz2pFnwNJScWrf7uRbJCagYQrkYZUh+k/vb3qAaugZYEcIWqnhq7+8//QjY9XaMa26pUrO2TAK+5i7K6+Gud+nnbE/dC5uqkZmcfBA75BoZ3Ku7rFmxVA4mQqCfHamG/u6dO2XtimXyGMZsL8b7IDT9CJRmbtj0Is+4G/nIAzIFOxeV07M4D7NB80v0Xd998iFYsD6ScjBR4dzjL46XK25oc0ICrcNzU7P6oTe/Q7HGYLSd5y08Xg3N+50TI6v8DO026dlhsnLpYnUGUIMQh+aEwHEm+DtiMibpXtDictVWXAAdLm+ObWyNGljPTXtbqT13De7dQ7VG7rz5INi5ZcrXPwIHm7oRPW+7WX6D1U+N2OjiFoAdL+vW/eX7b8llrW5UXPrq2BfkhUGPKPZuedOtwmOhDx7E8XEQUmLlW5o1EGJBYtqJn34rNc4xxyPP+PoL6XvnrYBMpL9EXvtuBiixSvrZgI7t5McvP9Vtv/8zz0mrW9vht1lk3crl2hcKHRfT+7/MUXwYeRCRE2hu/3ddfakaeLuBa2+5+x7pP+zZ1LjSg9/hprszeuf98bsKdCIEpSbaT8jhShA81LWjfP/xRwQs0rZLd+kJuuwA5iAnFhGFjEKdJ19+tDFFXkcRz7IVTR/7trsV82kYiUFjxqnw8WLb21/WTFZhjvnZ2Pc+BVRqqJ8tW7gA/Wmh43sudtqXPvrS1BqENqfG79PhVh1Xpv89Omo8NPRNJybQZFO0th3wpkn/NxgtI/jZCJxxqOhPqoVx1iC0C1mFpf/MlSVz58oCaKFli+YrvqLxsBsr+xpgrkGjX9I27ANO7nLtlbryc0KLvITt+QzwxdTuOWNz6nba7eZWqrE4CePe/1wqA4/xu/2hDWd9/7VO5JMQ5qvb3OYV0OFks19vvDRGRj3+iFJo17S5XR59Yaxus9RspBLvvupS2QFjkTDjjem/KAbmtWXDerm9RVMsELIxWeVVOCvKVqysnz1yz93y7ceAbcBJ3R94TDrc30d/v2LJQrnjykvk0MFkqQ7BGvf+Z7ABUBQxwHuzTdSsLDBOTNr24gsUYhyAcdno4kuhJd8xBpayGwZOBRk1V86MOM1BE6ehEw8kAnKcJy9/+rUuJDJJHUGVrly6CNo0Sbo/PEjaY9dg/8mWLMPuSOaJsIVjOOqdD6Vu4wt1Lvu1byszv/9GFcHgl6bIxVdfa3ZV3Nf1+itl5RIINPowCT6N6uecpzvQJ2++KsP69kTF/0NQKDfIU+NfQRtZdcn09+F771bHW47Y7JgHaugTFGhiaHfWt0IO1cyWL82AUWjoGjPqSqNxC4wgyTmQv0z/Tob2u1+NOW6LdS64UF7E4FGLxANfdbrmClm1fLFa3mPf/RRa8jzdwjjQxMRdrr9K3btFgL+nfv0TNG9RFaCB4L1//PIz3Ra5QK65xRgnfK6juCjQzz8GHhrXVVhIj40ah2cfVGiye9cOnfBtmzfou974/hdPQ21cu0buvOoSFTROPoW9VDlzYsBHr0+RR+/tInkAKyrXrCks3FMMGvmFxx8CLh2jjMGgMeOhudtbYymc2nNwj2PTuVVLLPh5umMQOr327c9StGQphRtUEKn9OBhrS+M5Hvvv336Fhm6NcUjQsZsAIeM8kH1qd2lT2bx+nSRBEO977AkI9P1WoHPo7xEfr4opAXMzeNwr8ORer2PXF9qUnDEX45CXIdDAyaRJCc0AW5XRopJ65bPvYB+dreMyesggNZQpE8Tqj6MOuYs7Ifwhy/HVB++qhn5s9NgThxx8U787bws988prgfBRB9WOn+UIkvRPD+wtlapWlZvuhOOC2tEKOnlolmUlPTXphWe1M/WbXSTPw8BzkINagtotZ668EOiPVcuoFsWkLIam7w4NnRAXL9Wg9SZ/8Z0uHuJAOInkh89hQEKbP4Zt8VrEahhrO5u2gd9/Y8KL6nalhr765tsg0GN9gQYmvOuqFrJ100bdEl+D0JaDp40XJ/vOqy6W/XAnU9go7CXLlVNowra98PjDcFO/K3t27AJdVwgsSCFZgUkuhXva39cLrMB9utXq1q/Gqx8vw3Fz7SNWn/jcUKXQdm3bLl36PSCdQcdx2+aulNasKFdMHhztZB/ngKXpdftNuqsRs1NDk3fnOzq3ukK9dPysU++B0gnPp7LgzrEF/b61OY4wtszR8yALGjRtrvNCJwiN7CxgegaPnywXtbxGBZ3P6QyBXgHmKFKgn4Oh/cb4MZIDO2mdBo1lDOaSY8CdhErhIexs33z4HjR0Dp2Hy6+/+YRoOy7ELB2vviw04SOQ28r82z1N6yvrPB7XFWRKOlzWXM6qW1/6DXlGtzcONB+fgu2Xnfno9alw7fZR9oKT3fOJIarRE7HiO1Ogly6Ehs4jL8NtWwnxChTS2Fy5wHh8LgMALTjBPZ8cIh3uhYbBZ9lASw0ERffzl5+rJnoMUOIaYFknKE6wHeRgx1qC93wUgTs0Piksuwg5rrkMGnqTLoJXoR3JyFAr0SC848qLFfOzL69+AwwNfOmev3XjetWuefPnl4tbXqu7FOnF8xo30cAgXi6000A6/jEBWY6r5Xs2rlmtOwHHgTYEBfUZJGA0uLC5vkvd+EraWSoPfztHhB5wj88YlNQfTgtCjDOq1oSG/kp3O76LsOzHrz5l6Wy5HJj1SZRS1vlB/xXzX3GRticmR4xM/fInz/nUq+2N8hscNlzAA4a/IK3b36F9om+gXYsmMGK3adtogFYF963wjsoDRmE+cNts+0sffSXV8Zm7umKnpYuf9z6C+boSkEN3GcqKx5mnXxB1TG6/rFloyhffh+M6vjEDEq0amhOERtFaj0Nk25j3Pk7lsqV27HXrTYp38yPybvwHX4Cbran95FbX+ZrLlVNmx7jtNb3iKm8QBt7dXj567VVp0aqVPAMPZy4YmY7r5LY4C1wojc2ngKGvshiaskNKiTj51XGjBEkN6kgxGhqQw5L5NAa55e7dvVO7/+YPv2ksBK914FvvuKK53ksD+q2ffpeSpcvowJNR6dL6alkE+6A9+NmOvfvrguAAHwBlSWhFe8EZWLrwA1FvzrPmIMPnb78uj3TvAqdTPlUytBX6Dn5aLrvupjQVzM6tm2X2rzOlySVXKL1I+rB3OxhtaFvFM6vK1G9+MgoF/37z5XHy3EP9deHRUH0NJ6CRNeI1/fOPYA90Uq3b6OLLZCSSpzkQXGi9bofB/QPkBIuMWv/h58eo8TgaBvY3n7ynjh0u9ml4F3l2Xn//9ot0u+laVUyk6mqAQuwBF34hOMbeQ4DYu69MRLRgPmWYHh89Qa666RbPgaRMu4XB6XVaq0A/3LVj6PEXbV0OpzmsFZ3m6KXxS4cBnbXOCb6pSV1EUW2Fp+oc8LadYPk2Ui2xGZrs7Ynj5dsPPlAP2hPgHy+9rrUnVAfAcnSClly1bCk0eYx+51pgTxqG08E3f/7uW3J9uztkIPjZvGqNgxuFhtmC5z7Y+U5Zs3ypUk3X3XaH3Nr5XoSoltL7SN5Ti4wd+oR8/eG7uljOAs/6wNMjpQQEkxM3D9oCdUpUEJJTDkrvJ4bJhZe3lOLAsMvBJ3eAQOeAYycZu0Nf7DwXX32dFITHa+b33+oCLgk3fhLawnvIzdLhwWcpzwxIVOu8evLg8OfRptIR5YuNFiImVYMJi+HD1ybLyEcfhCDE65bMqw4cSXXhCq9QqYp+fyuw/rIFC7Q/lapW1yAv9pHBSePhbYzF9/JB0B4Dg1ANvH9BKA9So4QIixAYlgMRea3bdQRHP0B9BU/cf4/8gTiSorBNRr31IdpbR4Wb/Rn9xKMy/pnBCqG4QBm+elCNyRh8nguaehfGJVl6gma8qGUrQKYS2mcukI+xGzPEgXibO0EC/qa3Nx9g2eYN66CAEuX2rt0AzXrrwjBJCS6cOLgXHV0iVQ7hUAj1emJo2PkYBu+mV5z9+5xLl9vlaDgViLk2gh8+AJ44L2g2Oi0Y00vtdP4FTaUr8Fs9YDTNIIFAceuhdd3pmkuBoWEUgnTnIOzdvUcnmnx2t0dgmQNm8HLW+axvv1K4wS2aJ5kSoyaBEz0MgXpg+EhlM+b9+Rs44Q7qktYtDT4GMhYpuG/YpCmyeskyGT14kOJfJWowOHRjn4ugnwkff6nsShdY8xQQChwF5+Y7O0OwhysH3h+xE2vAzKQcTLGGj5kIjVuBQOTMmxtQZrO0hUPiYThlXJ+V8eAbzUvNd2wAz1JEJb4+brTM+XWW7Mb7GE9+8KAposj4sewxWaDtisoFl1wu9z70mBTEz52wu23ZuA4GZW60MwuCxcCx79gpN9/dBfBvuLJQ3G0IBX77eboumMLF4NyCmz0eMcpnQ/H0fvJpObtuPeuIMW3aifc/3OUu+ev3merkoYOl+jnnyCAslsexEFZDkXC+4nbt8WwijtOeXbtk+AN9YNsA5uDiAqlctYY8PflV+AQGgx36EO0uBIWTJGcAor2IHT1fPsaoO5BwfLH5We64qkWIVIs1lG3gzPFJs9PQbut0tN/OHdvgWl0IOmodtInBpYURMUZCvzosYa5W5U5pvVs8SeGnUbhy8SI4JPJKr8eH6JaVAo1Z69x6iO9FQJENiDFBgVk0NmDXVsRvwBvH52S1BhcZlALFoAkwQNTQ29EGuqPVX6YHJGGA8fsiJUsi7iFJg85zgBo0Ve5NcFMI0KRUmXKKyxkwlA3GE9trNFcOKQbjjYI2/KF+0IxvS1vsCtXOORvt5dkwgCP47AfEK1DDE+OeU7eBjAV9F7wi/H8q2KS3HEO0c/tW0J7zlX3ZC66cQV7UkKXKlpcaZ58L7Wd4eO4cjM3IgnH20ssgGHTb0/4oAsE1QUmGZfln9u9wXa8QMjjcxei9PRfRjxwDFyfDlWMo2Kxqt8xBnAi1aqHiOEavcTMomfzA/WtUG/O5CsmgWLjrqbFuA8iWwrm1FGNAuq7xJZfqQiQV6uAe+8vxLl2+vH7fLHCrV9MJf1UOu8BTOA6ewsjreLjoMIG2O4QzllI9OPALd9CMsY8oYFllP7a+TtdeblY8JmESaCDyzO7SgVZO1i06872jXa59R73pKB/qiagRwUvudmrxHrdcD3vgO+kKDyEdFZEXPZX33HiVxO+N07hwskqRi98Zet5MYhxdcXEXhXikJurR0Lg/3DmW+m4Pq1NAybYcQVDcvKhJZKWKcMikcoVfkZGQ7lO3W7t3RpY3PvL3rPfTvs8/tevYs6fzDKYhRDxo7DlH3mcQcvCdykWbS+kk/pt/m9/gD0MIbQil5YedIcnX74VG6wJqaR2CiGgMjX77Y40Yc6GZwYExcbt8tu/Qiex2cNLc4B7pHr4jbMbs4jSnP5n+uMtFxy2a95fGdTM0cgxorjoXNNHtMwZahrHhhBuM57jnxmsVptCV3fH+vmF8tMf9W+Rh+Q87XmmNo2mF+g002tAXsyP2kV/QRWnGjJfGdtjx06dZ2JeWoJs2+d/ReQykz6U1po7BCb5L282FYdkd73uWUEjz3enV0Hx2j7amgr+bSdJ3nnBHtvII//Y0oG1U+G02rD3wmVv5pPF0W8Lf6i3DlkWN1+HyZsr7MqbhFWRhMFsjGK7pML5jVXQ6w2wH+4/A78ySsq5i25bgV/w+kFgwTibzWHeXw7mmdw7nEje3u6ypGqbX395BBj79fFj3ed8TPe9F2tdEqYIItgkffGaMQs/oMberhrZ6xLwx2AczhtpJrznhSsduct7GFXx+sG+GEuLA8yWpx+loU67LINBu/x1hA+0phdQ7Y9gkeePrj3WGTDe/yWzbqMGPhe57cJCnMU4kOMl12APkOlN4IrWAB9JNowPKzogNvkx2hK7xx7t3VszLAWFWSb0mzdQFnUvjbH0t6Wtosx6dW9iKh/9ObYbT5qZNOjF2HZhm+gcTaXFvK0K2tVbEzLt5rybW6u4jmir1OjyQ1MbNrmyJaLNrJD9SzYg1v/7gPfn9xx8QOnuOsg3n1m/gObGCwmPaZxZQUEObpgaYZ09yA423P7ohDutPRN88Da3PsSMQHIijSXTwWWE/Bx4Q/DFSC4eNuHlRavvBb4Cbk/TCXx27pwE56PzwMkAogMfoVKZ8bCePQutc5CMeGSDvgJ8sWLio8e6BFjpgKSIGMFWpdZZ6mgzH62vRTGnPcTwkyLdzsA7BOfT+tEkQ3vcVXphA9+wahlm2QmW5pNV10qptB+VfXTRi5OvSO2nH0cz/yVuzwLcfmvLVdDWsgltE1AfY7XYBVc3MEvKkjDbT92O7PkSBh+VcFExEjuyxniCfkvIS4duKzwxZjEeLnfQWQ2TJUORC6GtBeAkd7nc8/f+kpJ2ETquS63fXbaHB4yaHBRGZ+Ym+nj4x9iE1HjsJY+a9wsArh178WIy02qAZJTCEXJRdJNQ4sXE4mb0+vd+lAj2k3/2hgfCWuUHNqFPluLsaoaEVL9kAm7Se5SxwjyI8KUvuSL3yDcUIpW2NVyPszlkUKcDHPVb//4V0j4AeXj/s5alhZQTPUn9JAAAgAElEQVSckyPdT/n/G3UE0tK0/699T55wqA7pCE/h+A8/16xgvTw2KPqQ4+R1NfpvivSWujcer6Ue/Zb+d9+gc4BwSQg0w0fDvW0ZNQoNvenTdEEK6ohDGUbphRdkifbw626kZ/AZCi4Yzsl3p32Ap89NZXScXL+8OI5jUGceJRfOzYXxwtEeq9P/+ZjLB7vyFKxJ9HAYTxF995zkdHpnUnXSg5fGYnLctPMa6irSncA6LiwIDVbODHKTGW5HOkbfx+MUZhME41y2wfcG3bSOqThxKBFh1AZsCkdlmmGy/Lj9OazCaJqOrHR0/D96iw5H95uuC416+wMf/1nCPePybDSdc6iYkEhUFApLwj3yiKpA6cKKLuQJQgSXTcMAGddOJpomJCArpuZZUggBVcECKE6OMkOonVGpzhpbZuBYxzp77m3nIMroZP3HBFvno+8dbUPDkV7uVyE6ftd3cFyMW9v484IBStsROrlo/l+yZvFSZIZskzgkwzKMk7l3JcuXk6qIwDsDQf5MFQrGI0RDQ4fhXbvVu9gMRtwN6dMD+XNfaqjpE8iDK1WmgjyDaLqCcIz0RcGcKjXg4EFA0NHqXh9NVowy5kL33ZtskxeZhrDRv1GKYNv69Yiu26VcNuOLq9c6R2rUqeNlzbs1H40x+rfKepZbL2kSmvb1jxrWZ1SrqcaTbh7aevwiB0A9egjQ2bB6tUwbMxLRaN9qGtOB+EQpVrIYEkoLIECc4Y6bNBCeAeAlEabJklC169TVxFJD1bl2pT3EYUEuqXBoAOvar5vNw9/G+WsXl8Hkg0eR5/brD99pbDFjhUe8+pa8giqZzGVkqOkVSPZ8etI0W0iFVefNqB37CsfdZlFZ77nNkGcC8OgnH5Pff/oe47IN41RC65LsQGhsHCL18hXKJ40vulSogBgGa55hxie8HUe3XCIhXVCBhIUt2E6FuaeP0GHvniMNiNtwjzBYRxvHdC9YjgdCNdUodHjN9CG9QdXByAOrl9FgJyAzv/9KnurVQ+OQ+Wm9Js2lTed7NIaX2QpJKDJCgf/otSlwG7+jKTwMZa2HIieulrHD227QI50+4YE3bLrBw8aTaLSgniZg1ZkOXIA8dpiYMcF9UfFz4V9zUFzmYWmIEgLTUXSl1W3tZTA0NksDMJn0hg53QGuj3odNxTLwyFcAxi1uYhR4OaPTCwSy7w8KM+9llGG3m66Rf/78Q7NCuqHEAAP3mUm+BWW4vnr/bZkCxcBqRuMxRhoqavSPjYewKki776TGtMILE3A4PRA2EGZHmAZbmTbtd9/3ZCKo6wI/R77De2vANvDjVWxb7YJ2YxPW1mNriFR36KsQCRaiVnRxp+leDe5xxMiefiAONAHkzPC475br1NFwKPmwXH3LrdJ/6HOaXZzWNQYZLp+89Zq8+t1MTXkysSV+AmlQsPmzC0GMfJbGC0HjOdzuGVjO+ETb3KIICjazmplVUbxMWZmCTHKWD3PX7FkzZNJzzyD/Lb+W+WKeIYOTsmZhoLwJrAqh3077u3BZ3fXSwrdWmvk9FnQhZcoCOEy5YiB+LyQMMxsm8urc6krN4xv52tt+7ThNRTACHNZXvMOE6fJzp/88iValw5njXOnP1ljXuG/PDPJ3MiYMuEqjvqCb3S4oMxrK6xIwLLmgXlIXKhzolGmvKcKuNoQmATOuOzxWO70yqX14ekDvUP9hzwUyFOzKTJehYbVhYED5cuacdb3uKi1snhVFAKvWPAdpTF9otjcrtHMQ3abITBRO6HfQhsP69ZRP/1oIrZTPG+SjGZPOUDM1QJCahMnIRiGz29uRYidcZU33OXeQ25C5fABxJAyMGo8QzxIQbC4Mti2yDU4Lm4A735BMa6GyjSoAVrjCTV0zfhzqnu1uBtRBEiomcwpCZisjh5ITrAVi7N+P97wHaVc5AMtMCpcRBJOLSElIK8Cf381GWMKijlpsx2SWuCu98SVHM4B1ceO/Q1icbEOkQW8WLmvdYVFooRmzkMIWgk0c9vWkj03SK9AaQXlLs4ah16fPMrjS0XW67YQPfdo7gNFO7mKmgwonSko9cHcH4NDCKGm1U56YMElasuYCi8UgqVK3NWs6uoFiubDZM39CgULUlrMWPzvNesmzZ/4sa5HBwlJd1JylEEraoPlFEHwkybKkrF3hbAfbsBiVMBfPmyM33dFJt/KfUHxGa+whH7DhRZcgQbOocbNbbcDUqraXNNHnF8PuwCIyeZE97ffrkKxFiv+vKJBz4WVXhqWBsY0sPvPHzz/KCiSs8gwZ1uwrXa4S3nWxpkqlNUnudxxnChpzAZcunId0qWS5u/9A6YyaGcGL9+xFcR0KOPth0YbZKWxd7U1IaVo2/2+M2Ta0vwAqidZFXZFKqhyCmpTlDf5CniJjzlu1ba+JxT/BCC5bvpJmplMO3EFDTDjm86shZW7f3t2aj8g4dWpdFvThfDD51hnVbOfieX8jyXkRduZDqF1SQSEk66+YXc33d/CMFVYzrV2nHtK/auNUhw+RDrYKBYBuU7LA9O3o2UjBMVJZQn0xsBxMCXJCnF78bB7lBFK3LVtTYUjf++WDKa9I3kIFMAGxMu3rHxQXmoLkdouyWNPBTw9zEsLoao7RzOeJ2Oo3rFoluZBfyPBLYm4aRBzgXk8OAy5vqhPw8WtTtSITa2osWzBf0+MfeX6sjHniEZk/Z46WO2AbmWL/9MRXoQGrW42Fykf4Lsv1cg2zWlELFHHkYmEY6HYc/bAXFZXWrV4p61etASSaIfVQHisZQsEd5/cfp6M+80AI4z9SGPWkmbW8cvFiLdxY4+zz5PzGF6jAl6xQXu7s0ccacf7YOe3dpz1KMCDZl3mUFIqWrdtIwxaXSRUUnGQSK7PfPa3KgjVIgHU5e/Fx++WV0cPl/cmTUDZhv76P4atFUPm1Y+9+clvn7jpPU4HBF8yZjcz7Dcj6/lNqI7+x3+DhSB6GUCNRgVnefBYFlwXSuWgoqMVLlZU3fpgpM776Qgahqiyz0Pl7KoCnUEbusutv0nklzHzxyUEyd/YvqrT4LI5HrTrno9TXOKlwxhmyFHPDrH+WHF67cgWSoRchSXmq7EAt8FFPDdK5nPLFdDmvUWM1vCM1edqKNSCLKM4XepKnYHGQdDEcH+QIamj3su5trtdkSmrjcqj/xjNc8vG0KacpuBD0Tf6u4Ir4EcOxE1+jos5DLCmAe+o0ukAeRf3gUqXLonzrKHl5+DBkVx9UGm3y59NVSzDL/Cuk87PcLUvXMoE1DhNbAhqXNaW3btqA2hi5YKBu0bw+1ozjxcEdMehBzV9ke9gOClQysqDLVDgDta3PkD9m/KClwniowssspHLWWdqBNSi10AnpYjuxi5yHykDPghEhxfYCFsfbE1/S/jNBlZPdCImhI1817zQUnaFHHbX52kuj5JkBfSE8pRUf70dNE9obrFpaFIm4Fc6sortLyxvbaI0PF8FHZubhzh11h6iLkmr9hjyLVK/t8swDvZEpvgOGd5LQz9AIVT8H9egqfyDZgGG6LLNQGkm2LEC+AVqRGrRt1+6oBNtRawfuB33J7P3mV1wDxcAaHChSCWjHnbTHrTdowaChE6dqJVUmNrzzygTt9wGU8O2OzPym2Mnexe8+RY2RxPgEOf/CC2U86hCyVscoVJli7UL2PRZ9KY2SajTGCVfyFyygNQCr1T5Xd1+FMOlCCzqwcKy0uT5EI4Op6c5oPZ6IuzAHBV7MyWCSK8tNUeVVPKOKVu5xNTRMCKW1pK217cxKGh1sPLOX70TVyjU4moyrlKd0uRprFLjbAQ9IAVID3HYPK2gO0e8twTu7oD4GjSFmvNzdb6B06NYLibf7sDg6yuxZP6mgFyle6v/aOxtoLasqj587qwglReoqqMSCdJYlNiY6lUw0Kil+y8WrgAKF+ZHIFUHAkUH8AhEQBCch4F5UlCvmAhJxbmmYTOa0xsnWNE26hkRtTLRCSC2nr7nz/+1z9vOc9733wr0t12It6lklcO/7Ps85+9lnn73/e5//DveqTQZs9ViK19S4ZoaUYpcscS8xlM5rul/W9uBw4IG9jJBlrI6EQZLOzrBy4+M6tR6JVKAza1w0V8rePVwmN+FL10y3n78oq3OJxg+lVk+5NwtF2NJvwBH2/eLlpDjNA1NOlU+Tld6ijlcQv8CFzbnEP0omnPJmPvBefFpUtShST/GBsPBvnz5ZBJR320JarEMQcHdwscDv/8pdolWqCcPEvHrrspX282+LNQl3EPbWt+WOHSeFHCoixY1r7tN3Pyti+nlh2W03h6bF8/WZA+1EOSxRGAPG/ux3vxPGi13p8mv/IdCBmOtVsT2NE2cehDFDRAi/WB0buCDiHHPKYDv4jJuzQuyjA487wX539ejzbXfbT4ScuKJwqKCALV//WliyZp1RGrALcIK9M86vG4qaKy88t/XutaJXzZ3yDHayp+/mii/Eo+j4J4N9VnRU3bp3ExFLbVjVstnYkxw39aacEfIq3RZPMZtijjjTFIKtk5VNrxCsElZr9pSG8MiDq8P7xDH9SZGmL1MQx73ZviaIwYgtl20aViCIy7mg9kVh+D4WD743xsRLQplGfOZYFef/Qhby8HBvy5NGvcvF7yaMONs6du0nbo1GKTSkNzzvlkkTwmMideG6auaNIktpsL/DXjr21CFGr/Ch2t5aPE/as4rTKhWgK5aa7Chb9NvhsYeaDbN/9eVtxkb6u9++qwMP+0V2I1l1FmCDIL3Lp6ujgdiI6Mfyytat1vtx5cYWo/h1hv47xRCFAYFQB45AUJdnpETTRQvMov/QwX1C0z8/EWolKxJKxBm18l3Bw1W0ZoEcY7ptxX3mhnFB5vOtTRvC+u8+Fw7r39984k0PN4c5eidwktSPvzRcJ5ABPpD/lbWm/8vWF6Bw+IOCWdF9CcfngqB+i6h0a7Rgx068xphQuYgDaiUrDnkUyEsnLbRp4owr1KdQBf5/cuYrwXY5VHZTw5fDo2vXyGr0Mu5hcNNPHP+36eQ2Fjr56fbdMtHhCv29Ld8SNUC9/Nge5i40SYn6act1wsZVSxaEpXNusRMhffUCWTCcNyRwEy2DmEl3GUrR9Ojj5tdy/VAM9ZO0VWL9D1HQ1rhJi0xKaxS+8pUvkiWB/+KQPoeJT+8bdpCVxckOcZkIZl4whf6gOKOl0LIeXEvnyJLdOV+tLrqHYcPrxa5JC7tgrERXjTzPxkFgeFfzOtuS2hSA2RPiVb2tQu37mizfD9SWY/PGjbbj9ZB/jV9PI6F/khF6Q9nXi085seAOJBCEf5tYZYd8/3eUjMF1gijxqyLLwTWg/8q140aaK4S1XC70iWdXN1pyzmvG9rnTz1Yy5wFbZPWDTxANm6hx5aY6r/YysVE1qt0ER84wGLTuY4Gyq/xcBJDkBGA7vUk8enUXjbU528J4dENsGCQ2KaiPMVjsYlwml7STJxHt+Q9cjoYL61p9i8iF2lm/Ja6i6As7ykGiZPbkhnBQ7YeNuHtcw6QwadacQiGLkbHyMifcOyB9T5m6hlHna7s/wAQEYSMnv1FGLPZDjcvCPB1M5fd9Du8nBtLN5hr8VEHGZcPPNG663vK3VwlPRmm5YMeHtRQh4zs2ijaL6JzrLTUEHS2ic6JuEAqsNyTquEBslSySHyty76EFBBkhASXz/m8RlPM7Wj8QhF4qSq2PHnW0MOt5lm0kEF5430PWui4vcIpTLrFjZL1NTFG0wHMS9Rxa4yT8NPH2Paf+JFhEgs0mkZiz1Y899e/N+nH/oWdBwcWuI+5tjRX/+8OiGv743wwKfRULYKFhJr3m4gtMoWlXsVxEncjUXR9PikFLjFLvL6PCYlz/rz/QbtQsF2eKOP+eUUD5KevN0k3B752zrg8PiOGJ50HKM1hJKdAYYoj91L2AhQaX9sDjjjfUh7kRHz3+yDrLJl93+yKjbvNkVYnIdO3kqBnHqV9QLYf6YsSgsPRWOqvQvJdoZYmI4z2A2uAhpskP92HSK8U8Cf+a0cJqEjk5DML0pADIAco3of4cN13i5thg0A4KjYI/uHJpWDBjurVVoAYEMhowzldefFEKNky+3JsWmUOB4G0jfqymNSg0gQ6MQ7Q6AzXhMpLGk0604A7YboUU2okY8VsvP2+Ytcpg28fl+KiQB8fAQQ0ItggQazSG9yvYImjD12UrPVr8zByiNTagwhrHdVxmP2u0gOsUgB4Zrp09r0CDzEjIan1ATEYb166Wq3U1hQnqKDY03Nn8sBbgG2FUstCk6QmmCAzbu3ABCPy+r94mky+uN6sOTfFy7UbI3AN2j4lwP2BbfU0ZVEoUxlzRYCgSQZtnlh2qa9QutWLBbdaY6Bi9J6jTOrqcBVacilGhRd12nboe1I0Z36bvu7uyndVFG/tEtXW7i05QCVJjIJ29gdmZ9L3qFX7f3YvDIsFZBx/aJ/x619vhiGMGqqHMg6Yo8XuxyUzs9V0uJBbHL7WVQusKY+U7isJvWboinFE/ylhFcS2+MvvGsFqdqVhFNGuEuBHhvvyTreHK888yBa3tLbdCwSg8y1iE/1BK+erRdYaOYL0JVN1PfnvnTsOhIYKhCIiuAWDd3P+3eiYZOviP2c5XaGHSu4VtHQV5Sjgq3G4w3U8RjIjiHtL7sDZMS+0lMExmbKsyAhDR9NKOQRPUiPjERBFtPNiGoUkg0IPE5upZNwsCnGqcgVAPA7nhGtFg6S4tfqM7I/GSJVAi8XuNoU809cS6fkwlCBzuwEjkOLUjL8tvnx2WL5irnRacWf25Jde5jauNjd8SRrofjK4gUuoEIWU/yHzxm2kvoffVXvWgjwOFJpkGrdrUufNDnSw0n2csXbPL2dJBlhMvOE/loxuStXAMumtYtMMjKGNMWESLO3vKxLB+9T3m5KOMffsfES4X8nC8sGPnTDYLKSHQj2ONqG5Hqq8IJNsEfutXrzICwBMGf87ar/kCulRJiP967llb3culmOCnvBC24C+ecbI1r0G4azY/bWgA5vDftdXiO3KRDaRlGwSSXCjtiM8MEkfdm8ansebJpw018GuUSMAhZOQi6WLJB93zdfFu0ELiLUFsg4Sb0qaBYAbrByH77/9PHHT7f9CU/WiNsehPaEvYaxJjFg1XiR4r029bqMTCqAp/+xUtVIIoEhaD1NNxydp1NnaqFe+RdVx040y5N30NF/782XVG5wu3HLzZoCYHKF1+kqBKfHh8aMjQGcEAUazd/82nCrn6fH3x4QZdeu5pCXn6fThUvHMwnJLJzXcX0A34wCk0YzdmR2mYeWsYLBwdI7BdVYNbHtsYho8bXxiRaZrP00+02H2mzb3DWFDt/fqWzz9S8NxZA2sLYdJF9a2w51dkkxxXy5S/w786yBFHY4PwlcmLwp9sFifxb8R8TxqWMRLgAbJ369bdegi+qm1t29YXDD3Ap+sjC0owIVYns4xYAriDydLh221SwEldxSTRatFYh0VExyk6ZD2legzIz/nZkGFnCPQfoSTFaNveJmmrhbgRGOwktVQYJ5cAv//hVSut14e5TZo7inna8BEaRz896wEjZ2c3ISgdctrpUriR1oKMbBuM+D17KfiVn4uv67UQZNLAesXDYCSSs5Tk8R4ibjkjHg2f31tGP0zSiEwriwNynQMUVL+inoVPbPy6enj/LAwSeTp82f3kDzsOjZWGM3uLiN4PkDsAQSUdp4gBIHD/yfPbwsJ7m0RBfInNY5NQmX8TcTllupCaDz2nTgvus6IsHlvRwdXH1qBd7V9aWsxHv+r6WeHKGTdUuAaFz/3NTWHGZZck8nnBjbLguHZQJkPUSGzwte88q8D7dUGEq8N6xVm/UiczLP+RAweqinBoOEPvmF3DF5RlrzPPYY/qyGfnXz+1lRrfii92AbbLH+KrNi15U0QLeNSkBgYhKslorv6m0uHvKEVMQACs9xEp9yliGzpd2TEst0+IBECjFgS8za/+9CU1cf+NdWelb8joK6607rQxnf7+QHHTD1WUD3+HEQsqMOJZBFBT59xulon2YvRjgXKXiH342PHyqX8dHlsrV+hwsWWy3PQ/OtiS4SOZse6eVUrfxroOfrlDpZyf+NQJoeGGW+0ZCxScrm36qsjJexrk5Z97V7XUv9qx0zJ/u3btENLwd1ZJaEhHhRGIu9mPlFhoUUUdVvh1QXM7d8CIHxRo7R8GHHFUOOnsc0K9Uvk0Lo11HKqLSAsC+K55xVLr5wh9LbIlmzfgyI+Fui+OD6eee76lqm8VzLhdCaZe2qE85sEPp33d9XcsLrvNap7eEpqygaZFwqRlQGAH6C+ZFCnsZEH5N64DhyIglH9J+QMYWanToTXHiUJ6SNrQo5L3sEyt9WprD7Gg0WBTBeq/FGvqJZOnCVE5M3ZUgPI45Sn2qMjpA2aHSazASoT0kLPl2rtSD13xtFjbYR5xAjA8cIgfE5wkrBfOZw+quusFeatjPlEGJ2WNAhPeJeUmoKThpiMXkSUz5vp3y0DalR2ns9LT50Bj6InCwpmpLk4fF7k7Y2Lyf9B236KSWLqnouRHHzsoLNugLliyjJ5AKp2O0sVjjljsd6WkDPsDsnA0J/XLAu/U0NIkmpSavyOnnbLKkK4DaVK1GKWefPXd4LmGuVSTVZpcK61khdGKktdnIrzprTHoX/iO3B8WEa4bCJSNo6oAqT1RV+Q1uupyYKEXz5rROkkUsMBThkV28SYVg0qWp0Cl0sFT86k1mY7SmI5wIDwrM8wgLX5XXe1mLg2DzwpXrGQR5meHXOLbjgQvVrqoQCtCC3HIGONUKFP6tiVkE999Snr4PfVdt4pYIJInL/zoeWGyy8IodZetvrCWo0/+tCz+dusaZSeDbPdIA8i+EDlJmCsdY6sufYfjYdaZNZWLGuLpEyGIbEdOLlenwYUQM86/DMLTppRaZMSfO1ll7icXiozcEvdfkU9Lw3Vj1B51rgedMb7K3xMyjztjpEm2Au+KVF17it/RYqhR67HWiTNvyRQuzrmzjnjljV2jk5lOA82RkLYrPD4rijKevs4Llfz++fd8bPkYbXvKnle8M5uLK2d5+DfOMQrTU+980GZgu1Va2fw74eX8zn3Greq1+GVlEHErblJbDRqvAyv6mMB2qaOmNwlIzawldxs05bBVfGmuWGlztfUUXZD8KhCIOLi00Fwt4wT9O9VyimNPOpN2qnSH+IhiDWf7hcsku2+5BCvfUdu1F42GzyCKnv+Wu1CxpNLiiifRPMkWxxS/U7X49qTZiGLM54e0kuqNgUq8gSvAnr7fmd9Xw3q+hZl/nZ7ownKldHG4crRnKYr7pEEYapBREfjL8ofYvbMXFHXUJJkOuUQfycbE2DI3xZ6fxutWCL913LCT1criees2e4O6aeHb+8WRrdlq1fz9Z54JZ9VfGOaotx+ZurgzpBdc7EUJ84gPN/mXFjGNpZhfGnMhuzTuXPmSMkRxtDfHuHDtcmuYbJDpeDIqpdzjuOy9ZBbaZVhRypApc/GIzKBU6EwxzmRI4lT+dAvNbCePGWnlo5G82i1GF2G7zmj2PvAZf8Fupem4NWdqQ/ifFylv7RGOUSr5INWOvKmiHJJDWGnaJE+YcaOCI/qG4AJFi/leGo19QLTvyRTM7tzxj9NbSQj4FgwvRybx9+RB+8pN3FLblpqCMU67bN70iDW+367CGnz23kJajhL8BMw44K+PipsFyuyui1um3JfdV4S0N+eBQk9Rgf/Ce5srjmB1ZD2q3YeOxt5l/HBvCqGLz87dIg90d3cLz/iV/nJ0L5KJ7uLT//Lx3UnAvBUVcxtsV9AF0Ewm8x/9BrkyV/u25ortBhLaV16DySC6k9T6m4fmB0zNWy1QE0Trp3OqD3xGvzY/Kb6vyGdvz8Pej6qe7MSKB5SFJckUtFqZ8yDNJ0EmCQyVRj9+7ZOWOiERMd5IoVXb6Lbdd/vnsOj3tlKrk2w6gpWOR1XCSeXwcjjI/UcUmP/TGXS7Cor4+7FqxujVW1054Li3BdH55zuUlEFKObrURaSp88/9yyf3LAFZ6C9BNKOyQ+9bwnH0GBT63lpiitzQlfkNnd37mVK04Kpsu/z5EdX/9lMBi3/OEh95IsOgH7bqZNkKA5fnzAq7VwGz5ZNpC7/ZTdOY/aYR7op9cfJSoAhjxUHuXkQ5/tz2k7lZ3rOo7RM2RMeMHbbMcarKARVQpInMYbO2MF0+O39O0RAoPbfYTCqgy3iusZR+HGPFd6vB1aIzkz+1Wg4dyCUTu4u++GSC9Yo0c44pZrug5RnstbWzM6ZXIG67Ua3zVzXHlLMUMAbgCb5LiQd/867MKPLL6h5K/ev7oCXQdZCq2/r371/hS/uAS3A/+qAmwiwuynP2FT9PyECBEKRB5/8uP5/S7slVKrBj05eKJxj+7DLMhdtGLXEv7EXEwebJm2IC6f4l5BnXcGRrSrK0h6WbOZab1lNRZWD3cdg0jqQYtX01Kn4xlvbk58JIn29X1o62cH/7u/v06Zn+M8fDk8dv47EYIhmOYnRVFRdV8VcbdCcBzVE3siRaijlcTK66hVwLGUSjkARUGrEkuxqV8bXOU42rFQTxw+rgzp4clQUX4g2dl9u27aXQU7hqH9Ua79+D09J/Zcf2GXzlpKtVJF+9HezNnTF8xWfKe/C33bPgVY0le84eH5ngtjx5Uz2z9mdTtTOkQMVfZlzbplFJvf2uHcgme2gaUuUw/Ie2CDvY9fInpYmX4ykXVHariiRM+7uam9Sk7NlGkyfS8t3apu57g+0S+T7RkTQ72FQzYdRMuODc1iU685briFlUr8OwJRPb7uIr/6d6Th+qov2+ffsWtRTtpaIZsHN12Px4gKXwsQrJ2qQ+0sVySy/XhJAkV25sUVilL2//yAyjr1r/mf8eNVexvKm7v83sM2l+hQXOsGHrIKtnOJ9ItLLpVZg3lU32MQwAAACISURBVN6ccenFjGOesq1Q3Oy+ZiCSiF2hzY6kIVtvbatp8QFjmd1Kx2kYj7dVACbhuqnHiqYaFzvnmURvdwI7N9m64jrekilk5TeKrGbMkKb5Wd1MrL2IaxEF4U/XomRfi+elUSbFozqv4sSS6YRuYPUsyejao1LWNBVNxbuXi654oelLzO//ASRrmeg4ImtNAAAAAElFTkSuQmCC;" vertex="1" parent="1">
          <mxGeometry x="600" y="1300" width="360" height="330" as="geometry" />
        </mxCell>
        <mxCell id="YG7zo1-SDTAd8ydAH6qE-43" style="edgeStyle=orthogonalEdgeStyle;rounded=0;orthogonalLoop=1;jettySize=auto;html=1;exitX=1;exitY=0.75;exitDx=0;exitDy=0;entryX=0;entryY=0;entryDx=1235;entryDy=30;entryPerimeter=0;" edge="1" parent="1" source="node21" target="YG7zo1-SDTAd8ydAH6qE-3">
          <mxGeometry relative="1" as="geometry" />
        </mxCell>
        <mxCell id="YG7zo1-SDTAd8ydAH6qE-44" style="edgeStyle=orthogonalEdgeStyle;rounded=0;orthogonalLoop=1;jettySize=auto;html=1;exitX=0.5;exitY=1;exitDx=0;exitDy=0;exitPerimeter=0;entryX=0;entryY=0;entryDx=1235;entryDy=30;entryPerimeter=0;" edge="1" parent="1" source="YG7zo1-SDTAd8ydAH6qE-3" target="YG7zo1-SDTAd8ydAH6qE-15">
          <mxGeometry relative="1" as="geometry" />
        </mxCell>
        <mxCell id="YG7zo1-SDTAd8ydAH6qE-45" style="edgeStyle=orthogonalEdgeStyle;rounded=0;orthogonalLoop=1;jettySize=auto;html=1;exitX=0.5;exitY=1;exitDx=0;exitDy=0;exitPerimeter=0;entryX=0;entryY=0;entryDx=1235;entryDy=30;entryPerimeter=0;" edge="1" parent="1" source="YG7zo1-SDTAd8ydAH6qE-15" target="YG7zo1-SDTAd8ydAH6qE-10">
          <mxGeometry relative="1" as="geometry" />
        </mxCell>
        <mxCell id="YG7zo1-SDTAd8ydAH6qE-46" style="edgeStyle=orthogonalEdgeStyle;rounded=0;orthogonalLoop=1;jettySize=auto;html=1;exitX=0.5;exitY=1;exitDx=0;exitDy=0;exitPerimeter=0;entryX=0;entryY=0;entryDx=1235;entryDy=30;entryPerimeter=0;" edge="1" parent="1" source="YG7zo1-SDTAd8ydAH6qE-10" target="YG7zo1-SDTAd8ydAH6qE-12">
          <mxGeometry relative="1" as="geometry" />
        </mxCell>
        <mxCell id="YG7zo1-SDTAd8ydAH6qE-55" value="" style="shape=folder;fontStyle=1;spacingTop=10;tabWidth=180;tabHeight=30;tabPosition=left;html=1;whiteSpace=wrap;" vertex="1" parent="1">
          <mxGeometry x="1210" y="1545" width="430" height="370" as="geometry" />
        </mxCell>
        <mxCell id="YG7zo1-SDTAd8ydAH6qE-56" value="Main FrontEnd" style="text;align=center;fontStyle=1;verticalAlign=middle;spacingLeft=3;spacingRight=3;strokeColor=none;rotatable=0;points=[[0,0.5],[1,0.5]];portConstraint=eastwest;html=1;" vertex="1" parent="1">
          <mxGeometry x="1260" y="1555" width="80" as="geometry" />
        </mxCell>
        <mxCell id="YG7zo1-SDTAd8ydAH6qE-57" value="" style="shape=image;verticalLabelPosition=bottom;labelBackgroundColor=default;verticalAlign=top;aspect=fixed;imageAspect=0;image=data:image/png,iVBORw0KGgoAAAANSUhEUgAAA1wAAAMxCAMAAADIUUJyAAAACXBIWXMAAAsTAAALEwEAmpwYAAADAFBMVEVHcEzp6u3m5+q1t7vHyMxQwOHp6ut/gYVNv92goqb//vj5+vpNv+HX2Nz////8/P3g4eROv93////8/PxNwt3/+/H///9Rwt1SwuBOv+D//PU1udtSwt7///////3u7vHr7O7///1Mw+FQv+FNwuD///9Swt5RwN3///pOv93///w7t9pRv+FOv+FNv9///vf////m5+j///9Pwd1DvdxNv9////9Ov91Ov9////1Kwt////xJvt7///////////9NwuAyt9pSwt1Fvt1Fvd3///9Aut47udxNwN3///9MwN3///////78/P3//fP//vn///9Cu91Bu9pRwt1CvN1Nv91LwOH///9Mv95Rv91Vw99RwOFMv946uNpNv91SwuBMweE8udxOv90+uttNwuBQv+FSwt43uN5Sw91Ov945t9k7uNpRv91MweBTwuD///5Kwd5Ow95Qv+FIvd/k5eed2+oztthFvNhOv95CvNtBu+BPw+FHvd04uN1Kv97///7///9Qw91zzOZxzegss9hIwOBKwOAytdkyttpKwN5Iwt234Osyttk8udg/utvw8fRFvd1PwN5Nv93///5axOA+u9xAu91nx+H///5Pv90yttxHvd9Uwt8+ut////9KwN05udtMw+FOv+FEvN0wtthIwN5NwuD///54zeWo3epNwOFJweBtyuRhxeKF0eiu3+xFvN9IwN5SwuBcxd+U1+lRwt1Qv95Kv95Pwd49u9xJweFSwuBuyuWM1ug9utp6zeZ1zOVNwt5Ivd6I1Od8z+d9z+a34uxZw+DC5/H///9UwuFBvN5Pw+FKwN5Nv95Qv+FEu91Rwd7D5Ow+vdyx4Op3zOaW2elQvuBBvN44udo7udpCvd5mx+JFvd06udtPwd6e2ug7uNqy4OpNwt9Dv912zOZAu9////9Rw+FOwN59zuWE0OVMwt3////R6vBox+Ewr9iT1+lJvN3///+L0+ggstCl3+yZ3Oim3extyuOv3+tRwuBPwuBRwt5Pwt5RweBEl1bmAAAA+3RSTlMADAoEBeEcAfsCHBPxBy8VCfoyEPYbWPv6+Bim+lYjDw1C4uv5UabtIf0mV/fp5B9TGkrQtM1P9NYszijNRC5M82Huq6dXcWvgOLtIOhQZHTS5YP2w7uI13eSf47lj+fLKgemx6dHyfdf4Wl70wa5A58X44RiMbnHsY3XbonauPkbmnqdXx9trXsffpmZyaBK8tL4rnKZ8mzzlcdqi4VrhetLvtlul6ymRitrKk5KOjoHF9JiL8N3YnKjT+JiMbpaa87GSjJuLpIxf48LK66fciKiFxoammMPNh5PVo52hq4ZOmvfgo9pq35PFhuV7jW44pzuT3CVxYc3dujMPZ9cAACAASURBVHja7N37U1NnGgdwSSJJyA1CIOGSCyRIQAIYQrgFIhJDQBoEkXtMAaEIRKjloqCglAoytlG8gJdxwUEFYREHLKPjrbp1XNd1drrutjvb6kxrd2Zn9j84Odk9J1RXexGIJIJ5Pj/or75nnu95nvN6zpsVKwAAAAAAAAAAAAAAAAAAAAAAAAAAAAAAAAAAAAAAAAAAAAAAAAAAAAAAAAAAAAAAAAAAAAAAAAAAAAAAAAAAAAAAAAAAAAAAAAAAAAAAAAAAXBSVTKZiyGTyCipcDbA4RfVzWJG52AUgkghCM6txzaxGFosmJDBIVMgYeJOyIhFoa9a4u7t7POeOVReLJRQxSESqS1wAN/Ma9yjBkYJ6uTIkms+PDglRqvd2ZKQkST1YNBEDEgbsQHKjNWYLmEFKvu96X9+u1bguX/766Gj13gE2VluNLKEnkfxO31j02YKUeiX/TGr68dHvb3f+iOnsvH195C+D2oM9fHXQxiQPGoEE+QILShaBFsVMVvINLfe///HjgIBj51bhzh0LCHjy7fWRyVastpRBBReiGmlu715xkV/cWFbntjR1BlxtLzV9889Thc8+evascP+p+Mr3TaWH055cb2o18IPYUhaBRIaSAfMrLcJ7UmbymU/vdz5qz/zmX8/yV75EpyucqTzQdzjt2O0bg5+dUXYwpXqz2ztUXUSSiBaF96vUlhtHNdszVTO64CJZqJETIeFhJNsiOHX0UFnDg94ZVd+d75pahpOZUhoB2heYexwi0LBk1Winn+SoTumKtlbtCKS8gifh1J0V/+eBbibRpLja/7ilVlnPFPgLGe9CeVEZQr2AHbRee7/zanumaj92AYw7eJQwrgVBUdRisVixvxEEQZFNFAnHKD5xUVWqadLWJCfoRRAv8PriEukTsGRN7C5NLJRVRfDCENSK/Mx/8T/w2lob2qCbGStNm3rc0iPPSPIxE4jLPllJWfLa1hu7n99YfvUC4CyzF4ISUSXuTSzdfSldnQLxAq+PVoo6/dKq0sTPZUa/TdZfLasXtYVHjMehi1fGj5VqRgYN0R0JHt6e1OWcrAylYXBckxm7v5z+27l6lZXrZ5QVqiomuuUpehgOwW8NhD4p8u5LFapCPFnIfOAZ42IBk+mGTHeuP04PGUjSL8v5kEhgCQrkqYPjeaZrOnFVhJdt+JuvTX70ksS8kW51gr8nxAv8EsmcJE//e0VMCd2WLMt8K8sWMEndzsiZsYqjZanqDAFrmY2HZIYwOyW5Z/BWmik+eGedhGtFFgS7AmggHq+Jg0ECIRFKCfyibRXU3suLiaQHogtI1ksonHUnqr9OGx/sSU7JFjKWzfYh1Y0VnhHSPKrpG8rfGcdD7GJB0R/owQ81k6vZMBuCn1WYd7i8pfiTfCxaqAWxF4UTGnytTzPaHJIRzloeNYbv4OxNPT6liO09X4cly2L36lF0y7q2vqmbGwQiaF7gpZGQxq6ZVsSHbnuTaNnw6s73xiqmsPaVoBeRln7X0qfI0y89NVUX0f24b5CsWVxOeWXeV/wEb+hd4P8jYYah/3L+Wi/kTWHlyfWjn4g3aUa75exs76W8uUEmiXyY8u67FSrdTg4FWRQUeu+fbtUyzZAuMNu2hOEbtLtjZduQxUKJE/eO5U2cDMmQmpdqvIieLOlGdffv8R0cCbJ4OA0H+nexaTAZArxvmZl/bFJUh/Ksi1hiXL/Q4BjF1J6aDgFtKcaL6vleeH1N678VMQ/wx8xFXDkikcUeNRSwSFBZgEpj5375V3wktCCLSmLcF59ZfHx4CcaLzKCF1+d+VZw5FEkPtKKLu3CUJ078Lj3LnwG1Bdli77qtEm9DHIBSJ4vvW4LxYpgFHbWTpy/vl30RiC5ytPD/xqBsjtl9cwDSBTMhe9eXqp2BVsQhwuJk8aaf4rVU/uOLJIzKGj5ebGoTc7yQRY/W7F0ldOjRyQ5Il2sjmpm5t8f+zLNYEAfx4ogv4vEaEJiXRK0RRR5s/mCx6eJ5DhdxmLB18Y9ODrBgV8OV+5bbhdrxMVmg47L1Il6Tw1lRQtLbX7APU3lyKqca71qOFHZl6Fx6AQ125F0XQRDddLlcglocWmh4vLBnr0E+2+PtfpRBJeiZ6uYRxVBDnGOjZetdMcUGtjf0LlfF8NhbdijSD3E8L46sOmfqpJqpd3t78SKZkzY031XERBopTlgyZXNsf88FEVSZiw6FrIHWOzoO4hRedQ1DionuDRdYb2njkOrmUVB7rwKLFs85K+bJPhwJkcKmhmtmy5tpOF1tRJyFYoxMzBs11Au838KjF9FNn6LWFn+Sb+RZrBZnLNdi9YvMKQvyh8HQFXkKVo/HbvZCnOeHs7oDq453Ffg4/YV5Eu2IvPkW/may1WJx2nrj2tJusuElXhdE9E+e7GvgOTFbCIr6hbb19WvlR5w7G1JF2VmG+xUxJ9Y681aCOVvZPxxOgFpzvaGQ3Zz2OWd+7zxZUcQrDMe1vOGNnxtXjj16HayXOvGbJwYrQd16+kA+PdDefzW+/ldOwPJC5vU64hbZ5ekNehgMXW8o7Doac3Z+u8q8iKqt+x48iCzaJxOvM8b58bDislrtfvTKf6j5YD3bWbMhUSStPzihqN68w743ndDZ9RcFr1yZ/5HN71YG4wdDUZA53+9AI3R52o0wGLpa4/JPLusrp8z17TrC9TNuLdKdUmVuf/q0ffvhw30fxl67qAveJ7Ydu4bYdSCAJLTt0FTz3nBnbGxQGSwm/4NV75csfCK0rYyyo+qn9WuOBXz7sc3fAmxHGpZsnfPNRBSlV/Z3CWDH0LUImd34UDjHI1LgF+LCxMz2q503tLk1tbmphvQ9Zf8Y7zymaT+UaDsvc2FH2bzywe5oT4HjT5ugiqRB3eOH2jZL7EjWJuzGUnJRha+/qSW3i+/7HN83teVeZ1pmZeScpyJQyvsm61nQulwJKSpkPPbKXJt79MjKnHPT2lS+MogpiJIKBOFH2BlBcmV0167Wpk7N9szZ4w3t+mBX93WxVp5kdmzzwttWmSZxXxzXnmTJsBtL3tGmltn1Z3u4v2A7Rr629W4Ffp7PHN9OtmkMR9yg4lwH2Zy1J+cE77X33C1VJYkVd/f4JmN11UgjEIlEEonhKRLSWI0+UeFs/DcKPv0DfjBv+VnOloU/yUScj1dM1zp0V54qnG1bV3gL7a2zycp5Mt2SastVI/5TJi/DfwBFwFZ3X8Li9fov4bjrHk7I9dC6XGk3Y7i4uu618xxHNqRoalazo2x19UoyyVT8twr02O07uUbb9D/2rv2pqfyKTx4duCQkkBAJDGIgQViWECYvAhgegeWhQMgKgRLelBV5FOwUJBBcnVkg7ABxIWuAMg7viICLs2h3dBUsq651d9ixndJOd2e20z+DBJsrdmpbvsn3QpIfLvf8rObGnHPPOZ/zOZ9j0Cz3T6iC3sMME6Rr+xzJy0rzVEdCLUhNcKSt9iAsujP7bSYaWQsdwzcdL5bC//v+/w5dKipuM7Albex66OQDXgu0xQOpPMLnjotRCtrWWoXOwiGQXjZqyU5jcEjAug19faPHUE5k/9ksHVS0o+pJ2OxitEJ6JyPfzyPJCyGpx4duXd++h2WSZ3vbZr6NLJGL21tv1L+zy5O7nK3s2GdlROo6Rka2fjjVE+RslTZacWXt/SIOydWIhkpmilLbTubUfjUnK1ts8d3FpEYRmK4bLO/2SOdFNVnFvYaaa0HBWAZze2GONrPC0DH5NrIgQtgvT/902Vl02QWR9QOpxCT5mBhSEPHqbomTPMPlSwyTV+E4gD5Uskk9Nn4SVaxVTNAxrq8IShql6/NFhW5WWEfInHzjN9LGaMFrTKI6dJ2keHV4HjKy9qOYxqi0/NVpdNGTt4jUdVzMP7b5dJkTGN6XLysfyoOHGhCKI75SlfO9X0qTtffigrElL+3gV4+V4W5d9KLsywfrMIGEVS2LZcv1W51pjJgCMoZUiphYL/7iLLrsYbp6ous6LsbOv9DKB/tdoEpm1hdhlAajkJkxpfLOjuLlMn5iFRZpit90zThK0NQC95WG/qGlTUtSRVcIbEXo+HO+Le2K0aylHDGjkITxSRA244VlueshmB5PlxCp65gYVZ1gbkwET47TGxdGDiFqiVBP+THEI89Otza2p4dh4CBWzd4fvVWZr3bTGiVCEkXkbO5on8BSMhyPyq2+9qDCfMN4uPuQCJtV+TS5C/h59rB4InUdE+OxJjXtVeABlFbanX84TgGFVDimNNaaNQ3x1VjkAIPaZYZecYpbVGopJmvUdJZEGAcPrTysnmiY+7L3E/T20aG+N2Ji6Msb08EYJF3yRRqRuo4DnMERb0nAK5K+wtYlsd9hazRHdRg7njC5KpXosKhtCqJRXKM0NMANJSHLuK7puecLraJblT7RIF1FlbcPL2yP0PK6pdqQXSddV04SARji3wKSBoojwZyFWclms/UIfuDjzxYVySdXi5N1GM4RvcU1jrqIgvAcJaGlLx4eyQgOqlPMrU7KWWo29QiphVoo/rYPWBg6uq7lbyOYPoTz4T1xmdp+Xr4HdPqg7aMvz1J5foy0gdVi18S7d3GNxYbM2qgk01Gii8K2ym9kSRZhJXfs9pCSnlFzr5zld1TVN5I140dFOnheXvb8pohQj8c9nCE6YeiPswG3+0bXlEeXfaCQOKniTkd4Ydj9rZrd1twxso5wwMCfyWrqQEtC6CkbfV92QH30zU0ftDDUAaP6vFAzzCLqQrwbiTGpqTsPomZUP7C8Hx7gho9BmUHinNXPsNzTC5oYNI+MHxY1RPlOI5t34YdbvtU6mfsEc/z90h7VqIKBkIZsSVlAeB/OrUDZkVwNoOzucSekw+5anEXD6x/dP/VFwteGgkXJQq849lAPgPBixd2nJdBHxvb1BgauWgvcJOdBHhvK2gaO5kPKDE0xRF2I86owpslQFgLqu6slt+R+bnMBhOdXakSXMp7ArqT4qhTS9SbWIQbKiCn1xJJUoYI8Mma/iG5DT6alhpLdpXCBMCPWdhZBVXBgXUU2g1jrwreRGdkVfEBVuMeNl3YyeO4MZZNV3LklnRHCKo8Gp2t3NkbyOFi5htQCVvPGS206JE3Xl66tOV17ksVxp/6vf6wRTIe207/7QUkj8EJcY4XMqx0SQFVos1VLVtM4btUqenP4oNs8un3vn3BqAPa4OtlUtjKGhOkxAgrzKi3L7XCD49eoykD9euXHblagQmhta5e6gN+rh6gL8V4Vhs9nfQqgitvD4os73V66UHnq0vm1TNlEC5QcgH2PW6K4UpuQhKHxQkgxyuwpmVAANzgWqNCKUJzkdu1E/5SMrNwQO1EXHtuq8HIFkLP7pGHVEyQdKjtcOXRLoyiBGj/ZdgPp96/faYZvvBC2NepC5kwJFyq0AtN1NVm1HxR5QByHwry6dGYWIJZtp8seRRAnhfBcFdIiOs58BOj5g/kVwx55tyIBoalR01OD2o+qYDH5u0/1eZBkKAqN0dShuT8Lc9PZthvCb5zzmCYpKSmnXhcGCK64fsMHakIfFL9GUSf8dDsOjBbPe6groPBE4xnr9dDARohQVv44QgTDUKcyS/Ubd+MT4YRnWuJrpnrTkjykpo0Upq3MtICkVa9JB8aIOTJ+LcCaUzxRBRogJ3d4bs7pT7OKsy2j92erYBojO7dkJvOGPOWUyxgI4IyPlNcI4QhPISUKzTcZ+WqPneDjFXWfXQRV3apLteNswgdxa6fya3eiwQydSYbn3qwUEqe0aS2zAWoXxLZbRe/RrN9kmJyHAcITKYefS/gCO2S3NTUdNUbzHGZHDZ9f+BQ0RUxUrIhDCTAety0XU7zyIBFYFS54lluKAhuXLTtaOLphcKLu5YrR+dImwouV115RREORCVG5jjuVH4tInux7mGD+i42bm2kMJ8B4vBo15ubnuQInVSHNs7EdUFja/KoeFjaMq6uxOJUbQNiME480PXTXwWqz7QZNfOfotsYKPKvbjs7ohQfPHGzB/IrLLAKMx6uRk7I1gJ/eURVWXGZ4ut9GlWOGf+yDuopgtwuEsvKRcQ4INERMjOatl1ooKOOhquf6Skae2tMHz52xy3bpyz+30QgvxKmZxl/9iQ5ArL3DLEXInLzmZ+iFR5iBMpcvWZhUxhzMUUJoLP3GIBwrI0goyboQlUrzfFG2z4sGPMXvN+XEsj9ejXlu6+8gMNyjWOG773aTVTxc3heZ7noutS9OWhuVchBbg+KILUsNBCvDthtYndtqyYmI4XnBscmMy2eFIDlILdF04RfP8DtpKAPd0vnV2WyGV6YwjuRVanwkbYyGYVQE0rc16zcP4EKh4y2z7Pswl/+GfY/bpfjDD02sUK9cyaKEf5gZeTDAYjs/UUEoaeAWz3D88H8EIGtV8ZnN3nqrUk0p4mGDTAh1MytR93KjmfW/kHxAYV5OuWyRa3Od/eKEsqnhc7Fs75AjfArlX/8OUKraVJdq804RfohTPONxhTAYBMSXJ3itH0A7L/1mX3wLDGUppG55U//fAy+ELIrINkj4LmPLZgtuidzZ0OdzArz13Whtz87QAfm0ZWblKnEID592Ku/CJRXAHVsatpRe/N2pNEbzFxpFF3fPdW0oEC5b9Kx3OK8+pHDxdCY63nIVmntc1e25jiZWgfcOp5IcTdci4Etd7DdEEYgGPlsu2rmVByDmW1frdCnPmw/Dtsp7n8uEca5zlz3se5m58j8seYRnTfjbXM+sy4tgtt2LQsnzaXmKyYsOTQU3Xbu+kZnzMQR3F5fBVRhl7r94sC8HXiseSvHqXWyErB7Xb+xEtgS7ngBzF2vMQ6Wh1LdhmXRi/Xqu67+36ygJ71pGPhaREa/+LydY+gHc6MD2z0ZiievjeDSK6JOsXwBOwXFzP/f6PsQbJbS52ypfiOjiSwyP98fJiInxouNlfJCrjGdDBTnm1o0spne9GaEpHyU/AdSF/NFeFo/wRByaf6z+1798DzTf/Fr+W2+TShFTinz6tMw1pR0deM38i71zj2kqy+P4QEG4FGi5QClKh1aqPKSWCi3IQ0bejSCPWUQRWSDrs/gYFyMVxJEBR5mxlQEElTiKgmQxus46CqLCrkuyiKi7jAzG3TGZh5Ns2D8mm+wf217c3jqJZodzW1B7Drfn97cm3N7zueec3+/7+/46jyaEOLpwuGTezTErSsdUQJCy80xinLetj2GBBWe2BwPQdy95fABrNFiZLFyRViQDl5Altn/rhFh+QEe7T1thGZoUU7NZFcflkdrBHmsa+v1lJYXpbdkONs8f8C/ooiYBGjOfLa2JOF3IxvDOPF6fBNgZKrcft2k+4+XRMEdzK/eBFW3EXu7Xcq8OH5DohuKtKB0bopdeGdDm8CBccDjy4T5QRkN67RuRL4aLhfkMHjhZ+P5klO4CH8pFUP+zAYY15eSx8X+V/hBfaam8ZTR4dTzIvXWY5MLIzBGKRc0g7a7rwpQ6OYaLfeGiULX+zn/6Zel6t+80JN8vjths3TRq+aQ3FS6b+O8/b1T2WyodU8JKWpLY5A1lGbvwlt15Ajjohq5/mofVhWzcuXwjWjIAG4R0bbtIAeuLyl+t1g6WlFnMUVBUsfvoaLSlEyRFSYNiC9Nso9Od/vj9t/ovAcWByUZdHM7FsxAueV0K4C7w3OfJTYgd6E5Z5EraLtfyxWvqueW+SCp8V0mzTr2aD+txHJennwOpzCo/20eK8VpkXXi8q605CGhSTKr/CqZ3CqH3FOyJ2hLcb/0gZXCUO2/vziOz4B2+OCGa5PXTlzyoP8Z2S3h4LbIuxOS+Y0GA04qs6HYTH+LfRniHrUqrjrWsxLWiR6Wq6OG2FXqIWQPCLRWULqTCD9WqKnBGg3XBlfxlAuAHarpna+Bq3ugmL22vsvL16DKrMuhyWCDM9UsoRO0ZgLFJARkLUudhuFh35VKovn0WPgXMELtBfuVOXFI7FF8ZMPUabBlf+ALYVkw43S9de2o36JfuO52N4WIfXKJH3wO+p67OLSLYcJkuXuSG1omgra/FlrIwPdOXD/lJuJLL8ZsowBkh+TCedcI+uOYJPvotqBXCeYEA/mHFRNfw+Jg1SUNwa0qvtoAHfe3SPhq/AXla12zAungWwpX66HNX0E1gMbwy16tpDc/hy7NPGkpl8UNaOKqM/zvhvpu3Y50XMHWEbTTYCNcC5+nhmtp9qlaFAFzvOAWGLds726Sh2Q6ARGFID5G95D5IXVgGScSJ4+3CJQLBRW2K/7MEiU4Is7lG8yyShkaDz+TYeJ6nHoVkAeFW1wn4qQ0dJQ/xNAb2wZUtaAF9Tm1mq2bF5sX1nA1dfuVrRq6eXoEEW7SFXQsIrvIbd7BHDfvgkp8HeTt4rduBjpyU0JPa1pnSFdpRde6qaHkgGquWUEQsAKk4fU7dTOThUScsC06I5undUEDx5f4SdIovdEp+KH5GdLkmbUw+kxgmRmTRmuCqbhACXMMP1S5SYLhYFuYUFgAu58VL3NA5qtB716D1dNEeABs70yRyB1QewUWxqHYtYGSYtOEHDBfrwiNO1wjoPkcMLvPeNT5hNV39+ZHVH2euRqd65FKhqj0E6KARZixAoeqB442G44q9RbLpy7OowfWinDxR2W8VXMWVkYU6NQ8l2QMv8eZ1wMALVxNcWFzIthAX/Gd7pWFO7Fx0OZmmK9/PGrg6Ytp1BUixRfA+vLSxHCiGwXCxLgIzS68EG+cIXCa6cn786Zk1EyiLJxv3Z/LQkuvpJQ+V7igrzXC8cbg+AMLVWYcYXO9w5qn+vdGaoZHfPUgZbkJsGGpg2++PJAE10gI3DJc9wYXeC3fKjhh/Em3tzpWFlgE7w8QLFD9kON4qXMgdVQi9+ui5yWJr7lxJMYU6JCSFr/7Wm79OmjNHcBxv4oXPHbgIPflp9Zb3DNZlC2N7tWjRJS7YPHeSRzjsCy660PWP2GAv6/QZwiDlUB6pR+gBHMiToIYuDBeGCy5bXBNbJUH9Vjcgj5YMaJZ7o/ME/Kb0xjI/DBeGCzm4aLaaldY3dRkNUtmRAUEcOilDj7ANNQdDMVwYLtTgMrE106YTSrpr5OqiED4qjzB3dJw47AoujrfnzFtOqPD1uaUJvk7IwHV4x1IMF4YLMbgI8QrNQMnoDJslqanoBzVHM3kcDBcODBcoHMJSu+tl0pkbQLnHdKYXIFJMpo+FGC4MF2Jw8eWJj0cO+lOGGYdXUmShtgCNche+c2G4XoELEY9lJ9+EzUXOPrOyLXTNV/ZqPZGgC2cLMVwvX3ifCIkXzuGpT9ZUlc/ScVfYRZe7xAg8iGNTepEM17nsCC4GMenCzjoUPDQIbo6uOsZ9loa7RmOArP5iahgC5S5xwb5jWP5kX3B9HQya1Pt0GwKTeukCV2FkktcsNy6DkfI/OPI4Uc6H/iTeB77qccdw2U+IC/aDxKShd2FPEDLft/SktlcZ5Po607l8nM+dkayGXe4ieAmXJ8oxXPYTjuTJoi4AXEtrNNB9C4lAcuWQMkjIuDdNWUojllclp6mhl7t4q7594oPhsp/gXwCKSUPX7dgAHS7HsOHxHkvCjC+++M6P6V8Y/TpiqqF3d7nMT2SACzdLsi88wjbsAKSH39/1p0/jIMPl5Ltqz1hQADNb0WWHMjqYZ6CEBkcWakk91KdxqaDnDFK4zd9ugkE14CdrTIc814bIUu+LWrN1imlXmvKfHHn6UayF3c01SDm4koRqbO2iiPjkmZTCBjX2A1eI5ikALmPQZ/tJMVS2uKTOQucxnWkfG/9x/2CJBbqEoz0Dw2EwvxWEQvTT90Ls/mQ/wZGfTwZ4xVNJH5SqA2GuRj2pbb7H2HlsNAorJ8aH1W3aPzBL5s0Q7lnmBvFgSMwTMQ3xxL6FrAsiW9AHGiHkrnwo0UP808Seh1uVjJ3HNFvxQ8OkPsuEIXOTspHauiZqH8yUIdOEXGxnzUq4GIbfRd/ohjk0yjFOcJG5y4Ru5Y8f1JLeHI63FfYa722BmjJkgkva0I4HMbAPLkUqaGgUFX79pgre0Ci+XHV1pIy5y0TYpRzSmk1oCL2n1pIxlFdwZK8W3pRJE1x/XwOAC48QYidcES0NwqlpZyL7r61VQXvjTvN3njm3JpyxPOwapGzW/mzwRHDVaRYSi4b+rnsDmiYxPLhAhwSDz3U8/I59YR4aBTBfFza0R8C6CBDcgtspVeUGinknKnxpTWi5JEYnNa7cgmaqwQRX+caLeGwr++BCc66N6Q6lLTzr7me00GWsy3l5h6LFHPGjjHRR/ktzSxMgqQwJNwFwJnLHkdI2PV6NbDsW8j68eCMaJIvvE8DpOSECm7YNKPOLLfljnGx7JftHBJLawR4LPhum/5SmzoLzUG51nSC4oJcUcbyN0O98DJprE3o3+TwcWTz/3YhLV2TCGTo7Oek984aUXUJLc7vo9CIUuJYsBsDld6Lx4yY+XoxsC/N0AAqo3A2DcYTycFtVeuyEP8V0wJOW/dKTkK4698YybngGr3xlq2Y5jEHJRPaS+4CSYuhBSL80jrcaDp5HQQbmtLiwCcJMYQ6vbf+vGnwsiJ6ODJyOE/8iDULq2s92MI6eFMrqL0XASGqY/Wm8QN09eSEYLtaFeeI4YDVWQrkJcPQ5usVbfj0rYwwOT52WXBVtpJiEvieOQXEKdfTcC5zDcPevGjlOFrIuGPy+DB33HrZ52/z05NCkabXQ1l+cTxe4ppux4LQ64XjueubymM81KEkNruRy/CaAKH5hChJ2JTje8FqW16UsREn/xA+J6K7vYmzr9/vybCFo9pbHC2EHZWTM4UNIahAKVe2p3VOgdi4RbudiIVxugpYMV5D+aVBVYWPdgJNvAp3MYBYJxnTeBm494jjBQA9zptErv8T2Sg1CIXr0eQDW7doVXArRNw1SwJQQ20s0iCx1Ws01Zv9PN7GZyQAAIABJREFUn4yo/Tvngy5NhHi5ZrCE2dFGKLtyRxVi21wNMU+QApAWPpeubY2owOon1oVLxaLaQyD9U0ZLqm1PK7Qyoz3G3YJT2rHHy7LBZNAJ+cKzSX6WlBqS+TZNajAJNLC0kKVwzV81gI5tirhJM6jMZ0xmBMjqu0WMLcUEt+B/7F1rVFNXGh1IsIQQHhLeBBJAAQmGKAQ0CZoAkoACYgVReVYUhCBSGBArKGVYYhUE5OGSAUQtSlnLOg8RW0TwUR+VdnxXsTNrljrjjH9mzfyZFYJzb4gUlHMS0HvbuZz9G01yc3bO2fvb33ci9OUSg3aGXlCS2n4CC2jkZJxE0UIqgrntlCQFlH8a8iXVxGJ5iy7pSWaYemj1EvRd0Z14ehP1HUfXy0LIHHINqSGrO1LTylC0kIJwS2hXAabFWyfmxpE5XA0jRdrqhbBkBp6EP6Tf6dP2guVBLcPktanddmTO1IDUkFG0kKpg1UfUAq4HUG+KLLIgb/0xmMoLoTuD9Ny3ZVA3sfECvZahQ/rNu1EkztSA1JDt02sjULSQiqC5ykoBVWTNZkkfj0kat7ghsvVHO9R66r8G3RSptQyhsfqRUX4bPlODtIMhk1cIqiH74CcEGlqK1ANkRM1o/pFyEWlePLbbdKdC+aBxNDi5xKiJ3dECZapGnZLZ8rqPmYTHDKshu4dVoPQTJckl5DQApmioXRQNHFuSvnW6WdTdm+kOespTBmdu8YJZ6FnoGdO6OLV/q5hL2mOer3ABubJklzwQSPrWnUTlPcBYDmlePMNSWRLQxh+FehCBVwzvFqFHS7focUcc/B4UigTk1JIZZuHAMpfDvmEU0KAmmNsKJSkaoBdPDrnwym9LZgqsNmVvjicKDY8EWnnPK4T6+pjscj/WXkbOKENGDDDDSe7pG4FMGIUAbSzr+NxscpQ2V7y1P7UYWj3W1n2nE2Y36szuD0xPhsmunK4/VZMjuyBOvCZFcnUbEy1EKgL2tfttvEDKXQwsgajwAXSX0WRtWN04vcTSWA7K3B52t5B88cWtpFS7IE68tuJhhBYiJUUX+MCi6Uj9JxnRAZplWfsxd6jgcvE7g+kjq+l9MmZCBLxwNoLJrlOkTJCHdHORXatHIJFcEKnN7nkhIr4UxLCZGzG/CxoGxFNPWzu5092UnXhbVm/IApsamOzCJ8gT3zmpz4lHrZIUJRfuxQMbjRpImK7G7cy+uBgWY1dbyxcf2mFhM+13YiUQ9UFNDY1meWbLDgvCL+5i2HJOICd+NpIL/KPqkzgoW0C0V80SLMNtPVjvcErmpPmf0+Ht3n54zN56beAVX8JlFyPGF3T2Vrso5iMnnqqAyAG138YVRKcLDRBcbMXgruYZWeb4BQ3wBjG8NP2XRUQPrIG4RsiJpzJgRpa8Km0lsTNqMMFVrUdweebVpe2eoeugt7UZl10fFSmZtJ/rGWs2S07zkBNPUcCaIYLOd0cR2yNrJNYnuJK9vj3p62o1008XjQ/l8ITJrpTg9bIlXEKfMex0QG7vAQK5oguiBxzPPvEnNF3Iill0SgUXXObn1yfNwMwYNzW8/S9XQcdJWa/9Tfc8QkdqMAowXcsfRU787CMXzMlyD8sWEHhiYlg2HwiACq5X2jGD79CRzzCq33soA1ZLVnsePpjGcyLyY5pxhtrAj9gXOfGUJRfELlzzsrZabEXcS3PnVn8TvFwDE1x7Dr7jrT+0mlh9TZjs70IvJNgQt8Jp3tmge93VLooTpLUeIJAOsCAYUXupGpXEyRFjV7v+QDlsUzH9PPXku452pznxtkBll1rdkXHuuJi4CBKrs7o23R6ZhbMQMLswJ+MScYOJ6La7b99Mhwkue3nGob31E+Q+A4oPpvZe6ALRpTMesNtPkj8/U0hgDEo7qASZhbMRdHCnv9px3XrCHA1GjbLoozY25E7xVwPBf76gXMXScYduzBQK5wAhFAqdmG5crpubDZNpybThGluxWCw6nUGzCUkqXwy9jjw/PqBkJVGz1hhMaaFkAJmFs1J0xXB6Qc3IyQtLs4nysozF2cPB8OtMNm1/cXyuwNbWDEeMqwVPxLELt5sanHCOKGqbMjZWqVxZxpPymucu6ewUi129BXPmWFR8r3qZBZ2RndkiW0JQDApTtU2VfBTbnZXkKhA1gYxiAn9YabaLCqv0TABNTz2363o4p8JXi7iia3/97DX+9embuPes/Ou7jY3t7Wlffn/q9NXbJRER1RH7k463hnNaV7xQLfwdfID8t93+BPnxdEGrs4nLCCBZGFaBkoWUdjSAk4kwSXDtfUsC3RlvlbIkID4funGp1/73wYe9zg0n5uMYyo18+Pzpb3X4+G08PfJYckalerC96oulDx/eOViLIze019m5N7TuP7fg95d7Hj64RWprRcOE2/te61b1Ecderpn61T3XfTMvGo2ynpWOxns0sybpJjMz1+bqlszlcG6pk4PS9/zdRAf3xE2b811MwXBwZKfIi4u95HLzAfMUuYdfenpeXuIGd3cTdxM/L7ae12J/V7qLJ44RCi0ta7hWdBrQH5m+n6FsBPkZr9g9/YucELko7mhYE1WGmcQpnW6y41RklzwLhDf2j/mFPj+Rx1qtGdXz5yMj2gqCRqN+NaK2X4PBR/sfJNuPjIzo+bcd54cb99v5+y/bXZZQ7yrAacZ0Y9Hwt/+ufsYfgH6GvOrLlTZoCVJYdJnZNQCut3mHVr4JpJrAKVw3Pfs0rCEsty64+Cs1sRiZ1l9by7tUg70/Dn99Mm1XRNxxjr9oEQ9jWcwcoRPTiD5zjuF+RhcfdPH0xhUhyCykMD4QzhuuBHhpM3Cz3iaVllP37w07Y5zCddPH8dgZzyPIepqrn2jYD3jtcVes68lIravNDWtoKO8+3R4haw3niLZZuMaYCYVMYy3Hpkkyuvd10NxVtemN0L3ILKT0zmUpLczIAY5POWCwXTjOqomkunIP36ciJc+fxk/UTdbqXyKsTR082TkdxYcTb5jsq3wsUdWW9jo/K79WFFeBcYyHc2ycZAZL2iUrVoPG8WdVfuKPwk+UBjRBENhtiF2oo9UYq8LtZNjp7978MVLti5/EKb266WfGq9dSD/dHvPwS3U32PZZEaneywqI4X1+7MZIZTrGa5tt35MAETPduJiIXlcES7w/IA2wl+TufiKIZeg+BBbrNaoxVzqX46W8CqX75nAJNX8NZlp+yCeOY4gjGsaETQ/fuXyuS6ShmawDFLKMuPQbkhkfk2xtXuqEFSGXQBHbAgfGYKpABVIFut9IpK4xWV4Z1rPq/J9UbBQkNdl40dcnfjHMsvu25JLLUuQU/K/pO2sVAdhGnZZ0j0M+IqEd+BrUdjYJlv+9hQ0SX0ZS80u1W4Ziy6mvqLcVOgG2vWUUNUk3JMR3JtPtY2Iny0+O7WAHOsLcr0HRXWegNoBeL/AzKA89opABF1+VJomsir7S7lVZZVSrGaEVJVk1Fsp8oNraLybQMMxNaurFok4rCxiErNnoA/Ax+1znomRuBAuDGltR5gALjO398vQAm8+p0+ZB2t9IqK76DzyygFYxivdpNbJ40QSwosHSzGmeYW/MPVQA/QzOw+LIU+RlUdzQWJA0uBJdi8GD8G7zCT4FHFFQ+BE6XYlqGNQwXtu+3E0kTOrFTohF2SvwVw2lZdzAbUNArrmuP5aLlR/FKlxnnSSUfLLoSCmqidby62jTOq9m3W0Eo5uPAxxgWX5mhGuxt6muvbhWV4VZHDVOcFGri8Grq6OSe2moxCy0/ipOLKe1bunkUNH7pfitPKoqbuF8hXgE2sawcrzxFz1JVQO/Fu0VJrSJp2bK0gx6AQL6DImyrAN2GTHUYgUWX5quXkY/S+g59iHhlYMrDgb8cZ9gXkaVDV66l/fuzHtB0HHZPkygakYvqoC+QlR72AQTNgxSpKknXBsQrQ6HB9jAHtjl2SjwiuXPn+S1Q1CtlaR/PEi0+yp8LY8IbzjqC1gq/Qz7AN0W8mn5SMSvHw2MAGKO8pSpJQH4G9WEZ1X00CPhDrIGNFkTQs4uB4JM4uH8B8jNmQaVLuWW7HFGBVDiu+8QfDdudDY5GyK+BfREIxCDnfN/uVajFn/J+hlGB8m/HFiJykYqOqh94BShZSG1mGTMFIbzrj/7hhdY7qfhj6qNwC1sbYzo6GlLTJaQbr/K2kLYeuPo/9s4sqok0i+OTAC2QjbCH1hAggYBJwABJWBIEQggiYZAIUcIiEWw2xekRZxRkaWQ7IAoiohylg8oqrSOLg7jQcvC0bXc7jstoj8uLx3M8zts89BwCTlVYpU0BUqGCp74XHuqlUtSv7v/+v/vd++8fpcOr0zCYtFtWoecyrHh0v5yxR8Qk0QgoX5+dGMTJqERhpqT355jA07kGydbUMQ9dzdToGRksYGUAi5VBt5932d3dPdZuTDOm3UIwPPbs1Iq98qtPb5yLjPeQ0SxQvj4rMUh04m2R9OQr/avYeBbZEFGaOqCoY52tUpSVnR4YGCgDV2e/9IOrzs53Odty2S5uIep0vjWFMsOeu7YaCflIp7EbDuEI7inFt1uCgzYHmOOwxqi9serXGi1ZoBgskW/y72cnU2INQFSR56MU9/XXVdqj9a4z63zDl3PWo9clJSVDjc9v3QL+3HrxYs6lhvP/cH358tDuY8q6J3srfQcHyk4rpJPwOSc0uSXzrYFIl4T0T34/ZmqtTq1Kywkd2lXtVSjyJGFRg2N151nTZN2JCSxL2AmQNTaGeJMzMp+9Le7sDEpaiFy/+eZ1yXWwKczMKv1w9IIXg8HjBQXxJpfXunWzF0vXr8/MykqsDi9o2XHpafvQrZLXrlroXH9+2frjv34dGOisMknlG0C8jqVnp5oInnx//KHEVkj0xGHQasPVm2jJ/Jy0ZPkr2Ol/0h7iQr59IDnkqzq5+FHJiGTLHIjCbKfbmc2ueUODNvxZu8C/G+bOFwKnongyqdQAP8v4zSedingMBmMdCB8A3ZYjD0ZHh4aeN//9aKfaDukfr+0RbM93ayrrimkerTkjJJrTCKg8XI2JVhTTMih8kiwgZBlMseBGQWjLDx+gNI3PdCNOXePu5q75V42MjQlYmqOjIw5HAtnTNqk3N2fWRzhFcoN4Xj/senkw2xB+PthrGxSIisCYO6M3ePFUB0eUr1WWaIGue2bNRVWglqwV8ycWll4Zzj4FTh4fRQkmKWw2hz1jC0cciQSEOg9hS2sCfeGw6r5Cu+uxlGR2VaBP94EsbjyVREPtjVWVaGVKRvKVaXfx+k6zPuhF5tz00/AEpF9CdjvcwzUnrDFbOTdaC5tFdNBCI8LGJ4ZTzya826m2puu9TbBGyxeeM1gnbj+QVQSkX1jUnl8FQUubaJ3al6/073cZXjuuP7LmtG0xkZZpu2iKd7/9L38cWhRurwiwQODBYNuytgsg5xhN8P/31if02KaUXxVSsBMP3tp+BjGNXvgav5Z9QZpWJ+44Zbun3sYR3V429KAFJFrl+85PJlp2Y+MaPWMlLfMFqWpoHJFsySw9U3P1t5/GoUWhJL4WiZfIrDZ+v08c1DzXia2/Pf9PdWLN/cevtS3vuwTSu8U71XyKqXusfrbKgPTLjp59oco3ZvvDcF4ElYS6hwZLljHNRgTIwXY9JlrzmoztFjdsB12/0kl/ItqPd79SPQ4pCq9zbZDZ3zG24fYedoNSe+quZ2GWAcTCIEZYWGmW5PqthtBDmyoF/SZ337kMs+yBdOy9Xqo3KPjUzi5V+4ksoZ85Wh1loO4gNZ5X/h2QaCXoI9H6PVbgsIIpqsxtNuAwRmaYgHON3vyFRCFSPZ2xARXQwnBY0FhRb4WxcgD7djOJe4LWVSTW7Oh+0RB6rM7/FymHHWJNnzI8YBYEZFZfwmCdawfoHpKwaPgyrKBFcLTxE54ruOITqIA/0dJ2E5sSgfOxmh5PAH5vzUhOl+rYELUQlASfGmRE4YwwdIYYzUxm5+xwIgGvNmg2GmNwDuZMD+LJSC/biiMFI8/Fu5WVA1UJLn2AToRfFUzYZ19QdPl0t2QJ62WoOjQgtCxw1AheeEfzpsEmPMyJ1jRX0k5fEKvG67/DavY+aJblof0Q84jJWyt7kBKFU8IQ2jG07g+tFmHmmPpGBIwjaUM008NSyFu/5carmy8OKfd+2+/8zi07w5Q8NgFv+kVRcwR1zaPlXGK0FaoODQMtjKzN6UzBTVWKgp1tCusRjzHTWa6ujtToxkq7CEyvbn+og2Ibv2oObsMg+KiwbQsIwz7fdl70PPrXmBkBjOFk5sz6k9ywYMmO7nzxsZy0MpNil3SWqTYPg+tjBrqHihR5zylGBKoODQEtmswvMvHBnaODnBAWrGoliZW+8+7BGa4WnFFlFHWyJabYXgMlCgs245B8Zcxwmw/4OFN0/2Y6p/VABO6jG7rghrQVKZoq2lzEyDrS0t4ceqjOt9PZBcjDYuE6YAaGL1ZfnLfPFVAdOtDQ6IUwWiJueMehfwJBy35CA2OmNZzKAfIr+SxXsoVGv2HrE+908jU6b8Fua0pPUDSyleAEc25v5dZYDURw3V4BEVzB8RRWJBkzIELIKP3rgZGrocpKgbRJzYLPqNeM05OLBTmuo0e4IhkGxQtZtB6rAs8CQUujgTHT0vCll1XHR/cHz+FqoYQGeG9Tttrp/ijzD7om+tEQfmTYtuBmAUSNIdnlcu9CaSGgEy1oJJmnh6UTD1CJFxtau6R8WB0kU76Lokv1XR6PaINGL+TQKr+t8k5Q02GvIEh9++wNAwBrUVzNWnG6FZfGvvjorkIS0q+KUVThiZgmiBpDSpxKYmm18G2arTEjAIRRRSe5Z049e8u5BvPeF6AOfVU9eUD0QvFCCK2LKm8Ofi381QNJ7x69ifiidgn9VLAeWccFyZBeQbcXE/m2mAQmox0iwI6NJX/buJ5qsdj/gjG2luQZ8SZ/YBjm/WVAHeITvFUXUbyQQks+iRb8JU7kYvnSGsQay4oePLngrruOzvqguJxIM4BHR/OrdoVKDU1T6044kZaSGhK+8Ho8OAx78cb4+Fo8x1t+sRzF63NCC1g7lTUii6W8ssQ8eRVL9xbptdyjk/uziC9j0h5oUxP4DFQvKTc08rTNV9Dh/x9oULxWKVqTfVt0Cspk/xFh1BI+3p6Mm95qCHmK976yjmkYvdKBe+327dP93OxCUnqCzJcQurCivNZUvZxQQfFaYbSwMKA1eZpoY8hf/qYzr+/Pz2Qu+gUzwmm3uCagSh/yLA3l7XAkVot/gSgkoYNFWlaLvlmz2sKn99QQEpu8jGJEFK8VRAsDoJW3PLQ0U+dg+9P23tumq4FhLFspIS66wnbS4NadxySxcy4JHQyl4kBbApkKUcuSPng8c9Gexh+Mo8OudupklZ/6rnhZjYFQvFYKLQc/bnm7apm5FkiWwl+Z3/70+WUdAxk0gC7sWbQuNLKJ7IDcmk1figOn/2VBXd+YhtetYcFvweI9DQygCnN1WTnDJk92y5XLa2mH4rUCaFmQ2iLDe+T+CctBi6wlK+ZFr6S0qOiNuIoCgy50tMxTxUEUFWXEqSRL0Fn6f5JWlhI51LlJ635xuWixRZA44atAXaTauVx+9ia4ZmSqGav78nIv1e1wrsgG7QegB5fLironsUPu64xfO/EpaM3pOnR+H9jVyzPKM7IjMFmHWlmCLiQwvYa8IQIB2eVwL5LF8B8JtTJux2GoULsET8OYaZuv0FX+RKkSV/+RCp5g7f0yJrAsN8Q66dPi1zRej8O5AbVoM1GY0aJFx2decu2S4umfGLUmrvHdOAPT/fI8wX7KGNF+JTtWpy7ctzhdaBRV2HI099r4p9brIbEw0FVQ75MW72nQLAtiIB7idaEDYWoAxqv81nuCYiB+fRJf0+JwNCveHC05hPNLi5EReTWNdQfdKJ8o3MmsPo4g5/vGhzdsnbRkTX50M/MV/2fv2p+azM7wJGAhJiQQEi4pQkIiICaBzQUIEEIIhkQkkTVcGi7hMigqKehUdFEW3FnlMqwgsBQoY+Uid5GOsmVcaquibqdOdVynjNPZjjv+2P4HySfNF3FKgXP4viTTTWe+7w9gwjnnPed5n/d5nxeIC4sx4kLyVNnILFhbty4QjzcDlOY/3YKi9OaQYN0DnAa1dSY1E/j8H9bS0b/iS6Y64utQ25t+2dxsw5hr+NAZXoVXzFpVBtFO6blni9qnevBYdl/Ecs1UL9SRZ12dq145UZbUotjsUZ6nPJfqLi6kcFpnOmB6oqwdeqR+8i8gYf+0PCvUfU7DN+HGrU5QBdmBCic+XlCO+DIqWhIfvDaPO+Iri3XAhVksjvA6GZsim26U9FEJbOiRW5Zs1Jd9Vy0VHy93YTeckdWZmm9+fS1Jn8bu/q/pGmS61m1cSFK0mXQQNoP1IrtLQfa6VeVmdGVfZEGbktuw6DTI9K/y+aAgzZROt/5Hq0zxIQcbFfUhw29/GH8++y9LuM2VToagzCFp9R31ESMxx8EDd2xen6pppKOQFuFCQQuJeMgvTs1/9vSrkHqFcZsxngdwoa9BtSCH0tq9i/ikev8jNMDgVfbAil2xFQsq9u7gi+p8/AGIYfJw81HulpsSHe15qO2luTRVx092SUvvwIYdI81JCgYx5svNZ4sbV1+2KqstOOsCj3EsnFZSUxpz5yODsf3P50GOBiZcSOku0spK3iH/LyWuzRznobuQYte6INrUuLvSGEWFwOtJoMtWR27VfPn5kqjGjPqD2nsaa4oYhYf4seHZgtrx6S5eZDCReblzAhj0/TefVZRk4pSuOd0mLaLi9OrH509tcIM7g5rzpXxwHXlVuRsRQU47ba6BuFKER3tXiWvTtcBlDsOKXQhNevvHXXNFMn0YxBXabHX35yWGHf53Cvp+MXPVN+8+OjNbZQlHcLeQB9WJ5ZrFg0wDUfRyff/jeF3z+bMF4bi7Fb6tm+yU5j/7LkfFjMsDo3PfyPZsnQBcR/4yAX66KIbcpzCjzdDYCi8rcW0CBYbce7/jA387EvaL61r9bj5wEErIbrtgPaGPAiycL4kTr09qqzSXSqOXhMdwO3YJsl70/lqbSxS9XCYJM/ZXauSXk3FzhOFjqMO/Aw7yFAYSbPX9OJLp0ToYLoTXp0j0xmqo1OFiTFkf2UvXFzUJrc0EZ6yZKT/s5mAKS1rtYdGaMkhTnE9AMLuv5aD2sWmuWPQw4j0+8nDdxqoaNc2c1hOKDVeeLfLeI+r5notLYXZ8eLCcVaCTy243TygxzM6I0g9YC0A3r0U+LeHAYtN3r2oBps3wr+qprGd46+ZTqPqmcfE7iLLkzB8kBh84KgTSrTZ78v0VlYEC32MHPJS0vRpxuiTjdtqg6TqWtbnxROaFG7QEp6maRp4PsULx0LUIEmFpqF3T3GtMKopjYBhqHZBWZtoDCl9Boeka7N1B0xaZOAIBpy01XtPFtePdYEyali/B/DRMw8woF1GhzcYHo8JN8JBr6OOdapqunussYJXbcHHziHAypfrVaSYnkIgXPJdqIOfoxD9ltQU4G1zLaeKa8eUT6tYMNheT/wXFoJq/Xwfa0awrr1uoFCjhNmoBJ+OOw+k9XVw7gWJuBtwi2LLL5QAtZQh0GjUWqwSfQOdkmpnstdoGCy4/FMR2wPLbtbsPeHFc4vHCfqVGRSrPL3dE4yMJQ8OzolNlt4cTB+M5mCuMKC7kA1Omq/37jMB988lrgZaKQgs6ZiRsb952CkdZaeWDa/P+DT0nBiG3C4mpLQVXkGumJQZMN4uf4/lStKoH+selJTQBgiv7EopqNJWJCkKwgYPJOPTaNHrhLK5HK9nphNyoYiYEB2A/0QHxajBfWH5Z1gbGhaioECxysNuSZ0fUU96NWMjxE8swf+vklBEIp+F49qdrHgIryL3NRVjlyn4UEiN+MHF4ulpemCXEwRwiSPnYi57Vdr2BqChj+gINR8rmezppeNROQcmiWmv2TJuEzibhusR8OJLH4ELVUseb+m4wDQ8TFSLfNvTcbMnzbrziF6xvlkE4jWP8M5AWarIip7oElHKiqDASR77pExBsZKoaFz5/rssS4uKHk4cqzFplHKHlxbDI3Die1lzRwMITWixR7eH+gXalAr9cmlvU3DsJ2kxWynIiCBeSMmCiQgShSVe8mc3AwmnYbUKdpksBeH/8qLyn6TTQM1M3Oi/B6WzgS2Jn5Ha9zO4oLmDhSQgEsfc/r0zs6ybert3SgOCp/ZWa0VgBntDip/SaB04diWS4UPNw4EINFBdmkEE0/GOIqBAR6kyNzCivX284p4HYluQLKkAV3DfhxjMgnWHjWwf0XNyxzuX0KbvexqzNTuIJr3LaNz3z7UcZAUT8wNMt5unV/Bdj5bhCy2qunBiM7HZpphMUFyJjz9/wdpRAOWn4EgEwuA7w12ZaDR5EKuhAuo+fJ4ECR7lo5R+AWUENAxhPVBAPlD4JdNnt8S4cdgqZM6VUL5p7Z0V4wot1uWP52qCRKCjD0i1O0WdPOsTJOENr0RFa1AAX+xG5RU1AXIgIL176ckdp/AYND6xlHx9dbo/3iDYDnd0TRTX86pOfbXyffJhj5OeZ/suAD5wGkEOwjILo+DzlHbD0ySK918pw6RdSyIy0lvYBs9XxemHOvdYFk9JbzUlTUQRrCFpWUgIvxywXYazVI7bQTaFFcf10nY4BopsgUWkzk4ubhkcixDJPCHYplEAugx3XV8RTJe7bty/E8R0KcU7g28s2cPB42UM5jfGhMIi9NYCOhxa5jolKm5iuWhv4BVIjWybQ8IrFLtvwz5odP3eDTiRegJMUFa+6mT1aEIa1ziHkz7odWqiNn3JmjmYD9/tJOJSdaPgYSK8hKilXuSvY9fMldRvT9K37268N3Fn5YuTnG9/XX6xqPz14MFGCtlVHBbgLPVFOQ2pBcNPx0CJXePGLpDAxAAAgAElEQVSliTjX/39KgCO82hdjOnRZAqxl5dA68fcraiYRXTtTGYqQe/kXaeWY+g8QRLCkOzMy4G5oOXOH4fHLgCQPEezRqNMCt/1WtLc/NhRipmbC7k0GREcJdN6+awML/Zrr1tTfF+t0ez58ut+kH/7lX2/944+vtDda9fEcrq97ABFVH0efxEvHQ4tcNpp8RpnnzrY4wiueVzZjSi8ce4e1N1YgSn/yGZNKRNf21eym//lvfymswwiz39GiKzQv2+vdDi0HxDMmLqcAX6HYtcojwdvyNEUOrLc/KPbKOQnbrbPFNSh4N4bf9j+y1lyNroq1sARh/htfBDqoOVr3zd/n8r9ebWrPZcZR3Urk0Tnk4L4ZJx3flrENGkOLXEFV+cN0NzNO1KeytetOdarYgnHSNRJxQd5fxqQSBa/tsfXpyvcNQizPFoKUHy9JNS20KdOonpj63t1SeSYLJBll1d7dVuryYUsgvf2YmjXgeJDLzlDlnLuUnz47FFt30j/Ublvf5NT0HrEF+YcJWLSqzppezULTKd4Uxx23sY055HYgHV+xsO2qgBe5hFcvhSS4zS1QyByFpHFBNlqFjdmw28PQ6CoiKPmtscX87E9zIiwA244gQv6o7HajRMHxDPUaONX1qASU0vsPyRq3GsxwHUAKTMMjEeLr54tcxv4+5Lw45o85t6vTi0U0YTncxyCTr5OWjsy0SRRuuI1Ruouarg+B1f3Ojv8tIBfW329/v3Tldb0n3OQcDzhdNXy3B6OnniO6+KmXHgzuJSj5LbH15N/sXftPU2kanpZu5EC59IJAg6VQsIgUSC+03OTmABUo1inUFJVSwi4IBp0ElDsmIuAgEGEAWWIQL4CIYoCJEdRR10yUZWejk1F/0+yvs5vNJvvDpqdlzykzjDp+X/sd25JJPf8Ah9PvfZ/vfd/ned6U1RC7atclZu6L29lpJPHdQX9dnTCvVIASN5Mcdb17sLwSpiAyLjMzafaNF9V3YxQkhx0+PvtQ+pRpy16ddOAxRZC2cdq6TjLVUA0vhteb61KmBYf8Q+9zcGlssOsTvhRbnuMgxyuGwIv9edn27lzmP+yquzyLLv6tJY//yTb0vdg6EWSPmidQcVSqne7SBTjw+3FU40BqPDnqerfxhXF0MBmXmUj0ObsoHi0GvTB/37PvDlTEMkMsdi4GYZH7g7U3ctonKd+HBLvIAsoChOKn2nvv9mcwnqROChq94wrlcqSXoyZODEFUG+ljbqeRyqFFpfZ1ZHTolk9htRFbg3L7Yiu4qKl/ub49muPIaSGUAsV6f2TjExcPk3GZmfIbdmotfvsivMS0Fv2t0+IHSLsmzBHMcLl2+uBIHEX1GKaWPJJPAItIC2lW8060+E82QHZPCI+MqziOOx4+BZN5nVNapajKrpZ8+hnNq/jJT+tQ1j+et92xxUovMWz/U7yjXX8wXt4NKZBu8aCCuBQx3gKu/BbNUXADKzhXS3H7MSaIqu2ZulQp/BLVsMVMhFdux9h4JFVhE8lCBpuB/KaKxLzbnnVkAtywzVV2yiQRylD1rrRsfUexXeC1VhPev7AtWfApstZj67F9sfVlUaXsLz1tUaGObrYK2I0HxCzQyQpv7Zn89Zrnwz91u7IGYvjUPZ1HCbgY3r7xZVmGWOIEoTvRms3BRUrNjQwVtWKeSC/TBhHMrEZf/Vb/kxG3Tf9n4PSCmbTQ7uBVfxhNratekNkHXmvc2P67CVH+n2IL6/O1s95ipYd3jzWmDTih08qIOjwG2oODr4m652o3RpNbvEeG9oh3QA2fqOw0weheKtKQJ5Py6u4vamINY42S5FAq0UUbOJi1nwub3N18K2XQfEc1P4G+wY6jl0Z9Hb7VhdGXLDlOgpc9JvPccE1ZaoDb8wwxQWL1tzOrdsRWRJFSVtelcgrzGStInZ4B1hzca/qdG1MbenJ1sxLMLD5kPDdExfAJE0TnrRvyrFENLpz4RJWyhcOU+HWYX9gPK1dZEM5J+a/teALn7gKdikkR3DYnbJ7A6AG66mmZ8mqMHT1lxfetZ0f83H2aLEjeer9bHGIjtnA8UBFr0B+XTHo7Z0BI862XnQfVUSzjgbO/tDQ8eO3THUD9MW4qvTO8k4/+jgR+b32NbsjzW3AvfnG/gRJHgR79RE/cdkG/g6VU+mjDO94nOSNrP/BVRcfKRvqc8SOR4JWtv1X8wI7Ki1l5pVNV4N5NDf+ohLsrRyNsle+WoMxrmkcZOqc5QHoUxg9WKsAtjam0nykKNvTHIbGys3vR2fBEbFVfXylGde3+EMKIDbcpcRSwdXY8qB2PB8XKNrzjOfllR04Abxh/0H6Ajekg8FLruojKS2g7B7EyK5p73JtnyFCnlmlKbON8lVh6ZTxh0onexZz8oRcngCFTou0c8N/oWcPmx9KpBPQJj3XONyOOMX90bBHvKkpqvtfmhT5n8ymMnJKC2/F46ca/xiAzEReSiT6kI3BQEuREE5WX4bxtxZ9nUdJgA9uN3a6xAlV2VpPClpdWoKKke7i3LU7gxMEgbNSFWxYN02HWLCjY1QmbtkaEl9ejt+HXZxGrqI7OYI7Clcb2KPToEvjWQ0DZQkDXqM7aLKFBZASmQOEe6kouuyqv/Ay7tOqeQvlgBjvUXbEL47Abxi5O2Doth5hNmrtdbOfSMT14eXXAURcec3rM2tIggQvKE5LXoTsVErF10N4Zun0chcqHryWFyDczBmlnJYKUkz9rkj3UEvCn+lgllz0Ti8T4IdJlxVbnJ+iEYflJNN1Ng0sw2TUsL4LXGWZLkOgieSV0tiM4jT2qMbLAwtpsMh2TwAXxrw7O1ebYs47xA7jluNgiwKP0dPlQmBr5hNPgClBPY//4iPeWz+gDvdpiYNUzkfKRSi7beVAQlZqjN5zk2mLxhgif1+W5aUPeJyrhbrc4yJbc2GjQ54TFOZ3Nwojb2nw6BpS1yZaGGiOAa1YK1FlYLXbbUcsND46jY8uErz1oyspWIXeiMb8wqFmNonLsMt8H8w77YWYRlGBIEYEvzdknh6frut7/DROel3FLVbEsW+WWTQ3Mr3ZcU1IFaxTiJlZp7sr1DB3P+QodrK+WODOAG585pKS8M5FG21WvhQCXdX6MeA0h53z3DVcdGVtkmDOVzTk65GPlz7+sh5BPWMIjQ7UF9KgLzftjcKApwHxkodPnSx7E1bCsVSnytEFtTq9sbmBz3C+6sFDf3t1NCjiwL4kqHr7+3Ncl2lL6ZI8WpOrCzcyUm2G8AChwHTKem6tFtdilR2+73mFzzof87BBJ9b1s1Kv0lj5Vi+akJ4R98t2+/3r9u7Ff+AWwnXFkXOUCt0aMxk8dbZYKbSQllkg+fDjZ/couf/7O4aTFQJvSt+x2vms6PuTCk4sgVZe1Th/YmwMGLtyUTmF+7FMoedV/Mtjs4Niy9srmL0+i1n+MuPj5CjDhP1B47O9v/rPz8R3gsDn4DDW7QvRfyz8gv1cvX7WRloLEt6Ylancru0gzynNG2GK7X0TbLtt7K9jbuEcMTskHWtJOQYDLEnT+EvL8GPMbaZHlck1OeILEHVORyHbaNjaOxeS2DjXMXQKBG26ekE+n8lwjpWL4keJ1OHFuvezSudnFEAtl55A2yriN2HKlmQ+MvUt6rA3+8xVYDE8OWWcTECl1mIB9cHtlujNiC7cEn9eUhaGS0z0CrLsyQaps80TKV/Nf3QGqJJdiydLUVfnZm53x+OUJ4NRx/SlV6qvdrB/vwz+1LGXaNBtpcKUNnZW9CzpY5qXzK60HIDYuIbGyUdThKT1667I8k2VyzqNoyspBHqKSJEswdFmWjEkvUlaBA9yaO7MJAS77xayGYS+FcBXKjqu3Xue51cUQ86ud23N0yQKNLdKEzqUWj/TEzvLYJRzUjf/pf7kTLIhxxo00xPkxg5f6bMUYhDspuEyZUqII9EeEb3XazSSwsRXOFD4VApMiuZNrr8CFx4hDRNdzG5TMmFxttlt1DGkDPbubIJdCHA9ZdXlsfcYIiFy+A+5E1zC5IWChPQUbUBq7XnuGa3JWcOFLxnNzYTxk6LpXXgIhxlYdAiNFxJndl/muBAkPDvtCnUwJA3+zqfTi8Cm++7itkb5/f4UY1hK4tTrzbYPLjb9DdS17xEB3TBj1z8yUL6AaZzAKIx9Br8YfTTPkfp/Vg+rChKkl/0pZpCIqw4mPcDPVz7X5MDRa0nhFCS1bPckRiZ/bQJeAXV8eDpMNBF2VP97nelN9H/5lfROl3h1pnIFYyWN9Vo2H2eTER0TaeSJCCS2xt/UMlY+wPml3ce8Ao3u1nb1UXGWB4D+3aXePy9osm/0w4iLnK/5ohskFDLcbNsNS37u27JiIwj0tUDSDTHzyj64eVNY47VJIPmtUWPoYUQnCSFAQPoR0iqrt1cecJi/J9HMhbN4VKDIs5KndA7qwUJIHsAT5GIsV+s0x1KdP9rSGh6CDCfebrw+iApdf2LNb4h0mpz7WbSuFyKSR6mElhfkAy7jObnb5jxZ94ceXUENZci8GNUOu3yFwbYOn7HTl7k7dpqzq9lBLpirQz1Vg0bE51GKDXAt2jWtycnBZBwSo0NWnaoSRoIBtudP6nXEem5Gs2U9+fCmOAJ8o8wR1K8nf2UMClxGsdVtT5MpaanmbM5kIZRPvhggnuIm7f3sGIoMN8x4pOwKk6Dmsp0GOtlEnBCQJahbiego6wZndz2o3hYLO4Pg+WZ5ZBesrSBFrp1tUXR5eCfOQhrcp4mT/q7zCTWqdMqK26pWoePJ/9q78q6kzDUMCwiWBIHsCgUAQUNmFECBhCSApKggiUPZdKFKWEbSMCDIKyomAoFawxwWrbFLhuBfHjstM0dPTsRyXMzpUTzvTn+bMP5CEM7ngD+10vpt7vxPu/Xqd7w/Icu/3bs/7vM+7Qzq74E1xR+m7L9KttnV5/Ez6goKLGaEMteDNiL4xZqgQmKNd4p8j9xUTgbkPV097AKHDiSMQWtJqiy8fHRd7MsVXwfo7yoBaGkAqxKRfFlWGjSS3PXO1K64VeDzmC8rXCl82Gclfomb5/JgWxiiyGM9B85mcT2j5mjH2k6C4os7rkQTdndELnyZGMyf0bR+bmKwWUnLaxeUDuzqoBi6cgn9fu/pH72uZrVkR16EUulojCqgBO9YHI47ZMZZ54WosBwi4qvobU8+8eaxfzrCsBCPUE/Q9Iab8TPiWRJ0TkaMURkDwUZNrKVTp5/aQsCRMr6uprIMq+4eYv8vglCTYWzkrywYawVSywO7PPgpgPcPQcWvZy53Am+rWOFCmFDGplIpnrcFzFIxrbvjiyHaq/FjeabiGGsRxmrwtpnzrifm7DE5Jgt2Vp/hKJJj1s7yrhu1oPOaML5oDc01jroQyq6DPtZHdle+mgsdVUR41MeNmiBflTlpazvrGi62U9xOv8HcpVF3CvO/qNjBJ4MMkDhoieZ2STeOshzTsx3oeBFuDm7FJPXYMb1aS5J4fuOxK9lItuQ1THzUxhMd7EQeL6TEu/ejU2/9ajUkqdN0jEGj89blROqEUMFrTYALvXQPg1U6+pt5rhODpN+RDKmDsvvzSkBQy7F5sPR8TCLCYpJFkxut4NsXX0mRcgZOL66iLKaaHX1WMks0LcTQudYhhNM42QHy3CqyGzHTeSkPSlS67VgMUqoiqyT/CuHfBeN4LUyqS10oP1UfClzDfoikr1Gqtgw8UUX+q5tGpFeeE5PnwLeHpDC8VMSSGrREFP+qBg5xXwkWsxgttYxMPFIDgguJGXHWS8bzYfkxTkeOrJ3mrNk1TJ9ZYeNYl+8zRZVxa6WA79VqeK+qcL/XXknsMHsEV9+IYhwu4zuH4oKcOlBcmH/FkNV7o9cH5wZ0glCxBfi00gPm02EIUfpUkGm8IXNmt1G+VuV1bWqVeR1demLDpEcSYFWeoL6k3kNxXlFRB5MamP+ZxrRXA9pyrtHCvHZspUJhA+QVwCfz68sL2XBSyYkkcXszrVi1wmfG8WxTVetoil7D7e7EN9bVGIuXC7E5SyE5xY+aIAwJvDi8Uwe05vuJtA4/NxuW8brEblMg7yfMPhaAQt7H0+PGqEh25wNVDPXBhe2Sfnglc0tJYdMEAZZyxLJK8faea22Ik3pzEELqA7TmnWydkziwuugzFRpKPNQB329c009GPRCfCnBw3HjZwYRniO2o32mxLqw8q3GxHHcrjbmuYqb9MRptq58tdp5EA4gxusaUKxCpzUyd/HsLiTa6c6NTCIFcAOaPggGbMHg0fEOKS3+20WoHL4GISD3y4nkbjGj1adtoRAtnZUJdPJnQJe5NRaSGZ27VnSgGp7NqDxz+JZTGi4bW1bFYF0C6Lkt+VITLQhvE6Fl4aLTdgA5cZx25vWqWWxhMlv7IFZgk6r+NUvdR46PIvpU1m17hbPPttL0idpTKtzYG9zHgcz6jaDShmVE27kGny2W/I8rtprJEMG7jMeN7zdOIZODfp+9AwiNuPC/YYZWnpi32yNdGoXFpBZwsQMRv95m8djqw1Lqs9sq5b/7uS1+0of9AzhAo9hStSPj2qWqXAhYXJXvzUvESjcbmpT7rYQCQFZELXysQYMjP0Eoe2QSkQMWNzGxkLE5/sdQOUXDnuZ9EpNzlDmmw1cSNZB9fjWn4K//yHB51pobVP0uchMNcfD11Gqq6VWWdk+ke2G4qSggGsTeHN/aF7WGxcKe5qALWytrtLFoYMaxkTbbkeSTjQtMwqhPLY2BqXP/zOmk7jWv/kTV0AjOPCQ9cgIWCIP4av4tHZjYo5h3blCUEB3F0cxlpiPGYjPmkJuFZRr69uEaDjViRxRgaa9HOwC0qxNSnJOfQaV/DHWXDMH1vPI8QyqXq0ApehrA//CkTbtLa8k2LDYuM6dAlkXKNTCx396PxUro1s/AKhyFoCTvnBoIzLxd2SXuM6CEPdfRe6Zog1RfDHgJJqmUA5oeCDjCv5EJuNa6Mf4FrppYNoTYp65bZnDhMkRGv/dXEE7gfTb1w7yo+nUtbReBe6YhPf5P1IMIFcyYwSKPA4bp2ZVYGM67uN76VxuQYZ3j9Ks2y2AS5fTxLwVgMnT0BSfug3LldpYasdHFiOieLnXxNsrl47/CYRKa65V+75ev//G9cv3//w8b4xlIwL2xP/Kgasz6S//+WreDjoiRHjugdpXFbblK8UBKoH1sPPHyO1n0eS2wY2Lr/307i0lVD8t9U7FhmhP0wSuOz7t16sg5uywNaIGUgLIZllXGfZD/L7BLr+QZkjqKWFh1Xvp3GBAQ3V7CmkprCXJ3EJBhrnYPQAV54CQUNitQCNj4s2wOVuHMNjIBTDKom8ipTwi8CbANC4xGpAwwUExet2K1qUPHT+uZVA+ZdSFVj+SLekanqqFEA1j8JC3ekkxeNQ/Js6uMIIE3ROTBEOjvrmJGmGEEo5ROEvwFD8STZD8WtSQAnRUuCZP8kQap/jS0jymomayIE3kxNjYUKXVZgM2OdErIlsxoktSiIWINarvnmqRCd0GTxXV54vyLjcXdaw2Lhc3EHtUzf1tykZ6Pxzx6276qWEvHjXffjeIIgrayWQ3aVPnmb5Vj2BpD9hAu+ZJn/Cz14KVCcVoSPDbuH52N0SQH/yYDdDI0z8/JwHaNrmgQadaRuLjHUnaqKIr2zgzUuJMDABJlCOV+2m1bh87qRASU1zxj7x+yuxH9Dr/Y8+UyLDrZE4HBsAjPMsNSPFsDO9ccm6gHzwffXt2yXIALoOIxeNqXa6+jfBJURep2eMUe5NbFyW7ikw+ZDBDSwcNjrXFsi02O7PD897PqYa4AaqFY+8WSyiQTTJtLtqvFOAihdIj3+4qcTYnQ1UJ/cNQcDQHIe2NCmdxuVx7jlUPmQ/9gkJAShXaT0yk3hYemgXUKSlMg2tbo+JD9EMrq/6Ehr6NGbL2xiM6z/ptarSiS0Qocs2tu9441r6bGup+acXMPkQ1t+wMEtCurC25jaTC05+kc4HHAFOnKz/EJa+/Ns4Fp5Z2U+sgTSCdkTo1dx0csqFQnW2BmIbKDegLtmHxkaXIR+ah8mHLAI25p8hgbwUH4SlWa5COt8OnJV0M3jvDBavYsDSZYu/bwZxHpDhV3OGUrNJae6qFFdh1J+cQ7+mFYuvTNsLkQ/hi8cLh8lEWCi9/FXxijayadAsw1Lz5KKM1VvHed6PIgFFF7QkhcmPlaE0nOKTEbnAt4FSD11WgvCHr6NoxDMKsmHyIU5sXX4NGVRzeRgZCQ6Ul8NIxPAc4H5VR7Iaz8ClrzaDii5oTYpVSNw/8surJXVvVVMTndSrLsfT/z58gz7jwiFo6s+Vm945MUtKthB/cw9ReHMWGbLpqhKd7r3EM1ZUQUFF10roQsABmjtsBqkr/rrqgiH/cKLvRdCHaCxVK1ogXLZ5dF+FmpxWvN7XJ7snmvE3h3ltH7k4DFrdav0kKYvdixiw9HWLk80EoSvexoL53xg/XUV2GbgKptfFDXHZT1/RtSMIZgMBvhx66ga5LSdaPR8qgpv42AaIr31ZAlrzwfqSy1B0NbQoqoF6DMMRx3IZV7SWxPVUkN0HjJN/NNR7XTzlH4230Ux1hHn7IXZtc4Y0SWqyDkBviOBwREtTOkVBw6mB8mLTxu/fWNE1klkOyIh02gR5fl0sw3mxIXC9IL3J/l2viypSJsltG5S60mJaOm1JTItyG/XApXzaRIFGsu8l40L/nKEigqXIO4Iyj7F6g5DZsgz7/m5gJr/W//BEOMM6XfgEUwH5RfZCNUS5YetZl9wrpC0rhCjkzQ2Bq5fCJhYnef7GAEZfnIVN+PVSf6DHqs27dDbEgt3GhfU3vCWYk6rNYToxtOIp5xV88pvp9HzFBOVpQXxMKpKPcFaIibZMlKq05DW38eVqDhImLxbvg7YIHyFw/I4/ZcgKrdhtXO8CA/DuJsj/XsfoAMMyDk8hqCzv2qYcujh2x8gsKTJBVoivK1ZSvlXm0anZObVUvijhwrSMyUayJDoxXw7UwtN7FFSkRnNYbltmmI1s+j/sXftPU2ka7m1Cj6WUtiCUoC1QhGEokJZSKAIWUGDlVoeLC3IPYxUIzCa4oINAMixgpGWEcAthuajl4qIEcBkdwMVxjIOiwc04JjvJTnZ/2MvMJpvMT9sW9xxAZ375vvode9odu+cfOO35vvf2vM/7vJUfAM+In9tZn5DlwPCNgMPvntu4uh65ycMKP1wwbY+ZLovvl3jainqrsEz5rNLVgvQex4qDugdHfF4KlLXHA5diUu6Jve3GRRMLuk7Ugac5pGHapgGewz4DEg6/A0PhThF52zZmaN5sC3phtkPgUpAglTHi23P8pRa0FzlyHwMr06+se1AKNP3bv4wcetvhjB2n/fGSDuK0q6Pv6wUGRyUYkviU18bhf/SKs8hekWHUV+T5WqgPXGFrKcicMsxTflftakF8E5F4Oej+YhlpR5Ieq2BJ69+j9jDffuPCOAN9zyA4NL9B3V/VI3aMD8QD13UFApxBOiPCfOTX1YgvIhG4cMP/3bfI8UTidgYFMH0Zug5eP+qY0IVxBPrhsXEIb7/uxNlsMc0JHm6IJvk4hFfjLWubjNjv/nPA4XeulblEcReZFU5HDpHkKi4SgYu5hxgV3UI0fIs0r0LvkL27TKFbY7+6AcInU+mWPg5mOYNxufDi/gwZHjdviQa7y1r2OGJwnODDH0SOJ1veYZHIyphY5nboojpwqckELoJb7o0eVBPbNh3RSMYkPadXSx9BxOr4skt9A0LMGYwLrzc0B6B7aTwurDUN+DjA07DCR0hMWm2v6opChTgl8Suf5EkpDlyFJAIXnFsOO7bpgr0O6NPSYw/PzsmkJjMkcBVc/p/S3KYyjPP8btTIYF2eEt3GShrP/gUoXXBGK0OnJZm9ByeGshHLRCzz6L+e5lLKjbe4qq99iwq1YML8ronB2ySqQX65tksgsfORuUhCAp+vt8K0Fdl13ScHMlycw7ho7iGXC3QqiKvhL459lJJtdwFeLDOhHg2Hf8XfG5vfF4zoGxnGY3/SHaLSuE69k7Pihnrbufvf6791yEQGailRzNpb2tpFYtz3pPtLaMuwpBL9cH7GgKEhvUnbCsvq3w1SfFMksLd1kYEzdp1jeffoAOLP3Sbs5P2KuorLK7f0c2SmJrGp9RdAbjlexkE+DzGYTXIPGNmbJO7Zu9ztDx3rPpVXMeQcUOGudwyPuKYOgjlHdq66t1HAsWtm6MLx+wIMZ0CvFZ7WDyOn9dw98oXOhmLKjKs6+kARMjnDPaSjIBpyWT1cPcC/OOjDG7X29IiYMGbk7nqYxwtYshrQ9k+5M/S4Xj1it/bkm9BYzg5Q9hYJMuxZH7PCR64A4QzLFn6tfCFHWNNXi5rXM2I7esco4++KCrWjzRnIlOLaG8+Aw/1m0x/qfvgbuFD0mC6wJ+SNCeMffPX0u1BornFIV6Ax0p3ItohxoRuXZFB5Me8GZW97uj0xQ7qgSwvqbpu3Qut++OsiGH/wOHdfgzqKhhnSVs7fhPpd8g9b1rkcFY5aatBjij4FC1ibb4c9Pf+f3wMrMj7BjbdbBoYZ3HDbKhdZYMYlLZxoSue4OJNx0dzxsrnSFfJZzGbvAMVHKQOe7vYzePms4hDwWsmerv1jehH4i70CiIF/RFfAyowr626VUkDUMHslKpY6jKhoBpZ5dGoGPBS19cGte98/14KbYKS3sJMBnTkCzWdfy6RW6s6Hkw4lgjskdAmzV3J+CwvoZhM7aGyjKS6YbqfDYhj1OcCBIFOJ+t/fP895B8wsCU1Nvohe4QRHXOuUUbGsq3r6ij4buXEqiW+HjJpY/lJY0ZTwYLWyBNhY819rt9O2Li4vv/HejAxOLzZXTw9fjKHTnOxhZrZsrsMTQ1Pxou58WWCsfXrrmKH5j22JoBSN3ToxmrDvyYdArwqvfiwAACAASURBVG4xLZbOIvPPMXpMx7wywNbyu2aLKGyCxHAB01M+qxy3QKZrrkcZ04a0oKkGs2Xx4XO7rDzBGHua9QVKuG2Zt04VTow28zBnMy4aI+T0HeUivGPLd32sXRiJsQunhhix+o0HmKs/HxjrptmAMEsIfTF0Hp9QUNRLWJdNM0OLr+xpfRR6NrTN2AXf11N5+D/khEeAtyuZQx9vdNhh5QmTvr/l7AFFgDc8bnmTqjvfhsTQIEhJPmdNeFZVuL5aZRfQkJDO+Q5EG/G6emk0n8OrLauR8SF8iEn0iSaMk130jTLA22xD67JIZV9/9QBd6YeVFTWpAPIdLYQEqjyTJU6D7AX0ulpzMt1AuW0ZeiLK1nSJcJ9E1J396HXn25EY+vj1aQtPwav5rdDymTuNaZnu1P+almU1UO5MdDz58n4ul2CWVEMqkpwz6KKmTE6+ra1LJJu598ANOZsmiE+REKZ+6IXzeryqJDbagtV1VLreCKpXnnB9BFXL3RdK+NYafXjdKRBizmhcNG541MKczBfuhHEvrCw4EhcsofrAQjSQ7b/jB6fieJiLIR3GXsBDFxlRU4wjKFpSNtjOujxa51ar0G1rh/gEFNU0eeXObRLKny68uKlS4C5XdmvkkBulwQKThNfq+9sGPazVnXjB5cihdgc/dOPp1VJr1bzFO3csqSzQSPFwsphYggy8MYOR2zGJG/zxUnQ1bGqSjHYVniBvxy7bYBkmlf/6ZJUb+udiZtT2XQK7DpNqevjYtnYQI+YiBFZ1VS60+FB4VkyDMWH0gEImsjaqsFN3cp3UtnCf7dbYq0jkW7ktxeOPtctVAh8qvxMTugRZFT2/vd4NE6afPVHHBv5SkqKmO9bVILXYYLzLqyT1xPPDMSSSIYYRJqppKi6/1FebQVgNlikH7920SFOTNBRCGlyf/Kr6ielFqwCr96PSz0ZiGTSa81pXtv5KtHUCkCqsrV/vF06nziHSY1IiB9nABnHN6M5iUjx0EZRxILoZ1EZq1J3IDHsfloe+eWbITtStlQWGkFBJIPrHncBOA+44bvW/t8uelAhgwnANNWUDQqogXXGwX0r/XGG11bkgdkBpv8ZNjDmvcdGYvIGu8zeta4yJriqSTgb2cChDDTPipmaADR7RhU93nTFe8zdNtLJhDGxSAmO4l2lcfVao8nojKpTZLJIprjS1kOq70+Pbc8Di8HjKO9H1sinNytoL6Vp4UAdpcHnxEWVJlTKRVS/0bpCioEjAYdGc+WF5xpVpw6wP/7IXz2lnNWmeFIV5VvDp4eNAvoircqpltzPKygqcHwMX/VsliruktDHxDPn0wsR04huNJr9fXdjZn9KcxSBhW0zPBJhUISHR9qpxhnGaN+cagPlja+QZSjZBYZLg5ouT3Y/Hi63WnfzFsWF9PgejOffjvj9wYb3cOr3OSxVWWvDroyFCSnyiRHD2BLCDtQ1nvLRqsYDYAWUBti0JOQ0y1FWWsAev05WtKvL7GUS50RPLHdk8UgUPsZQR0j+W+uMh+RUI6B5blJwKgTSm4jJsf69ZnJgo4gtZzXPMpvddozdW0nlMmrM/dOPI6ozM13q5IQ2Irtisys5k2P7cthVmS6zBGS9DF6TRSk5O4yXC3Nx+TTudKyKHa7BL/EuHT0YZyc3AcYMj5oGUQYLbpZyV/xiRMZ+WJw8ToU1BWydkGD0rTTOpxWP7i9ewLd3GULMP1+lti4aJY6ruzDx6jTYPvyR1rv+IPNZg80yaG6tJTgVmZK/gjB1n4Hamwl8KZtwMTjSlkWtcEhXFyfudeeMkYEO+qq6yYlYzEC4h9Womp3m0GwiDmiyhqUkpMZKfIIt4gRbGBtNZmrIltr0kDM/4qKbh0rDXCey4bSU1+Xn+37Z2gOhj9w6+VhM1tCE68ouqfE9bBy/hQNkzUA1hEaUm/5Qux/SU1ysTTRA4fukySdVFlji8WbOQoy50RTEv/LsVq2S67vkheUwGyRvFMB4bnlaBO/lBnf9l71qfmrrT8OTi4MkVknBJNoQEEEIIYEMSEiQJl0gAc8FyXe6XxSLg4LYLVhChMyCXkUsBsTqM5VYuIogDuNRWbEtHu9W1dpcZPuy23Z39tF/8B5Lg5qTWEczv5Jwk7bAzOd9h4Jzf83uf93nf93mf7dkcSfCXr4LnlRvurco9OnhCJc+d6F6ers1Dk5JGpcLYMvl6kfUSXedRoctqjkrO7/rnOU8HL4Lp6CjYYbs88X7H643efOVlBFnNXBZzZkVAd/HvoxrgU1SdGEpBafBmMVt3ueVna4eL3gnOdvnSsdG8hwhWkmZxX1rp3kkSZuYEuMHQlqRuqj0nPUF4Umbp89zE2GQ/VNhS/NQmIHmxhRVdsNhtC15r9QUkT0554ZXNUqC+7ld1cm8/D7wtuBfhJLLuaruVrrIiAs6oljQvV8sy8hIO24KSBRlZNg4kphTXlIyOzeiFIS4n8MgyPNz4tK3a20dEFaV8Cm4wpCR5bhkW5EsfkbSMdr1H4aJKPSMnP7ne6O/F1j50/RWV8ZKfLXgVpWvUnuOGPmTBv8BFLvEbVpdOWhnMqRXLbqzHhHD+NIluLW1H8W0kC3Gk4oU5h11edamieqk/Ws8bdD3HIJIQZXgz62ZE6b5eBx/E9X1sz61xJDJ5gtL7UsX7p63OB7Yt5sN58Rc29UZvvrUfXfBYKRp4nY5USLd0nuOG8CpZUJHLsrvetd24t1+QYGhcQWjCe1FWLL3O4LsOfSLOqOy4XLn61R8Vh2bLWUFRNuq3r5xmiyZR4azUqkJZyY/bOjlDOEh1PVBATmT4w1VD77Qb9oVFvLoZ3NKSE2OL9p7ghUQ+qaBuLKIiHxUjtFtD/DCg5xC9iNrzgcmMt7/oPYtuC69fcmx87kOPcUM+0hL0oOLcgf2rLp20j8MWocfdcqEk4DkivdyGr7Rh2Z8z8v9w6l3u4dcerrhhPSa27x9d0z+upUcLlEacW6eJKjwOF8aB0cDhv0MwHQFKGi4uOXdQnTDS5P1Xh1vz0GWgVu6sbHSggO7F1hvootVvPS5moVsIx6X8zA2NfPfhBdFVTcAil6VhcuuN4X2Imd2PtKrAdtWPNbo360CgMklzenl9y/2NCz9lJV3KOPTLExp6KKP1XlfJxStL25sBAlqcwU1+TDC0Vw5VAWX4XW6s1JFXt31mEswLL8y467EG4ThKiW5Lei+Gha6w/iI8pmLjPMPgrR07YIbKAHgCDs2LtFitMDd80C3xALyIwhkt0K4wJyyr5c2ajX1ktxwhSWl1wY7zzUyeaeQxGjXR9elfX/3dlU8i7M/3T79/emXjVmV6SrDkoxETGUd0VzjAIaeQ1qnEZUdTaogDcDkxJenu8UKISp87oWuqTow9hc421WJmfdB79Xw22YsthyRgTl75lWIdpZ8EzA2rt2B44d17nfzsliyQqmwVF473OLiCYbOJUPBC7sDIxTU3NI3XThifzCHxaAJ5cEBn9M9PXV1n8JEOvZpnMjLxBPcDN9EoQXJTg40zHBrOE+jg0W2YFy65wwshKlkkKF3IlYWi0wjhd95w6Mz82wwvtgCqHZ93ok1bkxeEsoDKpdjgdXtTouS4Q4wgjmQeaFdonVp02CdH9Jc0dUX6IZ3Ibg/t4IUgIp781lukXx6TieT/JzoTT4Q8o5byaUhuarZ7omJNYiQ6/MF+YKpqZt91gxdCVAOvvWclojcDrqZbUIWtMkrr9LNO9SDkxRGICJnam+1+WVZ03NAGr8QPnw90zNFdh5ed3oQjdHg7BAl+rucHBXgXiJUSPy/3oBcltPfx8dwRghlu4hQSw9UCjP+IpuNFl8TAEbiSfoZrt4uPL1nUPjNWtNMaibrN0j6uPqERMb3YQjjpnMzzXyxWidG9Uzu8ipPSnp8XiAapLr5Xpi0xz8M8mwQNFpz7EGzmYoVbDAuYB99FGR5Qk8Zyd8H9JsMrAG0GIjduL66DAsuXNf/VuLIhGcLTj7X3jI0P35xloR8QOB0jK9oUxOG82EK8SMmMlAeP30v2Q5d42eAVnvrxYtr2Xz4SMl2CF5F05HNwl1zkTqWeCfi5fy+B167CLYajM6KDP2Tuy6sbBUdgi/nLydVO0PYW3xFdbijgfrFyv83txq7pQHjOnKp+xQ4t9HsBAxOK7zz4LSzC/v9FQ1rAQ2ltXtAu6tZV9vuFj4smAvQ8JtEF5wilrhrY3x1+KC3lGOCT4dSbuQiV17KwM5UqzkG/SYn2JZ9liPPHBSCuBRk186BdgRYrJem2CmMLlA1aIx2lf4vYacUALasVHqS930MzeMtbzr83U3Sif1wWI8YwdsGaVQxtTHRmCgepWMUiO7cB3ts188BViZBRMi9DSlbupmE34P2tH5zysvY7BBkeTh3BZnH87DagzmpmF0bUYZI0iHwbtAYWLv69MAxD1DJbxTHx2gn5nFfKQHd/+Weef3AHXcfLq3GmmNqsjbHOdhEdG+8mmIJHb7IwFbleHS3EpQVm87rMo5rGr3KRmTTL4PGZl6In+IKAK4TA7l2MpS4izl8tufxM29WXKsYyjO2XnH/nqq5R6E23UCde6ugFqSIvHINdS1RClSKraCxFpTRiMYnCj+ik18qARS4kPdkWutaepIIPwn9ipW2ZB1rTgMj6lulY8Fu2y/AI5TqI3tEUX+6BFiiIGmJiaJqXLz7JSGVjss0Pz6uVrs1ke6eOMXz1EJGkZfyJc7uEPVlOwzXFzqcLOgnNFIJa2yDrK7tSgWmDbA3peOBGSrVI3fHw2OSB1jTgEUmkleewDI+4ECiE0XYyJgfcAoWOFxJwdF7m0etLUll+KhvDB7dYzAnXnoy3SI4xvZVjTNSQpE+5hcLoZ2/0YuX1VeQuX5dn8lAWvuxeoEBWWFWyqUZQoCC7GhBlRtY0Du53t4Xeb3rBO1iRZPhXvPDGo0KxxR1e6ENlktSqnomN6ZpYCkbvq6D11qFbKXqSlxJipobKo5Vpk7NsbO+bHRkaL12dqFeNoGoVxys3pR+UAa/e8bo4AqKOPTOqaADTGFZGWjeDf2C/PE7dXJ3/Lrjp4dQ9sAz/8jEIthdTdy0gXvi1M14I4eiizKPNC9phxQflXCzWIRaLhXU2UVt5RE32qoTY71W+ULW5cSe/PMqMya4lnPJ7xfDTh90ShtBp+PKBtUKA4gcfjtsqROs7n0F928lrQeAxman41WDhQU0HiP6a5XgEp0K7872Tlge4kFEMGg9g33XCC4l8o1JVP7EqTeqbtc9dYwpbqd8Nfz4gEPK9YcsVdPlyCmbWpIpZMSZwWc2HE2YLF3Ob2m7A4gZi0zgxLqDokhjY2X2y30l/IDFOPh8/Bbxwdz87O1TZeED3bEDMgnSkhUFWSvyW3NnOFsiouTXZ4JJeCOENPIZGtxBxRnFtio3RrfFFIBy2VqJpXiXD1YfAnJOcK+rNP1WG7dWbA8Xr+bKhR9/oNIw4MkL4wiP2nqKYVQ+hNedmiMENDqzWiMsjB1PTwIt6NiZPgTmt3Zmb7+y38AtahmcDzZh5ITxtrZppma9e7AtLwL61NjzVlm11q3gh3rDlhq7hX1C/Vj0ZwzLvYuIMFis7Oawvqbqp+QbSoC5Z9TARUUomO6NWRtg2KQfB2sUtP41f8+IydizshIFvLXinBIq/nMqrBzs+gnghEW8QMjTdt7VZk8UUNnaLYb/k4gptZTCN4+vFlluJweAxSfrombuUzzB/gkA2pbjmpD18CQ14okNWd+MRQhHUxgqdBh1YzVYkgLOF8FBpevYB7NWG+Aw45loR6ghF9XPOY64PR/KgBhMvhJFFU9X1L1XbMi0KdxfjV7VYrOF5tdPL/2PvWoOaSs9wSYJJyE0uIcCSEO7REgIJEMFwkTuIIIISJQKCQQEVuiOXchGhCLoLggGBoKMIqKBc3AUEsV0n6orarZ3arq5dd2d2bbszu+2v/uqchO05CbjeziEJJyTOnPc3kHDO93zv896et7UUi7ZQcV7F12JEZQ6G33AaVxVfKim4U1kcTgfp4Vv4sgJZIUKZRh8FIyKltz+94Sb8IS2c6yo2UiPUlEbjsUdFVNhoUfPC/7Z+e/zcsuoUnoC+vJCAowhAZMXfrZXJH0JOS2Pw0iSn3B0nztZFhjJoGLZQcF72nPCKyY4a3yJDRZ7VGp37kvlMtJ17B74o7vckhQuwB+PesqwQOqWCgFGEnJtWI9TyGnjJjPp9HWXwd4JmQN8NtIjjcK/zQh2yzvWV18rCrnuqXI2RxM/JVYoKJnanpGFuC7W0IZ29zyfPg0oy4nWA7stTGpZ+8d5b+CIzA+Cn/fRjhVBID/IrpBZDqIHXtEuCjclmdO72qREjZTNut+i3BgjvIhyXRy3PCxeR1VZ+MT1Mys81ymkBLIf8ucHhisjLWG0LxejbjVe/e6pAnm8EN9S6r1w+iK/5l/giLl66u4/ATps4S+f107XEMzePHNueAX9SosNGLa3YRWAKp/IQdDO0GiB6jjq6LZMvhKR330RWBmDMLakp8q1RdLWF0JlWWLsTms6LxggV9oHc0NgFOxmv40ubP+Ru7VdUAStjhdqcxqaz8FvIAbWTtthlSVct2X5rfNAOhN4XMaRepeeQPo1T4gMrnuV8PXZovT2F9yay1IZfkRqvgR15sdeatqZxMbeFemIjdSt737z+miVvgOU1fLlHgPjCMRELoHqyQmj9Tm9/uvIF/EeDR7XVoia71nKGei4Uwj8tUn7Hnnp9a99kRji8sDXrUnK3MCm8OH7q2xUgC1CrF1ypHsGZU62lHHsMWqbghlyQG+rUthaM4Ouv4SueHW7XWd8S4+G8UlaozWl4DwdPI0QK0cG3QgSWQwzJLuHXFPDjx4CGKjekawtnBy9YDIg3fLyne7xWtgJk6VKE2WGZ4y2bsRyh6bjhls6jCePQ/ipX9YIRb+klviTpteVtLf/5Ji965awQ4pcRrTEI87w/eynT++stRwiWS0ccP4ZGJCsM6DdGktoHbKtmPjkYfH1FyAJIUUpR0FiLkJ6K9b+b0HnhXEKFLcMFIv9cJ+Pe0yK+8qUSRdDvfvRHrCDrrQyGd0FUogDv7yvzmy5bWchDpPECRsN84c+5reexKaEBS9OJlPByCRWOS9iqfH2jVoIsICeq4cLgWIUQFe1yzJDOsXZ/1ViQSBlFAozHl61frqfSf0AMlxwpktY6GrADB9JQmkMIYljb86YspQsKv6W0P70BXugeiNqvV2/GK7yQ3gdfi3/loRtltuL8DbLJNm86E4dBazUyGyC8Jk9daIjKAYy3BTWLBd+gQJWUGyJdpN3MkI0w6ue8w2K6oKAS1xWEhq0X/oN1KRRDviqB53hR6gyYwtZB2ihd1d/ZYUXj1YIXl0n/rnJStiFfbGuSVwqw9M8VLp4vpnD8C4TCkeV0QdFsIu9+gbAX0xhdnfbNU3PTaL8DEP6kA/wNil3dTUkCLEW4monDtKym6q7k/XxxjjGV/uWmhbykted4BiUgcBGtiHoaui4o8+c0yJSkakQfa7AiHJFMW3P02dUBlKGl0bjmNkDQGurFsu+rbAR7QVZT9y7F/rKom2o12vBSzT0JEKz9lQFMhMwo3Yew5Ep7aBPszD9+hLt8fBeSJo1BWqa6HRGCjSkPvgme1qD5ArRrAOSDk3XF9RwKln03A7w4vUPds7ILylyj6l5Inks1U/sgicekuNEIZD0jL2g9o5yK0D4yIOppMjsxhLazIGnSACo9Fau0uDqcxqG7e59rrftekeiMqtvyGsgWBY31BaSA0CJiZ90MDIdG4fQ21Y0FibKpKMPrpv+Pf2877n00qZPHZNiv1Wdbz+KAFHwC5Wa+4lp4qnmJ4XJ9Tz97ZQe1Lau1+BJXIextlfcbP7itkPxDjGbEC82RF4xXhNiluWHQMh+87AV2IX1jBRC8UKQlakCcmCeL6Rrec/K4t7A3lMc8TIH2YSFCDGrgPXHJFv5vgsSwMsu8GUPc+uIexJJBdN44km4GWeuwUpdw9fn8kWRJs/W/qw7cRO/hQwooxzLLP4uk27hhsZZZ4UXg2tAjW+4UhGUbN3oHmzsf4Hs0y5+eip2/8zihxDHEnc5JCwxEhBhuY8nsBoRwBhiQ95SYVSQUn3r08VOkYrdDTSzMpIkOVoFMrcPatIirM+eVewv9SBkAgErUq4b4IJTF8BnR7uPFWt8tIHPIjBBWTBRIpHwVeu5Lo2GRisTRyofSr48NxjxqvF+5yZG9BDEu7V2RGLl9mURcDv+Tx5tTzXcba5nrR35Ig52QCijhTVS9Ait207a2u7OZS7hy0sneqdEJtIAMkA8uqU5ire8W4r64qRGRCfd9jJ4ch3/hLJKXeJrvf/6MJPnIB88/X4SYHQgxBoX7ZixGsIm8m4dQQtL4nc+MtzMfMVw256Ka6xl6qQJKJC4tjF2CVeUfek7HHkoOrnm4iKsFNJMYC5AmQ17mnT7vFA4Dh3ktS4JXaHhx/BjovjxVrqgmhaFIZJ2TX+HenR7n/wVB7Msn96u3xXkLS7Mu82xcdERxEWRWna1na8QI3pAqB0+vuTKGZIZ7N1K1QPPCugBqIyES8YS1XArjMFOgRVUcCKvyRghWkuZEj517Cz8koYsriFSy/KKz5clnR1oi6Wn2WO7dwuCFo2jVumrRd1/aXJ8GsCW5fqiD2FcdR04///1I9cnj7JD6CI6NjQ0UjdHwZIKL+54Ovi3SoJT5SslkLr0Fsc6tGQh+wt7Ybs8ITON0bnWPDAho2lZ9v/G5FlZndLByJdkCaN9d4NN1OnAJdFrD1cXunanYlLEFGlGrM1ncNpYZDLmvBZRCgbch5lfouTNROiPpOBVz+tZP8SW/btJRRZ4gjZfyw5fNKmCZUrJ5iCGk9xTmi/DdirKTn3knJdULQ9glJ7snbv3z29hDHWBwZf0LrBbQfqK6Jurp7DmFzwgkgUfB+KCFu69ynfvKAExjCwuArZOzQ25V/sPEmauyQ48u3vBpnIj/bXETO+BcXe3cdqRfpoomzVNKxjPc93WUITTDA59md/y3v6//2WjPjZhTByUz0iVnZRJYLXrLDK8ofvPVgtH+kvDQVCz1/n64Lyh5mOsFmNRYJCcHKn+nh/WOxDOSjiN/iT092/hI8T8kz6UrJbus/iHCt9u1QAOd8OBSu1Z9/cdB2cHgmeZEf2VVroOzkwlRpXuAzlT+R6L0XX9L0H/pE2bmd18JI7UykXW0A8m0+AIgokiCojHPhoceidIrM9KqHEQaBBHDrC00ss6IRNOcKPIrhicQcG6Bdg965NHI/8unl/L5fF8IVetYgOnNS+V5PVhWO9HmWNrJdMOSGO+V+4ofvnFsRml6fC1RxXUkJy8/lXPRMj86IO/anbIeDNDWrAkMDGQw2t3cuFyrtTQCAY8nv25E0F7CRZcc18e0CfQ1S5bG42yMSIr84fu//ilnuUITi8VSA6tiJIcqa3ly7E+fFYfbCSiY5vt75r4EdOHJx12ZJ/Yrpx3WaTSrcmQ0enxODv83s3WtJU2Ocey4gICQo/VJSUlZ9M71HI4WcL8YCL3Awy4Uey6X69bOAO3wK5B5t9lApitLOcY5ghbHdnQ8vq01/trEx1+VeQEWYNAIA8nB13//05jh6qHwCMEWLgHrH3zf4EWwcrlcH5CwZzboxJ/LBvz+z961BjV1puGFkJUEQiCEO+EeIEAQgiagIOaCBHAMgkJBoMCA5W5BKSjlFikCFShgCK4WEUFcZdZlqiJYuTjMrrKVUWfVFgp13KqzDn/6m0v3nBMu4nIOCBwKx+/5x0zghOR7vvd9nvf73pczsVGQzPWoLfhFojAzs38l77vyqL6pqanSPzq6LLXFkIVQAgFEPTbfN8i6IZgRHFBoXRTE47NZLENslDhDCMm5//Lrr387CUFiZtYlzrgX1TFy9OB/pv5wYsH7j7EAYlbmve/ihDyGxeIDMgA2PjTUq2VtDW6n4m5fulb6OZwfrv3Nr5WkkHduwgLNhkyWVpzr7I7NfJ6eHlhTk5Hxi7jLDIE9zIuTT1/J5X3t2X+vz2+qf/TX6/94CTFmIU7O4anqFxWt9vb2QxmBP77+9tujEC6QyWSbQddirijNzmgD7CuhJrsTyJ4ws07z9+40VdMA6eAm51ddIeuLF19eyvSMEDGNpzZAYgS9B0igwYBEmkBb5OCQe/lscYSr6yBEOBhhRxFUfFJ6bsS7I702PTP2x5GRkdcQZRbg16OzuECex6yBPgsOJ3Qj7ClIU/EKj1oxzKyGNqo+EFqbHyRdLZmOtd+puNF7mZ7khN1rf3xjtSINfjdGoRwImgtgbJfswtztkGub66AtSBMwXeyMNZcDnA30FaLftmJHlGQgX+i7t82gGjCLKPKLpKYl8zrCPhX3nbjWo8J2953Jic2BOYNkSvXTxKbFpEDaIcnek1LEsDAFMYto/NKtptbt5QvzByRR3eOCzbxONycevh0W+ug40tVBQYuQBNPV32fBKEqpfFaLNa8UAA/EjP/2hkEH3iCR+UVTp28NfjAc2wzItb7gkB83ysChXMIbHMes49JFgFzrC72IAqEFIBfhoeVzY3s/INc6IyEwR0cNLD6ip4b7+KNXXcBqx6GQxdFDrVRPHfbOttYCq4/g0LAQHhhEP8yrx8Hjri2xMT09wTERiLgR4w/7zVFe4nKuj78PGIUEh5pOTmAC2jIRxBcP4tElgri8mprgGGd9anvo1sXMGnHG2wq022zGUomzDJCL6JLLOtv7MEps6idnZrzT38gIkGcpXsGde6Sd3rUFY+2f+Qvf/PQNWltETkRGiAVw4gkuuQzYZ0qzUNZLfObwm5aQyvZRMdySxZWrzbTjABYtRquZdj1SpOec8sWJaFZQQJ0F44HyKhPV0fiwqUwAm1FypYoPoUiuGPKBU+FIP7GQnGyloiCqvFMawRUJuifyOwAAIABJREFUTDRnOjpNAl4haSDcBQvhVZcyO6eMxT/CcKLSLXVpWg1xP4jQHI3tA8DRIDjUvfyjuCj5nkveGJtKIqmpuqEbpva8UI7diyrvvmVTnNDMtEP6NoNwFSG9uj0wQ6KAeCVEmhAb0Gd7EOt69aB+uFl5o8DRIDis9tZnYm2u1UjuCM/xMHCsa/D1E+6Ja/9SXBP4g+ctm3GHtHe6tkx+fLRCwlWG5PZAZUiJqrk3PKFivg8InBbYoKQFmoNiILoILrnovN5uAYYsmCt0UigautWmMqddDUHslugTP7WPSWrSE1U9Z13MNTmhHwmrFtAKDlchzgitDFRjKd6rIbLPoNYQ4TIyEF1EBklmOFZht2xDi0KhqevT9znu1CnkuaVUNWXLzVT9Z8mHxhOaBVAc26C3p9aAVDOsIs/QSn43ZzZc7UOb9kLR8rnrgXL6BZSRCQ/dtqptxXofVorZQiFpqFWbGji2hfuw3UpCcu73ne9CMsVSKXmweObeLwFItpBUs6yyl1+fo9Vi4WpB0h3cVJuLWkZW8o8B0UVgWIY3paP0dJ7OOncGS3JTSDRLujs8neAIn9VYVnUirj1SIXmsCmTzl+s3IcneJ1UpRKqhVoVCDuWAJX4LaLUEOWg7T2PsXV0sUEYmsuSC8pYdq8hbKPBcHTUtd3cZlClCYsyvJCVkz125QtE6BJPsQtg8yTicUKPlNVv7446qq9oCLCSVfatCObAnRNUBH2IV1X1ZtJrJurc2KqTGaFl3gRA4GkQmlztfWYp2U3L5ihvuvElTq6a7U2WqMTuGJc7wnJ2fuxCSvf71AtJ0ydZBWwA3vtDbiKdsTT5FGEUmh8HTx+BIZSaHSeU8kwFS51j1AdGGQvft8xQAR+Pj9DO2NnaRzRc30TmuBakftrPCcYykGhA324oTJtn9Z69Owu0Ca6LSY7tLP5GSI7iC9eHX5HILBHqChxU74DAFxSnJU1hUzUcq6mwGSFlBDldd+ORaMzgY/3H6GXVV28ZDF1+AJrfG3AxWpAnmm0jPkYzV2BIS3dP0qF3+s5mioDZJpLesLA151e8TH9yMBnn5lFEoBCMj5A9gP0mUV/sUCVPOJX6G/xepViGM1HVyvklA1bRyvjsQXcT1MwLq0fyMCUHilSL6qr77dzu1Q/nizl0BhUF8NzeWsF6MOYkcJsZEf3zE4GBxgraAyWQKmC7Jy+yjNteDLa3ZlhsfH8/lJohumi9Bruakx/WNKkZRqX9eC1LNQsNCeC8CZSMxlypYBoBcBPYzbqDVYSZyn38WbrU2j4Fni5A0aMjwU3d3A6cj+ZiTyGFyaUvLC4YeFwReG+n0TEry7ITSSSl5OQhDuoeWdiaW19YgCMy8dRA7d2RKCyqtHWcZtSakmvvXqYZDYSjc1rSRlAC7kLDY4s5G9TOM4mv863TXnM7waBIalfe38oPYieHDt7crW1KOn3jR3vf98PDw93K52fJgr+p73dcel+/v73/qi7/EjT4vxrosM2kMzwgzoOGzfR3jy8+5LF6L0AO3TojtZxh2oTnFmjbiFkecvnrdNmEklBhi6Kgp2/JHbrscnRiFQb6+vjyeL5/t5rfU2IX5iQ1sPq+ogeHV1ta2q+HBf587YJHL6OaO3hILGk4fsZb1fdTrcgmBe4BdSFjQnE4fQKtxJpeOsvE6tU3RCqjcJnWZxrDy+pPOC+ssaWr6dNOZcUFLDgxaOGuIXm2lrktTrw4+/U9UM1ylLfMk/gxLvNIzdfSL3uDWCaFhFVyfjnI6ZyItsb1IC68lp2HAe5LOxZpIrBffMcAzIMGCDb68sWW5k+5mp+T9SfXWaTLfGx3xWBmo3dn9cdamuHU507AQFkRwUOzC0khgFxLXzyi67p2GokREmfV7LXF7tLpTSp+HA9bcxmSbbfkN9FUuehK9If/SIRMsF/7gV1fcHGn4fcYyFmrmDexCYvsZ8lKUlWfEjfKvw08QUPQZ/vZ5aVgl3t1JrVXBq4ud0FOqWq8u8ZTzQi8rHDcwDEcD2IVEjlwy1lAY+l2+MjytLJJpYf3+Q8kYsktPtP3McYb+amKXlVeq0kOEFR+zwradCNDCc4FjNAACdiGBgegBFD1iV9HKouK56GiO/LvlWLJr8s7l2N7UulVEFdrWJR4xEZPbcYNHxXV9YzgawC4kMDC+99+ZI708Or5uSluZcgdGWJmcNOd23OWvXA+RTK2bsIPjhPZFZZmTOs47WEgGyg42ddgb2IVEBVYNRlT+7wZ9fJNSWBB5pmFUd6dMXGEnb4WBhVQdXiXJw3ThmRXiHoY+vqqHInOWoPTRmM4qVQK7kKCSy53/7HXWNJqf0bP25zPeez5s5dmYYNegxD3hK5REVnVlysSbWOVju8//9cTHFOdZIxSqH6qwBXYhgcnFenoB5dwbfN/EEW+trSHzHci8HIN5pPZi5PGVVXhpjuwr5Zc1Mf52jENsL8tCdx0+5QpwuvCjIxfGnmosVRjiv6eqtZXdTmzGIlfMwdhe55WoIg1Tn/r9ZzHDonZ3ZLSOFQV3cvFfouUHwC4kLrmw1MDVyHXonkL5H3vXwtTklYa5m49AAgGTsICJEAi3CIjcpRSQSyoQoBU0iARmVe7qrnSIBQQrVp1KRERddBBaEXdhaplRileortNZAdFxrWvrjk5Hd2d2/AdJdP2Qzmr1nC+AfN/h7Hl/AMOB83znfZ/3eZ/XkHM1ZRJaFklLBx83Zc/4AlJ8NcNPfuE+1Jim5s//1X5Z2f5j05yHvUksrIDyWOzI3myZ3hfT85CMT9LUWTMsjChZbJK2B/omKpo/KknIZuHZgKoLV54ldCGWgUIHxiXA75sWWGVkNhbH1LeKZkhq2ASlDowrN0BlT7ozwfNecL36hgG7ic9DyDAypgFh4tkrBpg5PVfl+LBeYJjJFXTWLH8wtlUBswH4sOyE/gMZG/ea0og9QZ7WXicfehNw4VhyhUftOv4HrlVvFnSjpDNVatgKdzZcy3CHDTqH5K/Ykcmn2Pk7ez88CaQLPcUasnccR3BB/un2HamO7HxRp3QUyzzMDEoNvwCLUziKn5O+Cm7SwVMN/nmeZU8WfcQCb6acCiXgwhBcjuILsO4mW+nKtAIQrtQ4aDn5QJMZh+GZpuR8xNG9fWzRdPylZ0Hpd+C6mkrCxWMJrt299jwEXL/kfaeOxtVBLTWiJxvT1FmW/UI2S1IHxn15TMPHOW5snQ9CHEmetbXGO5O7iB+4NMG3AIU2u36VtMjwB5jIkG74xmhbRRaRGnaLmx6PlcIewuflhbndS3/HWjYGaXkYfT9qEJFGF34B+5+z29ycEhkWKszQ2ZC4w3mWsHtUljrtkwx3iNOuSUqXcKHOLH7FdoOa9cavxkuOGchdxC4g2Qrbshw7TWLtXZWXyQSlDM8Ex1sz/iS+qLU+phjmpCZJjhitaLdm73RUtnfHEABc0RcH5ui8SgLFgNTZrAtKrdu7LkfWXYI5dyq2Vt9ODHVhzDD1h+OUrrCmdNVf/NNFbiyejgoP8wTZaHjs2eW3fRG5jLiVXLA2F3tM/PQvIxMkDUNBYTS623/dvZSBMrTuqxjRnYYWXCE+ud07hWzS34vCox6u9QAKpMNIFxlDcIHbXF4ZniwLB+wMIn39xmIoqVH1WUqaGgoLl4Coc/dLFbDVJlLV/dqoUFYJukXCxMvfuYMbimToBD9wOYg984ETsqxL3ih+QVojnIiQOPWcgKoM7RYnlOQWhpihksLIkYp4ObtHEyZ8E1EF9jUOJeDCDlyO3h32PHS8HajspseDMArdaAxUxg1D/KBshccONE5GP4eBy6lHqxfwWb7Nbpnf7ksGHKmwkUx0YQguCEHMiSuRTVDwiG7NBkaVYSyAkKf4otYTMU7QzHJqhiuL7ZdCLtpxyBcArubGoiDSRcYtIG0ubgZkaaZP2+MEkS3RKsOWM2FLbN7NiXyQdDQCzoko/nSQnRmuN8O5r7Wt9N3n8lKtvxpLusi4BaTNxfO5FcxBlU1lqa+mQAXyJrPHS3g0vVNxK4/vGtBBPTOMvNP7zoRZLgB+b2G7pLIG4BdvrKs+8p62oJFAJyDT5zx7/2BHDqpsu+yltAsvTKlhdN9/7Z0W8jRROFaqYOgeH94ba83+wWxDT626CZJo6G7Ps4UdCfafCYhvCs++dzcX4KIF8rWDcKWGsbjs1hdvG1DbZTMShaaqmN7Wudljz7q8FYO4I2PVxetEooEfuLzvPQFPc4k5AZeVfKoJfAm6HPz8xvqi3xLytlnqtBQoUWgylxfmvnzzKE7+1qlAiYb78cuJQiLRwAxcDuLP/whawmDvmerACbgoN4F+mIGV4K2JO6x/E100UfgDA1HopRo8m6ix4+hDdmK/Aqx/Cifgwg1cqfdOgsCV7y/mBlyvhLdl0CliI8838ugbphqUQaTXxsGXLPN8dSMV8dacHGpReNSuteVmwMKLpwRcGILLE1QHeO2/x5ltCsVX71iRD92eYJRO9I9Wxsp+vZKUTFB5I9IXnkwmR2j1rMp1XwfX9qjR44B6UMrizDcJ1sDl7YnEHPJb1Jrj8tq7vjBSg2537Rvp6vvVLNe6r2ugn5EGmfMmvTmEcDlYXJjhmUrAhRu4NOIO8Bwyl1aVNkFdN1bWSWHoMitKx66ETbsOTpPwMAL/hXtG49x3wM7+by1MOLexCljfejsQcGEGrtBTKWD1E5cmy5RMlMeU5ZlDlh0sWa2h0WW3OGEzAwlvVDQfArSe2QnDltstTqgxsyTmL/sKqHx0MxDJ9QD0+AnDcJfZ7J6xomFLtp2VnTDzQOMQXK1LKzPYcdcFhFtmybZkI1o9RRLzeIOXJNUsC0RJ/fTa22UQ6JkowxcfxtzqzBS6ZBWk9zKQ8K7Kccv8N+YtZAXd95UgcN0JJuDCLJyDitqaA5FSP72GLr46bUU+XAclcYqpT88MUhdpNya7MjhH1VvoHDVfYS06ANZx+geTaUnMwqX9aptKgii4XhZSq88xONYYA5UR2k+7PtXGreExjZl0ZmZR3P6xvwDJ4nk+jyrItCRmYS1qOAT6mHIPLiub+K4f+yfg6OLVxdX8sybSV2pkdOtdzO084ss0oRGQJgTefFQZQAyt8Qq5urtaiS64aMeaUajVDG1mmDzZM5l8CYpAL9W+K1yMmfymwK0EFbiBy8goMnYhU2/epjShS2C9ogzhg8lGicf3HhKG1003srdPzvFp7AIqG0HgWleTRMCFG7hodtiEcOtlamq/x0liMs4+TJLkjVo9J2Mmb4RtQAWo7xHY3JZE5vxxA9exb/d9BRrn8hQjIBqwnRpMrjKaZw+uF8VlvekFfO4/FKEVIFt+SWlbersLuY9YhWHLA90mE8rgmhpM/jo/ZA7gcs+41rBTyD1dQGmC74DlMJ0Ca3IfcQpK2HT9IljuhgS4rFxCo86NbS2fNbpoorDJEYGci3IMvgMaQairbiAmGphF9vJRsAssIuCysgkS17aooJpcqLp3sBZgFcU+uPxB4FLe36yWkfuIU9AjRntCzIiDi5LFVl7WqaSzerekKt1IRbucQhtcpuRtmzMJuPACF72GoRx1cNFj/3mjkfA1kZB55TyRGxJDvrC0kLxcGIIrbNdaBepp4fQEf8SawBljy1UZoS0SGdDoIFGaYH8fUnP93xAa4d5Pn0iRf7nodlcO7T0z43YXrdbN4aPyiQiteAQC1+n1nWRxK27g8nv6RLEAwGVlK8xM640pnhGyzOboz1LSMoWoaPYgw3N0n6vPhVxIvNJCvwWRFlpNtbsarg1Fm2fAyJtD8nOPcGAKDzzCErD8qbmNbGLAkNDYU74QXi4rKxdN05HcmTSTzYqtY1eimFa8sgquPJBZPNEWYgiuBUHFT4dNgN+VsWflFra7TEaFqqVWHIQQS+Ac9OW15o9BqvjKAAIuvMAFXSWKGLis5EHi63dVXpY2uCZ0o5UCOUInsIlNXw+YTCXzXBgSGsLVAxejFwq4KHns32701/EsbXCN5gncUDqAvGBHdR14XROZRMYs+EsfxG1CzSoejC43Qd6ulUqJBdiSJEcO60V8pH5//s6/rwRZq/ncIR4auIXhWMk4eOQEOZ9KyiBKv/ddtCVq3cmaTjUfqUSLEjad/Rmokl5FrNVwC3pYUrlQ0kIr2rJm+e3/nLcAXNERP6Vy6VH4rhAm/vIzsMDtSCXgwg1ckDF/nwti5DIVF03UTzonC+j472M6/s2tkdrb7NH2qF/+tVCoWRLvocYGG9QE3kw5FYoYgeW8eMuBxiFLel0bft9yfa8AKXTRHfvjYDlMKgEXZgGxVkOv9UJZByQ03Cpzskil4fRscCQPKXTRWzz3S0G70MjLhV3YtINbL+tqipASDdjK4v2ONJYxGOv+b+2CSjeahxJfSDl4fw5aNOh18h7Zz4VbQHwqP97a9mU8QnI3StYuvpI7VOxqqfrJa6J/tEiEDmNIOYjR3IVGYn6ClrsBtKQS3/WdH7iggy03Qdf1scJoi6WFJpPXRORRfU4WKq8v5ejdYQ/chfZXDnehkZifVAs8BWEsre5Wy5HBlkGQ9+PdZyHPZ2CfYZJORA7rC4SIoIvS7F4FNn9KE5BxLswCtvzOafz2TlS+phRfkDfaX+oxk4kTGl2nI7Xpx7LReH+nRPGuSO5CIzE/X1PvC6BUJfrimSYhGnWALV+kv9GvUvyXvWv/aTLNwmmpCx8tBUorl2lpoVSwSwuUtpRyrSC0ilxGCqbIfcEiuhBGLuWqiTdmsVTBwVtYwBUUUccoLhPAcZ1BHXUmRie6k+juJpPZH3Ym8w+0X9l+OMnO7vrSV+iFfHznZ9Km4Zz3nPOc5zznfaWfLEHa+EtZDXl+a+FnkOmt4AtC3xDsJ/wFVxznA3UQYNXw/L20A2tC2cUnRGMYrBCx31u60GL22qL4putgFG8N/A5q2KO/1qJr9ugFYY42zzjBhV3vHmyiEbtex64FBAshe5/J1snG2daVCBdupim6KwUTXPeLWcfJ//DPJisRXOsnuJbZlgxSr4kj2J680INdl2q0QZaVHWMILFebbg+7f5y8JAbEJk4ir6OykIotdAFqlfDMNcB/QrgTgsr7+mkv8woPnVgWmeIXU/V0dw+8kN9sfV3kBSJofLaRCC7cWX9P5dMxgObfod8bhO6GsJB++vC8SV0eaF6FBVddXTAw3DzwQvI2fgACZtnqTQRBA3/Gy+86BdiONYt230118/CFsoNRP/VEzFxczX2uJSrUjFGT61a+CSVU1Q1A4gmCBj7NbyD75NlAgH75zU/dLLHsF1JsXLhatZr7Qb9QocaVuqyUGHcqaiyDxKO1yc0EQQN/tozcl2VfzXyKOwddCC8m7K5OJopAVxtc2MBrNGOPPMmNoCE17FEyAIk3/25bK0HQwCGiEQPk5Fijj96Tu3HQhXCT5J9kjGqDIELLnt6axVw21lHgTtAQiZMvgJB4gqCB0+Dy3vqZGthmn451H4aFQRm3CzpoZXZhQv+Eselou4hHYELJk6njboM1kDjO6z+CkPjwzMMEQQOHwRUX+wNwg+9xxl63ielRdjBUU09KEuwFDYpGfK34l+zO2GYI0LBiyKhhkd3ixsuDhac5LCK48BdcB+QL5wGAwc6fThrdJGCOkFka4+DTqmC7EWONbqz44dmzv49G2p+ERYzLHrZLhFx3JK9lwcKjOgIsxKP5pjxK/gugq+Gfas93yxVsJEAoyepUjkMck2Q+3n+5dLuk5U083z6HI6hNL70x7BbhGjI9CwwWyohtLlwar7jdBBh0WWuT58N83fHKUxl7r0j1kRCMJ+YG07PD9FyWpu+NrM3e31vM/ulFLxY+dMd6MjVsfhmwkNjmwqX5CPsKDwHKlejJQUGuy195rCQ03LtZlO5vtosBMjds+04wEYDYOrTSQfvRZbM6fvKQoTjX1UsoSK58cLLJDFIrIcBCXJpH3tbTgKUTCzs887jLBaAQrlDS+lAmqoPg5O5TF3wnF5I8MZIkwwAVXVZ2GzZPDnVx42VruQpLAHhGkJoAC/Fpngfkt/78bkTDEijaneVqApQtBw0/kOq1QfYX+jePdVz8USB82xUi/Vju+truzpfFMqutuf+PralUl0YXCczPsDZNzshzieDCJ6Ixr0wHuOSW3soz/a4tCb01fXMvoEpCr0hFxogklPSLW2K5a+ipfTqHrfEqVz+ZKtW4tDSkhjWDWi4Cz8CvcYuBorsWpmIuLcSFLugRIJS0X1BClIRLG/ydLWEx/5laYdH1eW8jDBGR2ViBlYauoxoiuYLBo4CWi8Az8Gt+E0bpTzvfmScWgzZk1ruw1fYJKV5CCb1gYosv0xlz/kt7xhZd9ZdfiZkQm18R2tHuSk6iy0pDj6j6jMdeBJ6x7hCNmGEgohEociGj1IMXE5Z97xVWEkLEVptsxpD/P6ppSH/q3memon0QVN4y2h3TZVWON8k1yYucmrVbhALxDEKdBq+IRpz8Fuh0q7U2uTnFRYrQFOqAYE9mvAimrLOy25IXDP8/rkICBjg/XuygwajyMg9VXGiXJPW7ZOS1I+VLGeA4i7Xp/CCBZ+DVsF67HOCB0UffcPJc4X4ImZWj+rKgY9oLZr+kjp987513Iz15QvmebgUEFcq8GKHVS2/X57sC16BE/anzTh2xzLX+jJfffooPQrsPSfsGXFAXUgKEklZdxdkE++v8b2kWL1XvJjEh5JiUc53xUHI2ts+5OXTXFbgGj9G+jR9oJpa51p1hxxjEIAwBA+Odvo3sSWIV19+WKvgQqp8Wy2ykXtr8FXAzy4+lMepkfJjoQqNFNRmVHLqvj3PDCwmRXI9PB11Gf1xI4Bm4NYQlGDzPBHUm+kGBt5P/9RTqhCRLdxMGyViCCZWdWduXobZTfPMNM7I2tv0pNIqWjd0xTfWFRTk3efkIVRlq0MPRdJRoufDcdDU8uEoDvatnC48N+Dk1tnl5OcebpYrxYAgUAoMyZIOG5Zey3opf8+tgPs/MbFRmOjt59edUvgKpAFlrkx8QLRd+jURvBV3AM5unez9tcCJeiPj4Jqa1X+gNT4e7u1XHlw0Z6HbmUwiVoXoJQ/NYQsKnO0xTx2zJy2m4jUeeYFAPun20U1Rwgk4inBCvRgmtzwRWLcxJ3WHnkXc9eFENfdelem0TlPI7BmXMqezvYyH9jK+apfrIWfuNl8USiCWvPRyG02BDEr1FegjU1Abv+ttwDNFy4dY8fSWfj4Imr/5Vu7sYPCeFFonF4FRuqiiBSlt2oYxfvxdc4fasTiUfTgM7KLLDNNdyUBjglOSF5EpuKGmg96JceTuFqApxbDzNyH5QT2BOr7mWxnKK1/nsmJC0zJk6tHCngVB2mx0o49cejS2FYbAGChO1ZmZVfOHzvcUsZxA2SInGwqIIFFQV7iaIhbg2n6TS+yAwHmWLpS3OaAo8uFE9pVeqaxqZkFLVESLZjAFeX4ZCpRsWkmFves3SPn41lJWW6nj5GiRk+6OrW4CiObs690YRVSGODWHFzoEYUBaUprwucThWjPBYjNiRh71FtFnIYyUJ4iMYKwPeEW2Nl+rlC/E+GFjDgqLRolHp9WxJUr+DXZ2UmN39UQS4KmxO2UF4IJ6N2vPtkWmAD6Lfl1Qfc/DKpAc5JFFybso0qQ1GUSgZeK/pyYIb9e+n6YkpH94oULTBqIpiM69acXzhz/XF3g5NXraO6+fkMdRMVIXr1cgD2dXiWYCX21LXvENTF2Jrtg72NdsqwgTY4yUR4/GZI/KJgPfLKhTuhLzroVIUDPktbNpHR163piWGOLD1IqfePSkGDrSJqhD/RsmTzykSQMHFxlKX47ouSkBoQ+mDQlk4bEVoNjPP9s4Ye97/jgJCzjtjHOoVJ8ApyqNoXZtC+sWx7QMhZAfJeL+FCgE3MYmqcF1YQM7IfhB512KlxV9LcxAHCqEExBT/9pNNveotEZAV4dLu1dRxhu9K9El9fBn18wUdY2WQt/P808XKwivGlCSqY9RQSanHqkvY6HITZKIqxDteKFRlqoNRUOo6Kz1R7BAlTVtoaQTtQ6c6tLClmnkxInK0uzJ2YIWLV0jAhLwSO+dghTyVwh4rqsh4/mFPFM8Bz4mtJLiupAEfkeBdl4gJMu7Nw/fgvLIcyIxIV+iOJ636hfWkcGNyOF23ChRVTPhLkcxDmN5FFGmlozYPXlTYXV1FVTTktSErWhf58c3OEU5+Hne14z2Equm6KP4eBQKxGK/Qk3A/nBuPfq6gCsiT8I88Mi9hre6JpfhRo4pjuwYLFI3pZdChtURbV61KqcnTJ0SjmnqiLveH/tZovsJ065yc4b06dUOEl6i6oE8HT8VLqrMTiaoQ/5BGDEc3yQTzZcOlJzSr4e8iJNZEw/BS1trnBe3k5uDx0YzK2NUKyVCoqRu/rYZaF3vr9eadCVWj0mu28Mrj+qw8s/iFcqaeav2B+Akt/os0YtsE/4ZQe54fiVwE+lu6vrN05QcMPHi5iRLjc53p3+xd+VNTWRYuQrATsrEkJqQhJiHI0iRgSCBhCauEACbEDqthMwQQtQFbAUFQpmWzVBRoGRhKQZB9sxDHZQaH1qHVctquqe6iu3qsGp3p+WWq5h9IAvMeaE+1JSEvJBEn9/sDyH3U+e537rnnfkdUccRk1dLrqWG8tq4Flt+W50FimYyUtYfOpv60TofJ7wmB6BUsY+BczMwO0ZSowkuNnI2Fi6dpkTBB7P3/w2XkYkNGnmHjxPBZ10kz5zKimRQJX/q4oamZazq14H7auDrlaGsm3QLd6nCrIWzRcR3B79PyedrBuf6y8ggSyhzldCSlXmi4TV41IlxTfCBcdiFddPhCZuPi+H1vYVeuGeNBHFE4v7TQqhlNZMZ8oCsCaunIFcKEfp8RC9kzoXHi4CvxWu4h04VT75nfKErOmY09I6Yw0UhZgCZFkHvUAAAgAElEQVRlSm+I8Eb6kHkqIFx2AgfJgoa34Y0M7BRY8OeTCKeeYl3cncXlQ/VTGiH7OgfB2PA3D/DLgxws1ZC/VjXsvmnqq8z1bnnMEe74cvyYNDrNbx+ylRDosotdIb6uOmO3h0C47EW65PyZkI2lC9rH/1JwB556auoBH0tg0iNSfVq+PaUe4OE5BgTcWreOKYFf31vwCwl0N9gGx/cQEv10JdckRWoma8uixIp2k70AsA6KcmmfMB1jRLgOqKqAcNkLmBKpEemC2TUc/nViFMOkBj+0A44SkMaPLZwTPKvjLnoiopYOg792s7uaZWnTM0f3CH5tThMC8VovWV4/oFX3jVX5pEbQofTQhDWhoR+qTxiouW/kOg0fDoTLvqQrHG8w6iGtbSg8m6nYpHcBi0bhgojlPrn9o6rK0p446KhlYqPTetjpyAe1qr8etkgl4+26hrOs9ZGgNJ2DhFyGFc9FbtaEoKsklp8WQCExCcYTREcHRebQj5fH5430XAHhsjvpWricccyohwU+6Wh3fWiaHw6Ffmd2iIWJJWcQo65eWOr+qkPr5EvG6BDiPv52R/eClR7do9tH+LV9z3rCqKumr0hv0LkGXu8pXY4f7c/1YbkxjrujNipwYAm7FG6hid3LTovGulAMQLjsTrr+05RuPGUic0WCqfqdLKIfnQkF2K8A8eq4gkFkhe6vPnFDGdnM817kIGXWKvziPn72kzQ5yjqRB52GUmMnlXVxCJdmMGDINU7ajoausfon/NROvz2419//5g9/9BH0H3CXB8h8eh8KRJt43uexgXDZWcGwM9dIt87rqIjpGVCeOtF7lS8TMxQ79uzZsQ5n5zVeecVWn+hSJYdncYsDEWsW/HAr7nlHtxQ62FnPoB6NkwSXJJjoivPW6ha9nzZHXrr74ErLEx8WkaFw3rGH3s5EoRzccaTje3b4dcqiY0v+IAjh5ecZPWVSfQumgXDZFRxxqbWCA5v1q9+PgQ4gyruTJdLYnV7Be728dq7h7Cf7q//YfbchOXL8aVG+x6criEPXAD/4EEKy5Ua36nAE7Gs/N+9DZrAfE1g8nCGqHLz7t6Xq/We99nqFsmREolsqKyU02OtJy5WH8UdF2fm0TRpAyHUJ5zuBW6FdAa2IflSQTtVvegDBc5PuVV5uuPvx9z9/AeP7j7+88c1nyZHNSdlFxcfMkay1+rt36eDoeRZjl7Xnqqw5keY0ZRTnmbNOKi0sjstujkz+LOHLL35+tXSlOrF2duzVq9/s1ggqReyaMIzOuKObnlaRXFhOAsJlZzWNztzd40dMOIBQOVCAZbOTrn2+hmtOTk5siFeBNH+dwTxq6TD4jJs5tdFikg1m+mCZClnrvzX3uGQzFqqHqEOFFKwom+30+T9/+mFZre5o+uGnf/0uiceNC6OZwM758EkvPwIINzuraew73a/kmfiQkeqPwdAw/4OrzrCiMxfUsAqt6larTOFgm8eDaNxIdGLX0efz/zB3xZCCQx9NI8f4FhV5x+WTAzk0f+oa8zZt7KpLaCGCaobdgeAX+rDNN09nWxgMHul1l+aqUiJsNqUYnluUVjabIIS917aC1TWe6aFvMFWyOT3KQhbJEQSbHSaGrTkDeFsyS28wcPBJbbtLvNwoKFueQ9DuDNb50cHS9GMGBJfcWwbGt2AyGCSF9lkxlCU23Cbbkl00PFuoGss9bcVBIxskwS4kcXR9X1sG3lO/YiN66an4gZxYMUgK7bNiKI8qvNTjYbO9HH6VqJpuSRnZR7B9+QztoEg9+VgTwsun2WorOVL3zUImDiSF9gkXv+DpNq6n3ibsyotpHBicauGLKQ7vJ97gsZZV04KQnnyMLb53lew02M+iA8cne60YMkeGHhQM22Irp5K5IvXchVAihfneLn2wKLmE3zI1qG2MsX4dx8BpPPptaJALiDK7PXa1E092Cb0xOmtrl4dvXcdc7cs0Zyb2/e4mFGLohTm1iIvA8c1MbnGbRs8GgNYMe9YunBvMLpp1M0OP+aS2hNmyzCD3954kYZnOaS9r73TU+XpYmVttDw6L3UFrhp2zK7dLWGNFdsEPfAtUY7nlDPdtcf6AXbbLZne3Jc17WJNbE3/aTwTcAuyC2DXsabBCjOkNurwwb9iaouXMCImwXUJtbT7EmKbgXA3Z1UpSzW2DuNUOuAXYBWWGBVwrbOMGg2dMRWlH32xslJiO2kYlaSxhX+eZlrH45TpuWJ7O8lcR5MamB4BbAGvsSjv5wNThO4jeROF52sE7/UOnI0iobXbb44iSd0bFzvZ1lFbEIHT92LwwGpN0aXIIcAtgnV3E1kfK59ctV5+GTnD+0FFLKJjq9ZIx9rlsw4tUNIoUUT5Uckephf2qLKjWmPlxwY9eEnDeAlhnV3unT2G8dviQpTrvDLT8CtFy/HRVtFtQ+3btrXMk4Biy4N4pQTgbf4hqoezQEMgNSajnBzBBYwbA6ziDbTTv3MzAb/k+GY5Q18B5doi6azY2RULZtZ07FLCE9iC36Kpp1USW96LniiVKozEZN7ulpxUooFsAv4BAzxy6pQrpidlq/exTj/yDzROq0cSzv42gb//9G72LQuRLl24otQfwHq5bOn3BPf/ppYJbQ2l00AgP8Cvxch/hL0xeFnlvoWy4AjGLmyVUnvpOyofyQZcPYvt2dJBLWFcvPNRMZB3EB/pvgVqe+Iy2nFr+iDtICQHeypFQcuLL2hdt1xBOUXiTDOowx4q5WeHqUzO9O8tHzJhn8B6/HAdlh9Klr5UT4xVxZIxJb4zf/n6IWrwQzdL+VGeQEgK8I0ViUjIPz2gmmrmIXAj168lg0dPxSPWpE4llURJItD6szfsjtINczNrZ+/cXg5Wi7DgyDVl+uAp9P/5AuGZmIWUEB9rgAd5Nr/aAMxe/61Mj8s+l0sh47rnw5PgXJ6rLoojwkJAPcO+G5UvC2ttS+EJVKXIahr0YTfQJWaFyoGQ4UjMj5UvkQLYANg4xeierrHYqvrL0qW8Yx19nZAuHFIuK8QiL4zr9fkKd8Kj+cCgLYhbqg925IfnCKcTlwecL5+KThePs4eJjsMPVJgzzDyz2Phei3v1YGi2RMwG1AIzv4H5u8MySr5bv3c6uiQn09Penwpejv9wDrbw2Q/I44nuQ/V/27jWoqSuBA3iTXAgh5CGBCMQ8QIEQwBC0wRiB8pLnJAozRoT4AKnDG6pdWArhoSCLKI2Iy0LLaIXi7NBtXSk+Vqivdbvq7Kp1x13conWktbPOdMeZ3f2AOHuTYFdCwIB2ZsX/79OdYbg5Oef87znnJjl34HRpZszxu+RkkC3SMCmv+JyIQaO2OLe2RzZWDJ6Mfbo346JpdrsaH3fKLfCvbViZFGsaslWIFthxBRdr1O3K5s8+GTm/f2VDwuXa4HKXsKAlHpbN1Ra9Y97GzyGhIafQGDPStyW+W1lsHrLmR98iqDwvkWuxMr9s8EBsUdKbDQnmfRpNGXvWEnIufLkh59bykcGK7hq2lIkJIdh3Bee2uKsTk4XNFYMb2mKKjPuvnm5Y35Tg4LBu+/amzlVJRX/y6xH8/ejBfd0hoSkqqaaFMq+W8TRCwtRI2d7KwNTVFzdYdhjuJN/9/6wzbRH6fszXfdua48JdpZxpHgUDYDtfYi+t2jVcGdeoj6+61ldXNzoiEPjt3DlaN1iWGhi4S+hbk6iWunPE82XIsp4hUpgayxMndpkyVucnEAjaevz8/HraBILYnaP3bpTpfWtSerVMCYFBC2bdwVgSjkIrlbWuqU5W+oaECPn8OL5QaX7oh7O7giPhEoz5fMU2PytJ4T7xVBfyvfN3BZKXFdPDKOJCIqvZInemmEtDsmCuKzAaQbAoPM4OxcQzhBRPH1dFfz161cTzyMzv3tnCXA2m2zcMBAteQhej03989N3rWQFToFMAAAAAAAAAAAAAAAAAAAAAAAAAAAAAAAAAAAAAAAAAAAAAAAAAAAAAAAAAAAAAAAAAAAAAAAAAAAAAAAAAAAAAAAAAAAAAAAAAAAAAAAAAAAAAAAAAAAD8P2AwGDSCIFgmxMwHBIugMUxQawDPRWVqtHKpSCSSqdVqmchy0DvdgUwk1To6KhRMCYtAxgBmzJb20TeBefmpjXp98269Pioqijxonv5A38gXCoVKb9dekVzDFLMQMIBpMBP/Pdxz57qhqMhIKjKZ4aDIUBRzSiD4oG6wYl9+nm+4Tu3cQiHoqEaAqestTeS9rx74XF6anl5bUlJSm54+80FteoaPQ0JC58r9RkPsgYsHm4XeEXImFcMXwJRwOQr33C8IMEtLS3vuAcnJyckj6Fz5w6UJv15WeP7ru6v5xSpnCYG6BLAKF3/PhwFjszU+PrYwwBSx9PdWra28G69coxUjXgCTwxW350OnsbkhI7YxyCWrYXN2X1XIGoxeL9QQ1lAl82Pkmmu4LAFbEBS9NOfI8Q4lW4O11xxRmRrHyTRMKqrldQ+XyROPt2oPL/9kd42MR0OVziVb2sRIIT+O/1QcXxiZokW6EK6xscfjY06bli4739+t8+KiTmePmfJD3+jOZ432/fBPJioG4bJY5JJw7OSQt1yCqeGsG0ETOfyLpu3Paqr//hsNahLhmhi9xoMW58Rs81Xz0Cdm3QjCkQcFps84ngooePBBoDMqEuH68dbGxo/eW9vfFYF0zb4RBBmTPw8JyLiOcCFck4RlXOlLZfPwfahZNkKcwGFyIzg5+CFcCNdknln1X+SpsO6a9ciFcCFclvXVDH9bknVs0FfKRc0iXGjXacK1wGlaAWkzj11L124J1+DLGggX2tVmuM5l1fo42Objk1EbHB3mSa6/H9sewdz+bBjStaBjIFxoVxvhOpdwLFswnVMxxsxjpwfSyws8njwZt5Uul8MHGnspqFuEC+06NVz+pcPfdQn5NsQJ+V2N+r1b+ioN+w/7+AfZHLo2flz6j1B3TAwRLrTrlHAtDDZ2pMgVjrZppTJ2e3JI1KE+w9Um/1xbY5fnuuzVOnzahXChXa3D9TjtobG5lUJnTINgUXkcrUwX2XztTv06l4020rXp8PFdUhZqF+FCuKxGrrQsY7z6OdFgEBJNa7j+Uvbh4NzxKaOXU0nSoRQeahfhQrisR65g41Ar9/n/SuW0hq4+eyw9aGq6ClacDJHPZdVFjox0Ov3l/1SQ8Qbd5I2fsr8yLIWf/WsgXK/Rmmtx5lCEPT8mYlA0usbhK78Kmjp01R7pcJXMtm8SVKbCtCniDg6TKaawCMZL6fE0giVhcrx2KEwn5pAn5r70HRcZdHPZzcjX4EmoLBrD/u+A0RVCW+FyR/ecf+Ea25q0l23frXRaiyqu/0pJ7hPrj7w2rbxYw7G/BzMICnOHVsT2VgpDfH2VocnFKWy11JnDo9JeJFcEpUXhKBe16qprQpWkyNCa6kR2r0ju7sV8aTvC0bhijsJS9jhT4SPDqxMjZFJ3L7LwM9QAjcXiklgsFo0q7xJctgqXz/U8OUGfshMyfoz6qoerfH+Vzs5hhyHp7er/Kvh31uHybIptFNk5LySoPI25b0aVfXlvz2hd3dkzfX/btrc5XxjarpJzJKy5DDOWtEYUK4VdUfEVNz+99/s604kvXNtSFZ/aLVQWs0VeLS+8LQGNJebIW1OSfYWNprL/xVz431w71KHvJgvfqp0+wlyOqFfVSlLLROrq77IfLpj8DZlaQ7xO6jx5J+Retcgd+wC94uHyLzykE9s7pZGo/njmzc8XjllPLZMqXO0Z/egsnrOqWpla8e4vTxmS/vrt/fvrGxpOnN58K9MYM/LFzaHAmjUiDmV2F2w6OUeTs8NNab1U13bKYCxcdfv2t50NDZ0ncjaXJhmLYnvOXipLVbarnMUvMvckKF6yxBr+vi1HN7RZyt603vQaVwszDTGVZ24M8b3ZUtubOnLdHwX+PJ60r1mvb+4Yro+2qsCs0u/35eXl50c9uxOyPu/RvyTotK9yuB5H39qWIrb7DDzX3XcG3KxXXW8tOxru9fwrP5UjS/SNv3k8NmlVZ0L61rffWeSxJDfILczF/+OSy023649UHq1qDGc7i+2/sU8zJ6tr75d1ZFrJs/qkB5e7FLgF5eaSJy5wid6aleHTdGLV+7FnbsQrdVIma27xIq8KWnZy1MELbctLTzeYy+7hZC58wUf+i2t9Bm7XL6/sL8sLV2ls/EhAEvGf4TtGiyKD8erD31qtW885lBr8rt+x2gn5ZMUjL9zmeKXD5V+6LVFsf2f2Cv+stNx66PIcqOx+3v1CBpfTG9546Hh2/QqfrW8HeQSMjT8hV2/mm4/jY2lOS9yis5pyknr6f6bUacX2jV4Mqkbl3bX33T+sNad1k5uHU8DCiX3gJk68MIA8s8vidSvqs/uqdrVLeXOYaTEoHFlKSMeFmMKcgZLoME9z2SdexjRwky8R9nnJ+pWZfp/GR0ZMjVfLf9k716AmszOOQxKHhISEhIQkmmBIgoFACISESyDcRG4qFNCABOQS0XBbQeqKilzqBZaC4IIoDqMIiiu6XIpSsSteBy/YXal22bVlVm3d2lmmdTrT/ZKEbV4Qh7zvm5DwrZP3fCTDOSeZ53ee85zzPP9T86L1XV2+oZXVbasT9UDvM+7m1z0BKSHv2Ca/8ToZCbv+3+Gy3HMZtjih2VONTHBafdmJ8TbzR45OeKF79qt1pcGd16kM/YJtGte1/KJN40f2NcqkI2f8KJYIt+E4SeGSuImHKfIM0TytphudQRWobia2d3inJ1sbe+FQtPDaqLyZXnk8r4RJNjUEmZkjyghT36+XhNOMh8BtVgx+txMQMgakjMl0PVyiCxmLNZY71pNnfyh2Q+CyJbjQpNqJMALYNKLLO8y6PzRHvKlhaOxoBi8Ia7JGDPgrnUnoPN87ckYS2rKcJ7Q3oFW/Vx2WIcphps3NmS9K+0WnY90VaRLbYyUhm61KJ8G4hEriHq2f1pTl8JcpfUtjElQB6vtxEpC0CGnjm79QrS5F9XryQ7EnApctwWWHIo6n5IPX75KbVyVmDuMx+DaP7szpUYEPfXmjwkbWFahvNSTQzLoYJ1KbpH5ALVcRmGmWSsJ5BeXflA5EnRbbW3wwb3Bb6Y8fVYedE1C3W1BWqmcRfAO2TBRR8EuWBofVEW9+9NGvAK4iMQKXTcGFEZ99mAHaF+qYxzID/R1MGqhjQtRAr6bP0tUbm6Msn4mVCE3HR2iO2+6mgS0yLoGlN18sDe6Zm9t1KEK41sKtIWatUNKc+byCwNdaSLABL+Xwnf1LlwYHf483P/KthgvL/bpIjBxo2BRcdqTaW2GRIENgxJ9k03CmQiPhxgOZub4lZCvUOXjB0lsNRFNVmDiXEI9dMU+VPXy9XmedyTK3anpfsUMtE/7AtRAfT0iDKwv1FqNhwKtQJKvaJwn9eEmF82f/9u8MrfVwTXknI3DZFlyc9I5SAdgQVsUcMWEIBgN1fSUN5vGtsixyJHf4VCrFBF32Qu8HrQcFVtj8ksAoUjl5zc/N2SK2KFFfPVdGkq0bYY4h0EgHH39cGoCXm1agC4RdhQiu2Rxczm1xJzrpkC2MiVUWh6dE3Z5U3iVba1uFPFn7fgoetlOX94ey4kvStCtoBkdH9W19pUhCW8LW/nYZr9D6IciRyuffPg5f62DyZ7cILiSd1+bgwng2rAepWs5nx8HCBRjonSuV1ofz2jlWpWzGQBccBC6nfyqt9NLqtCtr1Mbq8XQ8bnm2sttllay5lQxRWPndt65CFAIXApdVcOGSXU9ysZZtYdAtxNQ7V/7ImrMeLp2OwZPNZMNCgGo7rj7HXLngYk5w1X7KMtXTAFszskqGbkUIz7HyJ19spDkt/OwbELgQuCzsBVIzYQouHOdSw+1cEQtqoLqlkm5eado5uN0Vlie7kU2BeakITZMM5F43J7SoM6u6SN4qGykKRS3H1g0Zbxm2TH6om/OJV+9LmF8ZVvigJyJybZNwucLABbvKOnv6DXwm4sOd6KUxc3Zs4646V1Gh5D6Z5e308dJCvRujUjbSEGIP7RgV0qSOZ8LiymCWRAsEldGEEiofayosY4iGJyQ0M5aLMWxnZ8ywtbAuMBgMrIlgUm9wj5lRIRy7j09RL0pBks10iDzPYOtwObJPWgYXJkmR19rJhEJDB1KF5InVY2v+fPjw4TVj0s/lx2Z7mNCdIUt09KofjKQvZnXt5VwBHRbXYwXD06XTw7lhwRncWUEQFkZyUTdXqNwSF246kR/nQgTOMmDY0umB2QMDKSsqGhvjV23r66Fuh3NhZF7uVQ9AXASXFPHm+TvVohZkXf5drQXakap35cjDQjYYcx2J4VoCF64lfXz9N9CbY3JQX4Y85eHefVGubEDAbcPZpgN7q3pzR6PB8lI6Pb+zNc99NXRjiLqUPfax6wWDF43Ksz6JOfnX3wwOdXd3dLx4eadr7N50cGcOC+YyTE8IuG/GdaGExbfh4i3gkvguz7AuAAMdfvv2bdea6qynwZ3RPnSo4zXMvaMGyFvBJ/z8ct3UuoU2VV2+CkwXkBW/+Plim+r65zjyJJ7NnRa6pX6yjWwBXPahDe3ne2DO2DWJDwebzyqIbskLAm5iIUXB/vTZWC6XgIVK+q6vJ0ITKnAk96HpPvJSg8+qetBcfGQD26N2U3p6QkKNIsLjbNOuEanclwClRM9SqU27LgxNcnmYBxMqalkE34KsqoHm1CNsV/YGtp+fa9SZ79ulT+MFMAeiJZquVKEz8FDrf157L7ai+pfD+dB6rrgib3B7/f6/yGOuNgYXirgvcQfkZOviETBcBgsdKO/bDrkC4h6tOnBBQRTjUZgF+TY02omDFxNrmy5vKcgHOzpddMAIG0a5zUnYkNlPnS/7WDD4wdgiAFdH/1+T1gLNBU/yF4cmBNYPqgM6g+gQF0SQDSpIpu690/dJlVA5A8PkfQPUXzZfmB8IEADx908WEms86p9dLB+F6s5RZ6U/E4GoC4VPcvzQaOL0f6jrYCqRxTRHUEOeIbc9uPCKvfIc8IIOTX/CuVBi1UpwHPUHgUZ6qzjBczMKlDeIsV8dIvn0q9bGHGPD0zHKWnfVkCAbQxy+ZuhzkZdWz+9RydVfAGQBnQKaTIuJEQ44A7WOREn9F73B1yHHCPzGmGJP+ORFVGhxZnAk9Izib5Ua6f36CMqHgT4oO9rjk8MVUc+qz/cZf1k6Nb+g6t/zcC2IRc03Oyex6xoujIaGkx1ENBKxWFuDCy5xd27PsVOB/sbG4OTmfeo8GEIs72lVsyQUD1f0gUPRKK551RpjDnTaoP6u1EvQNdzJ7UKm5nfknSqZ+tYHg4ebLto+iRh46GJBNF0Ho03Agf2ZaJKJowIy5C3NQpGsKzYiPMkePBDamRS6cfzUUd+gJQcbfME3pe2x7smQr4qoPyFwmWocSnOKCLTL0u8Me+COBwVFu4cS80GDbd8qbz9uupYEzXFTnIkp6DHunb51+IU7dAPn0JLQ3Rr/5KZ0oF4CY/BLZmKffDr26/4SqGbVNcVmuEx+TnjcFiU06cln9vnt7HRHe9hEFOek9OK9KaM5WN3H9PunMUMXEhxRFtxkINfFCFwLfSRJHkGS4rU7EmOJxmbkLExd1x9kPBT9ekFmtlGpE9R51cSuP2j8b9o9GVMNQpioy9Pvy6yszGaDL1mmuNhp9e7uXhV4h8rMqIKtl8IlRQwGEPRgv0XtnLz/mGhy8piWNo+8ewcXXDU9KL9APdDk7ubiZIfAhcBl8XFGyPFqSCSFfVKdaqythnOp+dMwz/gOV1fSHxO3TE4fxsBBii8ftIErzYPRy8atpRR3/FSUAO9LQFvZwGu5YOUPr7ITcXDaBKiQOLWKBYbLRzV5zTXETB0YmuNZ231vNGi+rKW/deSMpI3k7GCHwIXAZWlDJ0n+dQVccKLdc3DmtfF5BjqZPfN7qvHdKlPV2w1zNAHyMuLAwStbjQMequYGG8bHYEjh7zcJ8RiLloSmKciNW3R5How2gQNeMRhGAN+M8csmv2df4pidvLN4Y14Kt3DP9fjP1u1i/4oGDz0CFwKXiR44lPrqCnA88j/2rjSqySsNSxILXxISlkAUCBDZghACgZAAhSAgi+yKCIogUZBVUcFSFtk8UCwKSlVGKFVErXWjFreCVsBpzzDqcVyGHrHi1lY745k5Z/7MmRCYBND63e/LJoHTo/f5oV+OH9F7vM9973vv+z7PWKbgGjsaPZtpWw8XOAO505pucaxa/QrCsdwHokAULVOrvLbi3UmRTCkUI826Hunsrk3gmiA8dDISm8uRODllSRgFnuVrBhYfs1WjDmDEcSjKfx4uSDj+cYW1MiJCckFyKZk+1qzvBB3gdekybkooWhJbn8K+dR14j/GVY4OPeulQpHFFiZcbeltGFXT7R09r9hn5LQoOB/o159eWOWDriwi00BQusJ+VBoraFgXYqlXe0DuWc2ok+HRY5THlIjiQXJBc+OcNPH56U0HPGFa2MAd9ZaRY/kvRNQvMdfldbE0U5Ulk8YAnel+WnRTSyZmWtDNiwe8WBILaBCE4TWjR/td809D7WZmVm1dJhAbOz0gj7fGuRXyahQrVe0guSC7cPaE1f33/eSCTmih2uOxPQS3reiahKWiJqHFG6Q94Z354639A3Vp06FLcScXZTmvseible+w00C5TLAvngXr7MarvabFG1rREU06zX4xKgQ5ILkgu7A8b0mnu6f2lmGN4mdVgQp0P+tiNwr4sQJ1mj44GberaGK2RpBkSIx7I6AP0sosq6dMaO8lvdUIVerfnnLxhNcY/Qg+7K1TUIdYFaOYEgxgSjEjq/hMgud4fcqVrQC7E0IZT0fBl0/lATJXeGNXzlBiduyBk95/Qu8LRnlX9DRqY7E1FmRKgenF+7WcOFtNyASLy2i8Nok9YlhXsbsCYalLY1wSZwL63L88UL2YAABmXSURBVKOIr7PmD0iu9ytyRajZcemTCNGcCNY+R0EBA6ehfTBhawD6G0jWi7ahPahGGaJebzMNJxCRk3tpLqoM1iAxZLoyYx6LHRMNQK91jAg3EuP9U+lm0JM9fquJ3hxILggtyaW47WlpRPSVWI4TiYaERjqH5t9Z/k1TqRNWfU8mz7hOgeu6rTz02KEys/Eg3Itg3H/lHKKZ+59bUXmPcfKGpRo5gCkbiKJe9h5ALunRlANAXYminyYYsKaTzk/6oZ1HguSC0JpcHdfve/t5KHxOP8ADz5rWwm/febxtiUgiZGK7B8dcwxPqQN9XCrvIF9hbrYsvX9FoRNCztWmk0OkUSqOpDR5MKXQKvdCn/dMLfUB91Uc01Q0YCEIyspX/LP5APHi0X2sAzzmpHdb3D6+fJs33e3/KHEguCK3J1Se69LLdwcGBxWKZg2CZL25vOJB+0jJekMTNS8VXoxh65G+BXteRQu/9ta4ocllJml7yTZoDaHERFRvZbPbGlpaIqIhJREVFvX6IqmBXRorbX478IgQqgy+zlU9whCgPr2RO84qNkd4O7u7YgchH8ut/frsBLAzFWN8/CvvMh5kyqZbEhuSCwCVXquR6zYPq6up7P9dg4Wh5qT+lXhRuR83Gt1AwdvLF6ighZHPLL6zAAPkw/cCVAzvL07u+l+Puo6596zFIT++6dfzMkyef/u+/BWfRPS2t1WBPy+8ZoR4l1qeFz/pkV8ndJ1erf76HM5CaezW/PReq9f1DPLyrWzejY67BquBcaxIkF4T25JI+7fhiR2tr0o4tOEicO1h1tINhz1SmO5iWVbYLowCI8DrBxEUmlHhuSklJWbJn04kfFajfNImhV5j8WH/iw+Hh4V8+v5GK3oFahVuycMmFECjyjNA87PZ3jgm7m34cbm19hjeQLc8KbgjH1fr+IR6stnArsJCj2kGHQjGQXO8TuWTSVHs55hngwlmVDvU44/y2nS10cFkncZZucwOF+p5SJVyu3brioI7MwMBMasdyJwWCnIqnEDT5mdqXx2DM72FidAT2muMKI8b4+OeEdj88fGd4x6CkmCp0tZ+HPxJjjEITzhUfnmxcoG+3DlMuSK73ilyvKPYWEC5oSq/Eli4YLly9rcoZ5y9gKjijUN+VyWTS0Qm8cc088VE29UEDkY4Jz0dx3ZmyFN8kCZVhb8Cc+GKNFXLxyEVejJGNK87fBx57QHJBaEOut3A0MA4Mb+p24GBzfUJzWAqXKdUl8OYfsXEhv25gylrybUaAR67tR+aCt2EpYc0ESC6I2SOXTGGUk/DI3Q+na8k2rgSs45sBcpHocZ8cT/CcspYc1RG5XByBmb+sqr9hIQmSC2IWybWZKygr4VvjFanaRDwachqdYXIRzKJ2XaxP1NJaUntyOVdtWG1tCMkFMWvkSs1MHPrm4wgz3F5Fm4h9Q04zHLkIHP+SI5522VpbS2odufAqECG5IGaMXAzutwn/yKEpaQnUM9FyW6jepgecf0a8yEf9WUHTGoxm5JLnXFd8YM4FMUvkmu9UuuezUL6fMocrhfekRIsDjXGrs1Tq2Wwt/HSIMRsPetWmGUt1Ti7MgYa0OL8cnhZCzAa5RqVPg5LWhHTlxJGVCpqRrFdvSHZW75IzBXtGmoQrcTondLVS8gbop4NQVlwJ/qpPqpkZjzLnHlxyYR1cOtbcajGF5IKYBXKd5foGFykk+ZSfoBE5uSNA75RM2idJBl1yphBemiHw9TwkKg2fu2AQ/x3AT4dwrPNiBpWp1N0HBzjOPXjk8mBZhs8Daku+HaikwwoNiFnYFp7LCpmQ5FMxGRBeJ2gyJDubXL/bEbTJmfTKcWy7+OLFxZUrHR1vjozc/BveSwo/najXZRJEi8jur48aKHP3uXlkryUWa+98LlRLLn0Ph7Ike1SZ1Jhr7VVvD31ILoi3Itf45C8yRd3ERIvWqwc8r+1AwX3WQpUqEYrC3b3g+m93/cWVThd8PFbAxSUnJyc3J0fZO/+OfX2qQAioSwh3Bc9E5lHdMuKPXNu51GW7kqp4ifrIZSHuvcAAdWz2Lo6FkQviLcg1Osp8yhAKGQyGqxwMhlD+e/bUQ7YVNlPpEz34i8J0SgX0PdzbktA6ZmNOf+2KXBhLxoVZTIwZmcOz5nA4PJ6Sd97w00EsKk8LqDJ0wRYzz02w9szWCdcvMlmjfi48+RA6+7IvoBJiXJWgy7N4SK73iVw9Ts9FGaKMrAuttbWtF7KyXj+Ialu3FFBBS1JjblO6f4xK6Vl9C/7AMAPQDT1xl91InIMoA3ESSv/8jblnqNAgRJvBjjI7RIeLwsQmv7t+4XQiPzNQSy6biH354BVd8Z6DcXozSy5oLf5ukovplLH24X05enuvXu3tRT1U36sZvtED3nGd3xYWZ6pyLjRW3D7RgSala+1KVixRJ8OwiVo/tByIvnmlI+XeNFVmJx6smi3qyWXUHHb4n8vQy0lexpfTlJ5SR64Fji6xkFzvHrnGnz5f+9KcX8nni73lEItRD+0vHwiKwa1hx6H9uX4qr1VxVGuNJfE7aTpZ//UtxCdF6LMJ2Ty3wwfZsaocGeRj14RcRF47mC5K7cOPbOfMqIbGgpEcHiTXOxi5+kQPzf0K6XIUykF/86GwkBfV0JYFKhWmFn/dzSerykJInNwQUDw6zfcM30IXMwjvy6mCv3vzDNWMXRNy6Rd67wdPNJjcJaFTBpEzQy5cdVKIdyByMUT3+YWKSa8/AdQDQoqOKvFaZQ/awCV6fRRBUTEbEAv+yUN5wPqfFNzQrIvQRQj4FxgWU5O91ImfaUiuOZSKuyeoQJoZmHHqMVnD0EUyMkS0JpfbtqU6FBKA+MNELkbG/UjlGQWRzD9dDzj6yGSZopWLmlWt5bYRB/PB6sKg67f4MTqYQqZRt++cQ09/Rlavg5qEDvlAo5xLsaONBxV3e/60+//sXWlUU2caDiEI12wQwipLgDABTAiEfQ9hjSBbWRRBQEUTRQHrSCiCaEcUDquiiHAUkDY4gMuMSwGXtMpWYLTS4lJH29MzP5z2TOecmTn+CJdOLnY65bs3uQnHHxaT3wS+hPf53uU+7/OUZTVpk3Uh82QPB1uijnLWmNK/+tdKyFySpwIN7bqpPDJbIgTm3mYu+fdcNZVhVA+0qYjUKCpWuxDV/CHoYWNfA1lRVFuAx1BSfXZQtxATXBiWz4jJyV+PhWhB3oUc5d++2hkm1wQvDHBZ/fBmiff611uTuW7cjKCrJyBAZFVhmMkFVABsPFO7ijVwggxtBX0+QsArhNLdlktz1FZ115Sopr7CeM7LyzlDM8X5fW6Te9rxn3MRjOlOYyjvOzPOkVsCLZwYiA5e3x94/rAxzEM9OUyVQkFw/bQtJ/YNirfpX28LuGBux03/fRrYPdTVggtXeKBmYUBFdD1NA0+DxfgAbIyUm2X9c5PhWqELIiaF/McNM0KN9/krOgB3onb8m5/FONOMz9AgqHFtlTr7NojJeCenJic8TL1xo//FPyaz1JrJQt4xa+KBf4LoyCmxuT4+Vx64pDWHNVPniCHH2gp7wKdjIr+b9g6mGkZ6OztruKD3KW92bpJmjj8XgxxDqtMa19KwikjjfREocPFa4nBMHkjJ/ne7hdqAC0qKuBhMWQCOLkQk5MiaT25IP125te5PzGt1s6MNEeEW2LUh5O31HBz2Fw3fTaDrZ/Erryy06cABF2SeVRZ1nblU9G/euqR5h5Ot+mgjO12oFS0sTQDwz+jCCyMSmTE5NlT1Mo2Bha4kdFnIwRNogtYnVqa2j8DauCexwo+iU5cZZ7q1MctWU2VoaiuOG5cIVd+TjeyG76U4QQh25vV2fQbawtps6IxJ1s/iVx642B2HvTSTvg2TwgqaD7GBJp95PaosSz1OiPLGoXguMNNWoevx3CRDs0c4iZgkLp+bzYzPH81loOMTolcPFAIDDWHhVY3P0IwdabnZkiLQtQ8bXFCSYDCYAkrNjbgEZ8cV89VWwoYG/OLb492cxT0YM6FncNWEqjbEcpjEuBzMfji/P1zfdK08cFnX/c3LW3MuMXWzH8jnWAGVUk9hW69cbUSQkqovHMl4D2WUJ3t8uF68Wj2XAjK1DYqIfRYq+27vTOgoVpprOvgkvwd8hvaiPkR9XWjMOnH2Dpppos73jxW+P915M7gjapLRHd3lH6Rm14ZElvt3fTTM+d/b7Cjvz2Y3CILo6FawCc0NRhYyq5P0deGKA5fJ+1/F4IALYtHqD0iKQKIGTyNRgyiP7ARYSouLIbLg7DMR4WpYgIYs2xPVcRO+kgxrGAHi3KQHET2aQBmwKjmll9WTiSHHE/a3prawlVqCC7IQXMznoGQK3EUVqRfrnULoBqg/RGLxxceuplaINv9/uUwqC/S9F5lli/qCMLjBsPR61e0sYGBiSDQ312ez3zq4PrRfhXNpIi3LeWcbcM6Y6VuWqLbJNySfPtXczkaha0Qm8R08GkFzoxtQDY1/qUeNjSES0Tw5PKFxoirUU2iGKPDaucxOJKAm4NSQ+s9AEYFP617EpWBP8yAqnXH26ZSnjVJbcBGIQfXRFQGon7cq8sz/4nJuWNBqRyIJMoZ+OTbZLcW1MrvWM2AJIM3yMkuf7kJfDqYnGltKwCxK6VaULymXSQYWQeJ/rjbVR+1vHFyWq3BHDMmC70s5uhE1qG6uA/kZZhhCve0+6YMNvdVZIXxvOtmRSKUaOJLp3hYO4add4yai+s/12P3s/SVd5FmBQrvJ9s+vg1DpKVSUp9BJ6M9BQuxmB65s5MLagwuiF+9IbUdnOiWbc7/0i7Hb/oknkJOTzc3J9H3JDjSn3srBVIkLCr5So5YfGajvx5DfG10H/nKpLHSuPJHvSCUhWzcqvPJp/o0/vkrUzxBXPrgIBiG9rYFgp4BD1GAFRXaiyB2vGxLPwnUfXeyqt/SvPiimyeU0cXGCv/2u2wVtW0PPiWzgXwbhQsmBcnAgb0wPuxecBwwnNsv6FY2n+eZLOiKIqgrSLMRulseFdQCX6l7wUjWZGDvbVsyMun7fm6eOnvWKqC4+eFB17JjIhifZOcOHitB7pUyjoXJ05oJsE1DES6XyO17/s0qvRDl/1apVKryGnW24tLXl5Vo3PStq5YMLMs+K9c0E71vNRA2ILEbIHQsodxFVOyXkxXfvTj+p6HvQdSausezhg4nD41E5tZKNPTaA/VdrOaOJBDRdset4wM6V0nrGr7PLPjHEgmxgurhyqbr9vR3CnSxf280uwEodwIXcC9ndFCx1OCubnnZJ6fmhZ4pLDwoKntxVjFflTFfwhCMYcnAfP7pQjfG0giXuOr4FpWBsPSM5f3PH0bMx9vaWkWVj46mF5+7nxNIM9GG74sFFIFkIfl+LKvI0EzVIqxO+meLZoSU/EZ0mdpHsUHzNcP7unJaWdVcef10T/zlPxDQB7FZGZH5taYABGMlt54GaveheLrC5dUe9fzFD7sBPtkCqNf/Jhi87mzHtZnHABa0X7/9LhVCNQClT1O684caw3/S033BHvCePwjVTYgj/CgM/wdx7Q4iXRmx0uVxUIin9bGjNmjVDVeuCN/A+3bvdp+/NbOnoX283uAhE+a5nqsIQ1oWoQfSwHOifsVYnqGtmzQ2gcD5ub98mygvgLloAoeYfdi79fd8uLT2N1zt9U5thhQ7OLZJHVW1PKuPSemPs/5BWNjG6JzW0Ro3drGZwEUhJTl2+8QHqJLCsTNjMgO09PdtVx3aHYay0uCDd5PsBJlEZShL0+eRhCNxvDhC1b3I2MnLeuC3PxgqG2c7pjXL9wPAdAJeqyGvYGg/MBXCIGhCLlqYIlalFF+LVBSOuXfPzMLZB2PwCs+bAKyDCiPL66ArpT/Po4JRtCpw+3vIi+uTJ6D3rQjs2bUOSinIZ4CKY8gUFzUYALwUs5WClmmMrX486I7C3wFgpZ863W2O+08r9VwKmsKj2y+Imfepa+eBCCsOxKzwTnYgaUBOtfDRUZrewXAlSVYxOvwQyF8GQXnz5+CFrrDeMMCmyLRs/d0Zu/+1cExiGlcsDF4Ho4Pqk2TlguSYwdjOhc5Mh2B0Tie866EOB8f0GuX88YMnXjzTeAXCpirydCp9rVkpdiBpQE6NcEeoiXXaMyvxa01Cmy1SHtYN+Ge7oymr+17c/vFTyV8qULugALsjAw+tWat2y9OhVFR2vX5Gmdr+GxdifHs/FBxciPMJg6QP3HQAXZJ7SGH0frJRwiBoqdKWNzmYKl+eZwHbxa80Fp4VIucnI7Qyk6GQnyT2U6cKEtQcX8vjB9WF6YAZbdzl9mFtSq0hTz6I3tBBcfcTTQvs4z+eifqTxToCLYGjrtANk8OIRNZDKcPKSbyDHBp7XzUlrHlYyS2r/nIa1eALZJsa+kFDcdTA9Ovd46t8zOoELYjlUx2bnlzCVC7qd/D1h5tSdXTQN+19Ej95Pgjn4x2fHR0VqIE3qXysHXKpyzKsvP2MpgxdXUYPk6CFoyK513j6iYwYYodRNDezCXOoiUC2cKqMCtfTnWrRv3v3Vv/6+lHWEBy7E0FxcfmeqjmKtS5cI22RIfK9ahmuaREBNKY3j3dfccT0xZY8KTjfpI/ddABeBFV7/u8Ci/7Z3tzFNXWEcwC00K7VvrF0dIC1UwbXQChUoBSxFpLVlpXXCYJNOdAgqogIOUIaxIFNkiSyObbyYqQNFHaJJM8ecmMyRLPHLEl9iwhyRObPtw+Kn7Yuj2b0FtS3Q3qvEjOz/+87Tcy/nuee+nHOef6ZP1PC3sRnRR4taB5PLurI20Eitl1OrkgpuSdJmeVkSapN1n0pSUXqYI8s3Xxvp/vPA7g20kouc7J4Zf6sgqSsr5BHVcffb8iUbj+3TZ/jfTj+YGHpzTr4548dtrw+J2iGNGCu9/hfJxRTsP9FbHE5rogb5Z+39K7oH7Np3K6nWWFGkqra+4azTSaNn61mh4v1rOqoLS0IC3l1ObFua0lg/LvvtgPd+1hSSawE7Ks5RN9B7uamEWu3lkKymstLBVZ0JjACnlCfeZfwhnZyW5SfoxKNtWxv7MAVqfiSXYcbkMlBOrgW8BM3wB3tmmKhxxN+OGgvYjIXC8YaOXG0Tt4ZCycmQSpX26PotEqHYzzZKTEFR32DpyaoACTsRyS2s/nlvUULcotu7aScXOezyY7udvWXLudvyA70jDKmsumx3GvVpeYH3cuKJLUecd0zcyAk/14Waqjt/jONl/LwZuXyfohV0Ri7ixrC/db22xPcJvjz9yuf+S58ERyWYW04M9aa3nc6KedXlmv2rcsgr3C4itT7t65RH+e1WwZwMvdFp1zaVhM+SsC5Xfjj3etK14T5hO+8lw+3d3gefTSG53Iu1ihK7z5duvKQqCc+fseXuwUeh/KJLm9vRMO73kuCRXQJhxb2CpOXcmJlb78pXZrftGHpnbR6Sa14kl+TDXysVPgVR2x5IaCQXq91sLDDdD/MuvHq/66Nb/nbUmLw3lJsTu4dzcstMS8uVkeSHKJdPXinClOWbr3/9ZbJzX99+KSfQ5Z/NEBe5E9Z0Oit8g3c4d7SactVbKQXnD63IELHYasmDNq+Dr9mzg0pyka9kbEJ93XCjPf2SqlwZppheuCw/JjW76uDGZOeJlqKEKIrPSMHtGY6r35emkK1XPPL43u0i51cpibYf/ubs9hmWW8J/Mbms+l9u/l7sUxD18ICezgpzptVxw641eQc5fm7HaLw0wDtjNi8qge9obThzyr6yx0ROoajxKIIcWVO++W3TufTc1UP36mLNRGpRqObIFMktid1nco4mXSr2CjcVLcXeWHtociMmllU/cNjz4IuXnNx5VRhF7aCjxJm6CuNII9lyn4aHhadmq0za6uSxYaLdchH1cYa85dQfGszJTfqx6bXvlDFTV6wwZeVXqiXEmVh29ogjrh25NT9wzH+PjvmUMx0bfWjm0AkSFDd+cWxaVdTRLeN/BV4ewYwWSNc6KuprP5uc/Pc0RwuP96zM3ZkzNNKwXbMrbaGIR61QKpsnShA6WvcNjq0mwh0vfFJn+aA72rCxQpdmnXwa5Jgf+hz82KaWOKrzYt3rF4n8qu1wN/zpLxW29fx0054zsKnOIOPbRExan3zJ9cbE5WZkLPnOyp62ybNhMr1/udq+mjwTuv6IUHxCnieCbGa9ZJHBo5ypYZFEb7HRmnnNjpZ2aryiGIgoEoeQ0v0Lm8gvOV+mkbSsM440exQvvttcW78uXiMTysWcICatDhohLdLFbq+/0Hx38eJPTi1zl0RuHjES0XR8OefxA1CQzeJ58ESbY2VpHBrjDJORJ+frNPF7iV+67dnwCzfqK1ZYPrZxGPRfmrMZAqlQJ1lzcfjKsccRhwY2GVfF6tbK84LwuDWPsotjnVbR1KMgKtW7mXarelqYiPZQ6unAUU8uuHrS2YmurpHxpTYrWRmSdgdlRnOsj8O1xLd4RGMwWbMevFotiKbZeYmWW70bTlxWYl/vzJRHiIKCn22QIZJWYOu36DSJEon7REg0DkumVMyJZmLUmmfPXf4Koj5PFDbdAORSYbVnV3dXXH3mw5oK5y6gPFs0nxaz2M/zSx45Kgpisp7nn8IKDo0mYk4FVb9HBmQjs2DuMn1uw724hrPm5LfYLNbcBgQAAAAAAAAAAAAAAAAAAAAAAAAAAAAAAAAAAAAAAAAAAAAAAAAAAAAAAAAAAAAAAAAAAAAAAAAAAAAAAAAAAIAX5F+d3YuptAGUwAAAAABJRU5ErkJggg==;" vertex="1" parent="1">
          <mxGeometry x="1300" y="1644" width="212.63" height="202" as="geometry" />
        </mxCell>
        <mxCell id="YG7zo1-SDTAd8ydAH6qE-61" value="" style="endArrow=block;startArrow=block;endFill=1;startFill=1;html=1;rounded=0;entryX=0;entryY=0;entryDx=0;entryDy=200;entryPerimeter=0;exitX=0;exitY=0;exitDx=2330;exitDy=115;exitPerimeter=0;" edge="1" parent="1" source="YG7zo1-SDTAd8ydAH6qE-3" target="YG7zo1-SDTAd8ydAH6qE-55">
          <mxGeometry width="160" relative="1" as="geometry">
            <mxPoint x="1180" y="1870" as="sourcePoint" />
            <mxPoint x="1340" y="1870" as="targetPoint" />
          </mxGeometry>
        </mxCell>
        <mxCell id="YG7zo1-SDTAd8ydAH6qE-62" value="Admin" style="shape=umlActor;verticalLabelPosition=bottom;verticalAlign=top;html=1;" vertex="1" parent="1">
          <mxGeometry x="1820" y="1640" width="120" height="260" as="geometry" />
        </mxCell>
        <mxCell id="YG7zo1-SDTAd8ydAH6qE-63" style="edgeStyle=orthogonalEdgeStyle;rounded=0;orthogonalLoop=1;jettySize=auto;html=1;exitX=0.5;exitY=0.5;exitDx=0;exitDy=0;exitPerimeter=0;entryX=0;entryY=0;entryDx=430;entryDy=200;entryPerimeter=0;" edge="1" parent="1" source="YG7zo1-SDTAd8ydAH6qE-62" target="YG7zo1-SDTAd8ydAH6qE-55">
          <mxGeometry relative="1" as="geometry" />
        </mxCell>
      </root>
    </mxGraphModel>
  </diagram>
</mxfile>
